<svg width="160" height="160" viewBox="0 0 160 160" fill="none" xmlns="http://www.w3.org/2000/svg">
<path fill-rule="evenodd" clip-rule="evenodd" d="M30.0001 47.269C26.6863 47.269 24.0001 49.9553 24.0001 53.269L24 119.468H16L16.0001 53.269C16.0001 45.537 22.2681 39.269 30.0001 39.269H130C137.732 39.269 144 45.5371 144 53.2691L144 119.468H136L136 53.269C136 49.9553 133.314 47.269 130 47.269H30.0001Z" fill="#0B3954"/>
<path fill-rule="evenodd" clip-rule="evenodd" d="M29.3497 47.269C26.3952 47.269 24 49.6641 24 52.6186C24 55.5732 26.3951 57.9684 29.3497 57.9684H130.65C133.605 57.9684 136 55.5733 136 52.6188C136 49.6642 133.605 47.269 130.65 47.269H29.3497ZM16 52.6185C16.0001 45.2458 21.9769 39.269 29.3497 39.269H130.65C138.023 39.269 144 45.246 144 52.6188C144 59.9916 138.023 65.9684 130.65 65.9684H29.3497C21.9768 65.9684 15.9999 59.9914 16 52.6185Z" fill="#0B3954"/>
<path fill-rule="evenodd" clip-rule="evenodd" d="M35.5469 119.468L35.5469 64.4678L43.0469 64.4678L43.0469 119.468L35.5469 119.468Z" fill="#0B3954"/>
<path fill-rule="evenodd" clip-rule="evenodd" d="M115.547 119.468L115.547 64.4678L123.547 64.4678L123.547 119.468L115.547 119.468Z" fill="#0B3954"/>
</svg>
