<svg width="160" height="160" viewBox="0 0 160 160" fill="none" xmlns="http://www.w3.org/2000/svg">
<path fill-rule="evenodd" clip-rule="evenodd" d="M49.5571 43.0484C49.5571 28.11 61.6671 16 76.6056 16C91.544 16 103.654 28.11 103.654 43.0484V135.169H95.654V43.0484C95.654 32.5283 87.1257 24 76.6056 24C66.0854 24 57.5571 32.5283 57.5571 43.0484V47.3411H49.5571V43.0484Z" fill="#0B3954"/>
<path fill-rule="evenodd" clip-rule="evenodd" d="M76.6064 136C76.6064 133.791 78.3973 132 80.6064 132L118.701 132C120.91 132 122.701 133.791 122.701 136C122.701 138.209 120.91 140 118.701 140L80.6064 140C78.3973 140 76.6064 138.209 76.6064 136Z" fill="#0B3954"/>
<path fill-rule="evenodd" clip-rule="evenodd" d="M33.3022 65.076C33.3022 53.8894 42.3708 44.8208 53.5575 44.8208C64.7441 44.8208 73.8127 53.8894 73.8127 65.076V85.3313H33.3022V65.076ZM53.5575 52.8208C46.7891 52.8208 41.3022 58.3077 41.3022 65.076V77.3313H65.8127V65.076C65.8127 58.3077 60.3259 52.8208 53.5575 52.8208Z" fill="#0B3954"/>
</svg>
