<svg width="160" height="160" viewBox="0 0 160 160" fill="none" xmlns="http://www.w3.org/2000/svg">
<path fill-rule="evenodd" clip-rule="evenodd" d="M40 80.7627C31.1634 80.7627 24 87.9261 24 96.7627V106.435H136V96.7627C136 87.9261 128.837 80.7627 120 80.7627H40ZM16 96.7627C16 83.5079 26.7452 72.7627 40 72.7627H120C133.255 72.7627 144 83.5079 144 96.7627V114.435H16V96.7627Z" fill="#0B3954"/>
<path fill-rule="evenodd" clip-rule="evenodd" d="M50.1211 66.2402C50.1211 58.5082 56.3891 52.2402 64.1211 52.2402H95.8786C103.611 52.2402 109.879 58.5082 109.879 66.2402V73.2859H101.879V66.2402C101.879 62.9265 99.1923 60.2402 95.8786 60.2402H64.1211C60.8074 60.2402 58.1211 62.9265 58.1211 66.2402V73.2859H50.1211V66.2402Z" fill="#0B3954"/>
<path fill-rule="evenodd" clip-rule="evenodd" d="M42.0801 38.7314C38.7664 38.7314 36.0801 41.4177 36.0801 44.7314V80.2628H28.0801V44.7314C28.0801 36.9994 34.3481 30.7314 42.0801 30.7314H117.919C125.651 30.7314 131.919 36.9995 131.919 44.7314V78.8411H123.919V44.7314C123.919 41.4177 121.233 38.7314 117.919 38.7314H42.0801Z" fill="#0B3954"/>
<path fill-rule="evenodd" clip-rule="evenodd" d="M35.5088 110.435C37.7179 110.435 39.5088 112.225 39.5088 114.435V121.269C39.5088 123.479 37.7179 125.269 35.5088 125.269C33.2997 125.269 31.5088 123.479 31.5088 121.269V114.435C31.5088 112.225 33.2997 110.435 35.5088 110.435Z" fill="#0B3954"/>
<path fill-rule="evenodd" clip-rule="evenodd" d="M126.622 110.435C128.831 110.435 130.622 112.225 130.622 114.435V121.269C130.622 123.479 128.831 125.269 126.622 125.269C124.413 125.269 122.622 123.479 122.622 121.269V114.435C122.622 112.225 124.413 110.435 126.622 110.435Z" fill="#0B3954"/>
</svg>
