<svg width="160" height="160" viewBox="0 0 160 160" fill="none" xmlns="http://www.w3.org/2000/svg">
<path fill-rule="evenodd" clip-rule="evenodd" d="M40.9644 24C37.6506 24 34.9644 26.6863 34.9644 30V115.438C34.9644 118.752 37.6506 121.438 40.9644 121.438H75.9994V24H40.9644ZM83.9994 24V121.438H119.034C122.348 121.438 125.034 118.752 125.034 115.438V30C125.034 26.6863 122.348 24 119.034 24H83.9994ZM26.9644 30C26.9644 22.268 33.2324 16 40.9644 16H119.034C126.766 16 133.034 22.268 133.034 30V115.438C133.034 123.17 126.766 129.438 119.034 129.438H40.9644C33.2324 129.438 26.9644 123.17 26.9644 115.438V30Z" fill="#0B3954"/>
<path fill-rule="evenodd" clip-rule="evenodd" d="M45.7432 124.241C47.9523 124.241 49.7432 126.032 49.7432 128.241V136.001C49.7432 138.21 47.9523 140.001 45.7432 140.001C43.534 140.001 41.7432 138.21 41.7432 136.001V128.241C41.7432 126.032 43.534 124.241 45.7432 124.241Z" fill="#0B3954"/>
<path fill-rule="evenodd" clip-rule="evenodd" d="M51.168 64.8389C53.3771 64.8389 55.168 66.6297 55.168 68.8389V76.5988C55.168 78.8079 53.3771 80.5988 51.168 80.5988C48.9588 80.5988 47.168 78.8079 47.168 76.5988V68.8389C47.168 66.6297 48.9588 64.8389 51.168 64.8389Z" fill="#0B3954"/>
<path fill-rule="evenodd" clip-rule="evenodd" d="M107.838 64.8389C110.047 64.8389 111.838 66.6297 111.838 68.8389V76.5988C111.838 78.8079 110.047 80.5988 107.838 80.5988C105.629 80.5988 103.838 78.8079 103.838 76.5988V68.8389C103.838 66.6297 105.629 64.8389 107.838 64.8389Z" fill="#0B3954"/>
<path fill-rule="evenodd" clip-rule="evenodd" d="M113.265 124.241C115.474 124.241 117.265 126.032 117.265 128.241V136.001C117.265 138.21 115.474 140.001 113.265 140.001C111.056 140.001 109.265 138.21 109.265 136.001V128.241C109.265 126.032 111.056 124.241 113.265 124.241Z" fill="#0B3954"/>
</svg>
