<svg width="160" height="160" viewBox="0 0 160 160" fill="none" xmlns="http://www.w3.org/2000/svg">
<path fill-rule="evenodd" clip-rule="evenodd" d="M30 45.4624C26.6863 45.4624 24 48.1487 24 51.4624V118.54H16V51.4624C16 43.7304 22.268 37.4624 30 37.4624H130C137.732 37.4624 144 43.7304 144 51.4624V118.923H88.6649V45.4624H30ZM96.6649 45.4624V65.8369H136V51.4624C136 48.1487 133.314 45.4624 130 45.4624H96.6649ZM136 73.8369H96.6649V110.923H136V73.8369Z" fill="#0B3954"/>
<path d="M120.381 83.7477C120.381 85.8174 118.703 87.4953 116.633 87.4953C114.564 87.4953 112.886 85.8174 112.886 83.7477C112.886 81.6779 114.564 80 116.633 80C118.703 80 120.381 81.6779 120.381 83.7477Z" fill="#0B3954"/>
</svg>
