<svg width="160" height="160" viewBox="0 0 160 160" fill="none" xmlns="http://www.w3.org/2000/svg">
<path fill-rule="evenodd" clip-rule="evenodd" d="M45.5424 82.8696C53.1935 88.1355 63.6375 94.0742 80.0004 94.0742C96.3634 94.0742 106.807 88.1355 114.459 82.8696C115.651 82.0486 116.696 81.3015 117.717 80.5711C118.432 80.0601 119.135 79.5573 119.869 79.0431C121.53 77.8802 123.215 76.7584 124.868 75.9257C126.514 75.096 128.416 74.4021 130.486 74.3841C132.687 74.365 134.711 75.1108 136.498 76.5346C141.293 80.3545 142.026 86.7101 140.827 92.6238C139.598 98.6871 136.201 105.389 131.102 111.58C120.862 124.014 103.198 135.06 80.0004 135.06C56.8026 135.06 39.1389 124.014 28.8989 111.58C23.7997 105.389 20.4029 98.6871 19.1735 92.6238C17.9744 86.7101 18.7075 80.3545 23.5028 76.5346C25.2902 75.1108 27.3141 74.365 29.5146 74.3841C31.5853 74.4021 33.4866 75.096 35.1332 75.9257C36.7856 76.7584 38.4708 77.8802 40.1316 79.0431C40.866 79.5573 41.5691 80.0601 42.2835 80.5711C43.3049 81.3015 44.3495 82.0486 45.5424 82.8696ZM29.4451 82.3838C29.231 82.382 28.9631 82.413 28.4874 82.7919C27.1307 83.8726 26.0727 86.3919 27.014 91.0341C27.9249 95.5266 30.5998 101.062 35.0742 106.494C43.9813 117.309 59.4722 127.06 80.0004 127.06C100.529 127.06 116.02 117.309 124.927 106.494C129.401 101.062 132.076 95.5266 132.987 91.0341C133.928 86.3919 132.87 83.8726 131.514 82.7919C131.038 82.413 130.77 82.382 130.556 82.3838C130.212 82.3868 129.576 82.5117 128.468 83.0699C127.366 83.6253 126.079 84.4608 124.458 85.5963C123.872 86.0063 123.211 86.4787 122.505 86.983C121.404 87.7692 120.195 88.6331 118.994 89.4596C110.651 95.2019 98.6183 102.074 80.0004 102.074C61.3826 102.074 49.3501 95.2019 41.0068 89.4596C39.8058 88.6331 38.5965 87.7692 37.4959 86.983C36.7898 86.4787 36.1285 86.0063 35.543 85.5963C33.9214 84.4608 32.6352 83.6253 31.5331 83.0699C30.4253 82.5117 29.789 82.3868 29.4451 82.3838Z" fill="#0B3954"/>
<path fill-rule="evenodd" clip-rule="evenodd" d="M40.659 39.3483C39.4016 41.5237 39.2635 43.0965 39.4277 43.9029C40.7492 50.39 47.2857 75.6303 50.4233 87.5636L42.6863 89.5979C39.5847 77.8016 32.9676 52.2686 31.5887 45.4998C30.9092 42.1638 31.8642 38.5776 33.7328 35.3448C35.6339 32.0557 38.646 28.8178 42.6768 25.975C50.7612 20.2733 63.1528 16 80.0013 16C96.8499 16 109.241 20.2733 117.326 25.975C121.357 28.8178 124.369 32.0557 126.27 35.3448C128.139 38.5776 129.094 42.1638 128.414 45.4998C127.035 52.2686 120.418 77.8016 117.316 89.5979L109.579 87.5636C112.717 75.6303 119.253 50.39 120.575 43.9029C120.739 43.0965 120.601 41.5237 119.344 39.3483C118.119 37.2292 115.972 34.8096 112.715 32.5127C106.224 27.9349 95.5254 24 80.0013 24C64.4773 24 53.7785 27.9349 47.2876 32.5127C44.0307 34.8096 41.8839 37.2292 40.659 39.3483Z" fill="#0B3954"/>
<path fill-rule="evenodd" clip-rule="evenodd" d="M50.3142 124.524C52.0815 125.85 52.4396 128.357 51.1142 130.124L42.5067 141.601C41.1813 143.368 38.6741 143.726 36.9068 142.401C35.1394 141.075 34.7813 138.568 36.1067 136.801L44.7142 125.324C46.0396 123.557 48.5468 123.199 50.3142 124.524Z" fill="#0B3954"/>
<path fill-rule="evenodd" clip-rule="evenodd" d="M109.471 124.524C107.703 125.85 107.345 128.357 108.671 130.124L117.278 141.601C118.604 143.368 121.111 143.726 122.878 142.401C124.645 141.075 125.004 138.568 123.678 136.801L115.071 125.324C113.745 123.557 111.238 123.199 109.471 124.524Z" fill="#0B3954"/>
</svg>
