<svg width="24" height="25" viewBox="0 0 24 25" fill="none" xmlns="http://www.w3.org/2000/svg">
<path d="M23.9639 18.9011L17.1954 12.1326L19.1101 10.2179L14.5368 5.64453L12.6221 7.55923L5.85357 0.79071L0.085083 6.5592L6.85361 13.3277L1.04853 19.1328V23.7061H5.62186L11.4269 17.901L18.1955 24.6696L23.9639 18.9011V18.9011ZM8.58537 11.596L3.53642 6.5592L5.85357 4.24205L7.4024 5.79088L5.95114 7.24215L7.67071 8.96172L9.12197 7.51045L10.8903 9.2788L8.58537 11.596V11.596ZM13.1587 16.1693L15.4758 13.8521L17.2442 15.6205L15.7929 17.0718L17.5125 18.7913L18.9638 17.3401L20.5126 18.8889L18.1955 21.206L13.1587 16.1693V16.1693ZM15.8454 4.34327L18.9406 1.24682L23.5115 5.81771L20.4163 8.91416L15.8454 4.34327Z" fill="#F9995D"/>
</svg>
