<svg width="28" height="28" viewBox="0 0 28 28" fill="none" xmlns="http://www.w3.org/2000/svg">
<path d="M25.2595 8.85193C25.9064 8.85193 26.5268 9.10891 26.9842 9.56633C27.4416 10.0238 27.6986 10.6441 27.6986 11.291V16.1693C27.6986 16.8161 27.4416 17.4365 26.9842 17.894C26.5268 18.3514 25.9064 18.6084 25.2595 18.6084H23.9643C23.667 20.9661 22.5195 23.1343 20.7371 24.7061C18.9547 26.2779 16.6599 27.1452 14.2835 27.1452V24.7061C16.2242 24.7061 18.0854 23.9352 19.4576 22.5629C20.8299 21.1907 21.6008 19.3295 21.6008 17.3888V10.0715C21.6008 8.13081 20.8299 6.26962 19.4576 4.89736C18.0854 3.52509 16.2242 2.75416 14.2835 2.75416C12.3428 2.75416 10.4816 3.52509 9.10937 4.89736C7.73711 6.26962 6.96618 8.13081 6.96618 10.0715V18.6084H3.30752C2.66062 18.6084 2.04023 18.3514 1.58281 17.894C1.12538 17.4365 0.868408 16.8161 0.868408 16.1693V11.291C0.868408 10.6441 1.12538 10.0238 1.58281 9.56633C2.04023 9.10891 2.66062 8.85193 3.30752 8.85193H4.60268C4.90029 6.49441 6.04795 4.3265 7.83032 2.75499C9.61269 1.18347 11.9073 0.316368 14.2835 0.316368C16.6597 0.316368 18.9543 1.18347 20.7367 2.75499C22.519 4.3265 23.6667 6.49441 23.9643 8.85193H25.2595ZM9.11259 18.3462L10.4053 16.2778C11.5676 17.0059 12.9119 17.391 14.2835 17.3888C15.655 17.391 16.9994 17.0059 18.1617 16.2778L19.4544 18.3462C17.9047 19.3171 16.1123 19.8307 14.2835 19.8279C12.4547 19.8307 10.6623 19.3171 9.11259 18.3462Z" fill="#F9995D"/>
</svg>
