<svg width="28" height="28" viewBox="0 0 28 28" fill="none" xmlns="http://www.w3.org/2000/svg">
<path d="M25.2995 8.85193C25.9464 8.85193 26.5668 9.10891 27.0242 9.56633C27.4816 10.0238 27.7386 10.6441 27.7386 11.291V16.1693C27.7386 16.8161 27.4816 17.4365 27.0242 17.894C26.5668 18.3514 25.9464 18.6084 25.2995 18.6084H24.0044C23.707 20.9661 22.5595 23.1343 20.7771 24.7061C18.9947 26.2779 16.7 27.1452 14.3235 27.1452V24.7061C16.2642 24.7061 18.1254 23.9352 19.4977 22.5629C20.8699 21.1907 21.6409 19.3295 21.6409 17.3888V10.0715C21.6409 8.13081 20.8699 6.26962 19.4977 4.89736C18.1254 3.52509 16.2642 2.75416 14.3235 2.75416C12.3829 2.75416 10.5217 3.52509 9.14941 4.89736C7.77715 6.26962 7.00622 8.13081 7.00622 10.0715V18.6084H3.34755C2.70066 18.6084 2.08027 18.3514 1.62285 17.894C1.16542 17.4365 0.908447 16.8161 0.908447 16.1693V11.291C0.908447 10.6441 1.16542 10.0238 1.62285 9.56633C2.08027 9.10891 2.70066 8.85193 3.34755 8.85193H4.64272C4.94033 6.49441 6.08799 4.3265 7.87036 2.75499C9.65273 1.18347 11.9473 0.316368 14.3235 0.316368C16.6998 0.316368 18.9943 1.18347 20.7767 2.75499C22.5591 4.3265 23.7067 6.49441 24.0044 8.85193H25.2995ZM9.15263 18.3462L10.4454 16.2778C11.6077 17.0059 12.952 17.391 14.3235 17.3888C15.6951 17.391 17.0394 17.0059 18.2017 16.2778L19.4944 18.3462C17.9447 19.3171 16.1523 19.8307 14.3235 19.8279C12.4948 19.8307 10.7024 19.3171 9.15263 18.3462Z" fill="#F9995D"/>
</svg>
