<svg width="35" height="36" viewBox="0 0 35 36" fill="none" xmlns="http://www.w3.org/2000/svg">
<g clip-path="url(#clip0_1_6260)">
<path d="M17.5 35.55C27.165 35.55 35 27.715 35 18.05C35 8.38507 27.165 0.550049 17.5 0.550049C7.83502 0.550049 0 8.38507 0 18.05C0 27.715 7.83502 35.55 17.5 35.55Z" fill="white" fill-opacity="0.15"/>
<path d="M17.5002 35.4668C27.1191 35.4668 34.9168 27.669 34.9168 18.0501C34.9168 8.43113 27.1191 0.633423 17.5002 0.633423C7.8812 0.633423 0.0834961 8.43113 0.0834961 18.0501C0.0834961 27.669 7.8812 35.4668 17.5002 35.4668Z" stroke="white" stroke-opacity="0.2" stroke-width="0.166667"/>
<path d="M17.7502 29.9668C24.1935 29.9668 29.4168 24.7434 29.4168 18.3001C29.4168 11.8568 24.1935 6.63342 17.7502 6.63342C11.3068 6.63342 6.0835 11.8568 6.0835 18.3001C6.0835 24.7434 11.3068 29.9668 17.7502 29.9668Z" stroke="white" stroke-opacity="0.2" stroke-width="0.166667"/>
<path d="M17.5 24.05C20.8137 24.05 23.5 21.3638 23.5 18.05C23.5 14.7363 20.8137 12.05 17.5 12.05C14.1863 12.05 11.5 14.7363 11.5 18.05C11.5 21.3638 14.1863 24.05 17.5 24.05Z" fill="#FFB128"/>
<path fill-rule="evenodd" clip-rule="evenodd" d="M17.5 20.05V16.55H18V20.05H17.5Z" fill="white"/>
<path fill-rule="evenodd" clip-rule="evenodd" d="M16 18.05H19.5V18.55H16V18.05Z" fill="white"/>
</g>
<defs>
<clipPath id="clip0_1_6260">
<rect width="35" height="35" fill="white" transform="translate(0 0.550049)"/>
</clipPath>
</defs>
</svg>
