<svg width="33" height="33" viewBox="0 0 33 33" fill="none" xmlns="http://www.w3.org/2000/svg">
<g clip-path="url(#clip0_1_2063)">
<g clip-path="url(#clip1_1_2063)">
<path fill-rule="evenodd" clip-rule="evenodd" d="M9.70863 16.7039C11.2389 17.7571 13.3277 18.9448 16.6002 18.9448C19.8728 18.9448 21.9616 17.7571 23.492 16.7039C23.7304 16.5397 23.9394 16.3903 24.1436 16.2442C24.2866 16.142 24.4272 16.0414 24.574 15.9386C24.9062 15.706 25.2432 15.4816 25.5738 15.3151C25.903 15.1492 26.2833 15.0104 26.6973 15.0068C27.1376 15.003 27.5424 15.1521 27.8998 15.4369C28.8588 16.2009 29.0054 17.472 28.7656 18.6547C28.5198 19.8674 27.8404 21.2078 26.8206 22.446C24.7726 24.9328 21.2397 27.142 16.6002 27.142C11.9607 27.142 8.42793 24.9328 6.37993 22.446C5.36009 21.2078 4.68073 19.8674 4.43485 18.6547C4.19503 17.472 4.34165 16.2009 5.30071 15.4369C5.65819 15.1521 6.06297 15.003 6.50307 15.0068C6.91721 15.0104 7.29747 15.1492 7.62679 15.3151C7.95727 15.4816 8.29431 15.706 8.62647 15.9386C8.77335 16.0414 8.91397 16.142 9.05685 16.2442C9.26113 16.3903 9.47005 16.5397 9.70863 16.7039ZM6.48917 16.6067C6.44635 16.6064 6.39277 16.6126 6.29763 16.6883C6.02629 16.9045 5.81469 17.4083 6.00295 18.3368C6.18513 19.2353 6.72011 20.3424 7.61499 21.4288C9.39641 23.5918 12.4946 25.542 16.6002 25.542C20.706 25.542 23.8042 23.5918 25.5856 21.4288C26.4804 20.3424 27.0154 19.2353 27.1976 18.3368C27.3858 17.4083 27.1742 16.9045 26.903 16.6883C26.8078 16.6126 26.7542 16.6064 26.7114 16.6067C26.6426 16.6073 26.5154 16.6323 26.2938 16.7439C26.0734 16.855 25.816 17.0221 25.4918 17.2492C25.3746 17.3312 25.2424 17.4257 25.1012 17.5266C24.881 17.6838 24.6392 17.8566 24.399 18.0219C22.7304 19.1703 20.3238 20.5448 16.6002 20.5448C12.8767 20.5448 10.4702 19.1703 8.80151 18.0219C8.56131 17.8566 8.31945 17.6838 8.09933 17.5266C7.95811 17.4257 7.82585 17.3312 7.70875 17.2492C7.38443 17.0221 7.12719 16.855 6.90677 16.7439C6.68521 16.6323 6.55795 16.6073 6.48917 16.6067Z" fill="#0B3954"/>
<path fill-rule="evenodd" clip-rule="evenodd" d="M8.73185 7.99962C8.48037 8.4347 8.45275 8.74926 8.48559 8.91054C8.74989 10.208 10.0572 15.256 10.6847 17.6427L9.13731 18.0495C8.51699 15.6903 7.19357 10.5837 6.91779 9.22992C6.78189 8.56272 6.97289 7.84548 7.34661 7.19892C7.72683 6.5411 8.32925 5.89352 9.13541 5.32496C10.7523 4.18462 13.2306 3.32996 16.6003 3.32996C19.97 3.32996 22.4482 4.18462 24.0652 5.32496C24.8714 5.89352 25.4738 6.5411 25.854 7.19892C26.2278 7.84548 26.4188 8.56272 26.2829 9.22992C26.007 10.5837 24.6836 15.6903 24.0632 18.0495L22.5158 17.6427C23.1434 15.256 24.4506 10.208 24.715 8.91054C24.7478 8.74926 24.7202 8.4347 24.4688 7.99962C24.2239 7.5758 23.7944 7.09188 23.143 6.6325C21.8448 5.71694 19.7051 4.92996 16.6003 4.92996C13.4955 4.92996 11.3557 5.71694 10.0576 6.6325C9.40619 7.09188 8.97683 7.5758 8.73185 7.99962Z" fill="#0B3954"/>
<path fill-rule="evenodd" clip-rule="evenodd" d="M10.6629 25.0349C11.0164 25.3001 11.088 25.8015 10.8229 26.1549L9.10141 28.4503C8.83633 28.8037 8.33489 28.8753 7.98143 28.6103C7.62795 28.3451 7.55633 27.8437 7.82141 27.4903L9.54291 25.1949C9.80799 24.8415 10.3094 24.7699 10.6629 25.0349Z" fill="#0B3954"/>
<path fill-rule="evenodd" clip-rule="evenodd" d="M22.4943 25.0349C22.1407 25.3001 22.0691 25.8015 22.3343 26.1549L24.0557 28.4503C24.3209 28.8037 24.8223 28.8753 25.1757 28.6103C25.5291 28.3451 25.6009 27.8437 25.3357 27.4903L23.6143 25.1949C23.3491 24.8415 22.8477 24.7699 22.4943 25.0349Z" fill="#0B3954"/>
</g>
</g>
<defs>
<clipPath id="clip0_1_2063">
<rect width="32" height="32" fill="white" transform="translate(0.600098 0.130005)"/>
</clipPath>
<clipPath id="clip1_1_2063">
<rect width="32" height="32" fill="white" transform="translate(0.600098 0.130005)"/>
</clipPath>
</defs>
</svg>
