<svg width="33" height="33" viewBox="0 0 33 33" fill="none" xmlns="http://www.w3.org/2000/svg">
<path fill-rule="evenodd" clip-rule="evenodd" d="M8.05745 16.2825C6.29013 16.2825 4.85745 17.7152 4.85745 19.4825V21.417H27.2574V19.4825C27.2574 17.7152 25.8248 16.2825 24.0574 16.2825H8.05745ZM3.25745 19.4825C3.25745 16.8315 5.40649 14.6825 8.05745 14.6825H24.0574C26.7084 14.6825 28.8574 16.8315 28.8574 19.4825V23.017H3.25745V19.4825Z" fill="#0B3954"/>
<path fill-rule="evenodd" clip-rule="evenodd" d="M10.0817 13.378C10.0817 11.8316 11.3353 10.578 12.8817 10.578H19.2332C20.7796 10.578 22.0332 11.8316 22.0332 13.378V14.7871H20.4332V13.378C20.4332 12.7153 19.8959 12.178 19.2332 12.178H12.8817C12.2189 12.178 11.6817 12.7153 11.6817 13.378V14.7871H10.0817V13.378Z" fill="#0B3954"/>
<path fill-rule="evenodd" clip-rule="evenodd" d="M8.47346 7.87625C7.81072 7.87625 7.27346 8.41351 7.27346 9.07625V16.1825H5.67346V9.07625C5.67346 7.52985 6.92706 6.27625 8.47346 6.27625H23.6412C25.1876 6.27625 26.4412 7.52987 26.4412 9.07625V15.8982H24.8412V9.07625C24.8412 8.41351 24.304 7.87625 23.6412 7.87625H8.47346Z" fill="#0B3954"/>
<path fill-rule="evenodd" clip-rule="evenodd" d="M7.15925 22.217C7.60107 22.217 7.95925 22.575 7.95925 23.017V24.3838C7.95925 24.8258 7.60107 25.1838 7.15925 25.1838C6.71743 25.1838 6.35925 24.8258 6.35925 24.3838V23.017C6.35925 22.575 6.71743 22.217 7.15925 22.217Z" fill="#0B3954"/>
<path fill-rule="evenodd" clip-rule="evenodd" d="M25.3819 22.217C25.8237 22.217 26.1819 22.575 26.1819 23.017V24.3838C26.1819 24.8258 25.8237 25.1838 25.3819 25.1838C24.9401 25.1838 24.5819 24.8258 24.5819 24.3838V23.017C24.5819 22.575 24.9401 22.217 25.3819 22.217Z" fill="#0B3954"/>
</svg>
