<svg width="33" height="33" viewBox="0 0 33 33" fill="none" xmlns="http://www.w3.org/2000/svg">
<path fill-rule="evenodd" clip-rule="evenodd" d="M8.87288 4.92996C8.21012 4.92996 7.67288 5.46722 7.67288 6.12996V23.2176C7.67288 23.8804 8.21012 24.4176 8.87288 24.4176H15.8799V4.92996H8.87288ZM17.4799 4.92996V24.4176H24.4868C25.1496 24.4176 25.6868 23.8804 25.6868 23.2176V6.12996C25.6868 5.46722 25.1496 4.92996 24.4868 4.92996H17.4799ZM6.07288 6.12996C6.07288 4.58356 7.32648 3.32996 8.87288 3.32996H24.4868C26.0332 3.32996 27.2868 4.58356 27.2868 6.12996V23.2176C27.2868 24.764 26.0332 26.0176 24.4868 26.0176H8.87288C7.32648 26.0176 6.07288 24.764 6.07288 23.2176V6.12996Z" fill="#0B3954"/>
<path fill-rule="evenodd" clip-rule="evenodd" d="M9.82869 24.9781C10.2705 24.9781 10.6287 25.3363 10.6287 25.7781V27.3302C10.6287 27.772 10.2705 28.1302 9.82869 28.1302C9.38685 28.1302 9.02869 27.772 9.02869 27.3302V25.7781C9.02869 25.3363 9.38685 24.9781 9.82869 24.9781Z" fill="#0B3954"/>
<path fill-rule="evenodd" clip-rule="evenodd" d="M10.9136 13.0978C11.3555 13.0978 11.7136 13.4559 11.7136 13.8978V15.4498C11.7136 15.8916 11.3555 16.2498 10.9136 16.2498C10.4718 16.2498 10.1136 15.8916 10.1136 15.4498V13.8978C10.1136 13.4559 10.4718 13.0978 10.9136 13.0978Z" fill="#0B3954"/>
<path fill-rule="evenodd" clip-rule="evenodd" d="M22.2476 13.0978C22.6894 13.0978 23.0476 13.4559 23.0476 13.8978V15.4498C23.0476 15.8916 22.6894 16.2498 22.2476 16.2498C21.8058 16.2498 21.4476 15.8916 21.4476 15.4498V13.8978C21.4476 13.4559 21.8058 13.0978 22.2476 13.0978Z" fill="#0B3954"/>
<path fill-rule="evenodd" clip-rule="evenodd" d="M23.3331 24.9781C23.7749 24.9781 24.1331 25.3363 24.1331 25.7781V27.3302C24.1331 27.772 23.7749 28.1302 23.3331 28.1302C22.8913 28.1302 22.5331 27.772 22.5331 27.3302V25.7781C22.5331 25.3363 22.8913 24.9781 23.3331 24.9781Z" fill="#0B3954"/>
</svg>
