<svg width="21" height="22" viewBox="0 0 21 22" fill="none" xmlns="http://www.w3.org/2000/svg">
<path fill-rule="evenodd" clip-rule="evenodd" d="M10.2365 2.06524C8.6106 2.06524 7.29233 3.38351 7.29233 5.00944H5.29826C5.29826 2.28203 7.50912 0.071167 10.2365 0.071167C12.9639 0.071167 15.1748 2.28203 15.1748 5.00944H13.1807C13.1807 3.38351 11.8625 2.06524 10.2365 2.06524ZM18.3612 7.0082H2.35875V17.0613C2.35875 17.5914 2.56933 18.0998 2.94418 18.4746C3.31902 18.8495 3.82741 19.0601 4.35752 19.0601H16.3625C16.625 19.0601 16.8849 19.0083 17.1274 18.9079C17.3699 18.8074 17.5903 18.6602 17.7759 18.4745C17.9615 18.2889 18.1087 18.0685 18.2091 17.826C18.3096 17.5835 18.3613 17.3235 18.3612 17.061V7.00845V7.0082ZM0.359985 5.00944V17.0613C0.359985 19.2687 2.14986 21.0588 4.35752 21.0588H16.3625C18.5699 21.0588 20.36 19.2689 20.36 17.0613V5.00944H0.359985Z" fill="#0B3954"/>
</svg>
