<svg width="33" height="33" viewBox="0 0 33 33" fill="none" xmlns="http://www.w3.org/2000/svg">
<path fill-rule="evenodd" clip-rule="evenodd" d="M6.25251 9.22244C5.58977 9.22244 5.05251 9.7597 5.05251 10.4224V23.838H3.45251V10.4224C3.45251 8.87604 4.70611 7.62244 6.25251 7.62244H26.2525C27.7989 7.62244 29.0525 8.87604 29.0525 10.4224V23.9146H17.9855V9.22244H6.25251ZM19.5855 9.22244V13.2973H27.4525V10.4224C27.4525 9.7597 26.9153 9.22244 26.2525 9.22244H19.5855ZM27.4525 14.8973H19.5855V22.3146H27.4525V14.8973Z" fill="#0B3954"/>
<path d="M24.3287 16.8795C24.3287 17.2935 23.9931 17.6291 23.5791 17.6291C23.1653 17.6291 22.8297 17.2935 22.8297 16.8795C22.8297 16.4656 23.1653 16.13 23.5791 16.13C23.9931 16.13 24.3287 16.4656 24.3287 16.8795Z" fill="#0B3954"/>
</svg>
