<svg width="20" height="19" viewBox="0 0 20 19" fill="none" xmlns="http://www.w3.org/2000/svg">
<path fill-rule="evenodd" clip-rule="evenodd" d="M10 5.31545L8.22469 3.51274C7.88999 3.16941 7.48995 2.89655 7.04814 2.71024C6.60633 2.52394 6.1317 2.42796 5.65222 2.42796C5.17274 2.42796 4.69811 2.52394 4.2563 2.71024C3.8145 2.89655 3.41446 3.16941 3.07975 3.51274C1.63852 4.97595 1.63852 7.36113 3.07975 8.82459L10 15.8518L16.9202 8.82459C18.3615 7.36113 18.3615 4.97595 16.9202 3.51249C16.5855 3.16916 16.1855 2.8963 15.7437 2.71C15.3019 2.52369 14.8273 2.42771 14.3478 2.42771C13.8683 2.42771 13.3937 2.52369 12.9519 2.71C12.5101 2.8963 12.11 3.16916 11.7753 3.51249L10 5.31545ZM10 18.7006L1.65556 10.2271C-0.551852 7.98558 -0.551852 4.3515 1.65556 2.11002C2.65894 1.08436 4.01829 0.48379 5.45222 0.432635C6.88615 0.381479 8.28484 0.883654 9.35877 1.83521C9.45753 1.92261 9.55457 2.01447 9.64889 2.11002L10 2.46656L10.3511 2.11002C10.4446 2.01512 10.5414 1.92347 10.6412 1.83521C11.7152 0.883654 13.1139 0.381479 14.5478 0.432635C15.9817 0.48379 17.3411 1.08436 18.3444 2.11002C20.5519 4.3515 20.5519 7.98558 18.3444 10.2271L10 18.7006Z" fill="#0B3954"/>
</svg>
