<svg width="12" height="13" viewBox="0 0 12 13" fill="none" xmlns="http://www.w3.org/2000/svg">
<path d="M11.1263 5.41711L11.6849 5.97571C11.9134 6.22961 11.9134 6.61047 11.6849 6.83899L6.75914 11.7648C6.50523 12.0187 6.12437 12.0187 5.89586 11.7648L0.944687 6.83899C0.716171 6.61047 0.716171 6.20422 0.944687 5.97571L1.50328 5.41711C1.75719 5.16321 2.13805 5.1886 2.39195 5.41711L5.31187 8.48938V1.17688C5.31187 0.846802 5.56578 0.567505 5.92125 0.567505H6.73375C7.06383 0.567505 7.34312 0.846802 7.34312 1.17688V8.48938L10.2377 5.41711C10.4916 5.1886 10.8724 5.16321 11.1263 5.41711Z" fill="#0B3954"/>
</svg>
