<svg width="33" height="33" viewBox="0 0 33 33" fill="none" xmlns="http://www.w3.org/2000/svg">
<path fill-rule="evenodd" clip-rule="evenodd" d="M10.3513 9.23964C10.3513 6.25196 12.7733 3.82996 15.761 3.82996C18.7487 3.82996 21.1707 6.25196 21.1707 9.23964V27.6638H19.5707V9.23964C19.5707 7.13562 17.865 5.42996 15.761 5.42996C13.657 5.42996 11.9513 7.13562 11.9513 9.23964V10.0982H10.3513V9.23964Z" fill="#0B3954"/>
<path fill-rule="evenodd" clip-rule="evenodd" d="M15.7612 27.83C15.7612 27.3882 16.1194 27.03 16.5612 27.03H24.1802C24.622 27.03 24.9802 27.3882 24.9802 27.83C24.9802 28.2718 24.622 28.63 24.1802 28.63H16.5612C16.1194 28.63 15.7612 28.2718 15.7612 27.83Z" fill="#0B3954"/>
<path fill-rule="evenodd" clip-rule="evenodd" d="M7.10034 13.6452C7.10034 11.4078 8.91406 9.59412 11.1514 9.59412C13.3887 9.59412 15.2024 11.4078 15.2024 13.6452V17.6962H7.10034V13.6452ZM11.1514 11.1941C9.79772 11.1941 8.70034 12.2915 8.70034 13.6452V16.0962H13.6024V13.6452C13.6024 12.2915 12.5051 11.1941 11.1514 11.1941Z" fill="#0B3954"/>
</svg>
