<svg width="24" height="21" viewBox="0 0 24 21" fill="none" xmlns="http://www.w3.org/2000/svg">
<path d="M21.125 7.34875C22.1406 7.505 22.5312 8.755 21.7891 9.49719L17.6875 13.5206L18.6641 19.1847C18.8203 20.2003 17.7266 20.9816 16.8281 20.5128L11.75 17.8175L6.63281 20.5128C5.73438 20.9816 4.64062 20.2003 4.79688 19.1847L5.77344 13.5206L1.67188 9.49719C0.929688 8.755 1.32031 7.505 2.33594 7.34875L8.07812 6.52844L10.6172 1.33313C11.0859 0.39563 12.4141 0.434692 12.8438 1.33313L15.4219 6.52844L21.125 7.34875ZM15.6562 12.8566L19.6016 9.02844L14.1719 8.24719L11.75 3.32532L9.28906 8.24719L3.85938 9.02844L7.80469 12.8566L6.86719 18.2472L11.75 15.7081L16.5938 18.2472L15.6562 12.8566Z" fill="white"/>
</svg>
