<svg width="33" height="33" viewBox="0 0 33 33" fill="none" xmlns="http://www.w3.org/2000/svg">
<path fill-rule="evenodd" clip-rule="evenodd" d="M6.03 9.58376C5.36724 9.58376 4.83 10.121 4.83 10.7838L4.82998 24.0236H3.22998L3.23 10.7838C3.23 9.23736 4.4836 7.98376 6.03 7.98376H26.03C27.5764 7.98376 28.83 9.23738 28.83 10.7838V24.0236H27.23V10.7838C27.23 10.121 26.6928 9.58376 26.03 9.58376H6.03Z" fill="#0B3954"/>
<path fill-rule="evenodd" clip-rule="evenodd" d="M5.89992 9.58376C5.30902 9.58376 4.82998 10.0628 4.82998 10.6537C4.82998 11.2446 5.309 11.7236 5.89992 11.7236H26.16C26.751 11.7236 27.23 11.2446 27.23 10.6537C27.23 10.0628 26.751 9.58376 26.16 9.58376H5.89992ZM3.22998 10.6537C3.23 9.17912 4.42536 7.98376 5.89992 7.98376H26.16C27.6346 7.98376 28.83 9.17916 28.83 10.6537C28.83 12.1283 27.6346 13.3236 26.16 13.3236H5.89992C4.42534 13.3236 3.22996 12.1282 3.22998 10.6537Z" fill="#0B3954"/>
<path fill-rule="evenodd" clip-rule="evenodd" d="M7.1394 24.0236V13.0236H8.6394V24.0236H7.1394Z" fill="#0B3954"/>
<path fill-rule="evenodd" clip-rule="evenodd" d="M23.1394 24.0236V13.0236H24.7394V24.0236H23.1394Z" fill="#0B3954"/>
</svg>
