<svg width="20" height="21" viewBox="0 0 20 21" fill="none" xmlns="http://www.w3.org/2000/svg">
<g clip-path="url(#clip0_1_2044)">
<g clip-path="url(#clip1_1_2044)">
<path fill-rule="evenodd" clip-rule="evenodd" d="M10.1235 10.9119C12.4286 10.9119 14.2975 9.04297 14.2975 6.73778C14.2975 4.4326 12.4286 2.56371 10.1235 2.56371C7.81828 2.56371 5.94939 4.4326 5.94939 6.73778C5.94939 9.04297 7.81828 10.9119 10.1235 10.9119ZM10.1235 12.9106C13.5326 12.9106 16.2963 10.1469 16.2963 6.73778C16.2963 3.32864 13.5326 0.564941 10.1235 0.564941C6.71433 0.564941 3.95062 3.32864 3.95062 6.73778C3.95062 10.1469 6.71433 12.9106 10.1235 12.9106Z" fill="#0B3954"/>
<path fill-rule="evenodd" clip-rule="evenodd" d="M10 12.9316C5.53975 12.9316 1.99654 16.3884 1.99654 20.5649H0C0 15.2076 4.51704 10.9353 10 10.9353C15.483 10.9353 20 15.2076 20 20.5649H18.0035C18.0035 16.3884 14.4602 12.9316 10 12.9316Z" fill="#0B3954"/>
</g>
</g>
<defs>
<clipPath id="clip0_1_2044">
<rect width="20" height="20" fill="white" transform="translate(0 0.564941)"/>
</clipPath>
<clipPath id="clip1_1_2044">
<rect width="20" height="20" fill="white" transform="translate(0 0.564941)"/>
</clipPath>
</defs>
</svg>
