<svg width="42" height="43" viewBox="0 0 42 43" fill="none" xmlns="http://www.w3.org/2000/svg">
<path d="M30.3496 6.02002H15.3596H8.07959V41.83H37.2096V6.02002H30.3496Z" fill="#ECB54E" style="fill:#ECB54E;fill:color(display-p3 0.9255 0.7098 0.3059);fill-opacity:1;"/>
<path d="M30.3496 6.02002H15.3596H8.07959V41.83H37.2096V6.02002H30.3496Z" fill="#69B4FB" style="fill:#69B4FB;fill:color(display-p3 0.4118 0.7059 0.9843);fill-opacity:1;"/>
<path d="M35.5896 8.1499H10.6396V39.6999H35.5896V8.1499Z" fill="white" style="fill:white;fill-opacity:1;"/>
<path d="M32.3894 8.1499V14.7599C32.3894 26.7699 22.6494 36.5199 10.6294 36.5199V39.7099H35.5794V8.15985H32.3894V8.1499Z" fill="#EBEBEB" style="fill:#EBEBEB;fill:color(display-p3 0.9216 0.9216 0.9216);fill-opacity:1;"/>
<path d="M18.8296 14.9698C18.8296 16.2898 17.7596 17.3598 16.4496 17.3598C15.1396 17.3598 14.0596 16.2898 14.0596 14.9698C14.0596 13.6498 15.1296 12.5798 16.4496 12.5798C17.7696 12.5798 18.8296 13.6498 18.8296 14.9698Z" fill="white" style="fill:white;fill-opacity:1;"/>
<path d="M18.8296 23.5399C18.8296 24.8599 17.7596 25.9299 16.4496 25.9299C15.1396 25.9299 14.0596 24.8599 14.0596 23.5399C14.0596 22.2199 15.1296 21.1499 16.4496 21.1499C17.7696 21.1499 18.8296 22.2199 18.8296 23.5399Z" fill="white" style="fill:white;fill-opacity:1;"/>
<path d="M18.8296 32.1097C18.8296 33.4297 17.7596 34.4998 16.4496 34.4998C15.1396 34.4998 14.0596 33.4297 14.0596 32.1097C14.0596 30.7897 15.1296 29.7197 16.4496 29.7197C17.7696 29.7197 18.8296 30.7897 18.8296 32.1097Z" fill="white" style="fill:white;fill-opacity:1;"/>
<path d="M28.9894 4.44989H26.8394V2.3299C26.8394 1.9599 26.5394 1.6499 26.1594 1.6499H19.5494C19.1794 1.6499 18.8694 1.9499 18.8694 2.3299V4.44989H16.7194C15.9694 4.44989 15.3594 5.05988 15.3594 5.80988V8.13989H30.3594V5.80988C30.3594 5.05988 29.7494 4.44989 28.9994 4.44989H28.9894Z" fill="#DD4C3C" style="fill:#DD4C3C;fill:color(display-p3 0.8667 0.2980 0.2353);fill-opacity:1;"/>
<path d="M28.9894 4.44989H26.8394V2.3299C26.8394 1.9599 26.5394 1.6499 26.1594 1.6499H23.6694C24.0394 1.6499 24.3494 1.9499 24.3494 2.3299L24.3094 8.1499H30.3594V5.81989C30.3594 5.06989 29.7494 4.4599 28.9994 4.4599L28.9894 4.44989Z" fill="#D23E3F" style="fill:#D23E3F;fill:color(display-p3 0.8235 0.2431 0.2471);fill-opacity:1;"/>
<path d="M8.07973 19.9199V23.4099H2.66972C2.28972 23.4099 1.96973 23.0999 1.96973 22.7199V20.6199C1.96973 20.2399 2.27972 19.9199 2.66972 19.9199H8.07973Z" fill="#DD4C3C" style="fill:#DD4C3C;fill:color(display-p3 0.8667 0.2980 0.2353);fill-opacity:1;"/>
<path d="M8.07971 19.9199H6.44971V23.4099H8.07971V19.9199Z" fill="#D23E3F" style="fill:#D23E3F;fill:color(display-p3 0.8235 0.2431 0.2471);fill-opacity:1;"/>
<path d="M8.07975 23.4099V41.8299H2.48975C1.79975 41.8299 1.23975 41.2699 1.23975 40.5799V39.1199H6.49975V29.1299H1.23975V28.1099C1.23975 27.3699 1.61975 26.6799 2.23975 26.2799L3.14975 25.6999C3.20975 25.6599 3.24975 25.5899 3.24975 25.5199V23.3999H8.07975V23.4099Z" fill="white" style="fill:white;fill-opacity:1;"/>
<path d="M6.44971 29.1299H6.49971V39.1199H6.44971V41.83H8.07971V23.4099H6.44971V29.1299Z" fill="#EBEBEB" style="fill:#EBEBEB;fill:color(display-p3 0.9216 0.9216 0.9216);fill-opacity:1;"/>
<path d="M8.07975 29.1299H1.23975V39.1199H8.07975V29.1299Z" fill="#DD4C3C" style="fill:#DD4C3C;fill:color(display-p3 0.8667 0.2980 0.2353);fill-opacity:1;"/>
<path d="M8.07971 29.1299H6.44971V39.1199H8.07971V29.1299Z" fill="#D23E3F" style="fill:#D23E3F;fill:color(display-p3 0.8235 0.2431 0.2471);fill-opacity:1;"/>
<path d="M39.2299 14.9897H35.1899V35.7897H39.2299V14.9897Z" fill="#69B4FB" style="fill:#69B4FB;fill:color(display-p3 0.4118 0.7059 0.9843);fill-opacity:1;"/>
<path d="M39.23 14.9897H37.21V35.7897H39.23V14.9897Z" fill="#5799E3" style="fill:#5799E3;fill:color(display-p3 0.3412 0.6000 0.8902);fill-opacity:1;"/>
<path d="M38.2399 11.0798H36.1899V14.9898H38.2399V11.0798Z" fill="white" style="fill:white;fill-opacity:1;"/>
<path d="M38.46 35.7898H35.96V41.8298H38.46V35.7898Z" fill="white" style="fill:white;fill-opacity:1;"/>
<path d="M38.46 35.7898H37.21V41.8298H38.46V35.7898Z" fill="#EBEBEB" style="fill:#EBEBEB;fill:color(display-p3 0.9216 0.9216 0.9216);fill-opacity:1;"/>
<path d="M35.5797 6.44983H30.3497C30.1097 6.44983 29.9097 6.24983 29.9097 6.00983C29.9097 5.76983 30.1097 5.56982 30.3497 5.56982H35.5797C35.8197 5.56982 36.0197 5.76983 36.0197 6.00983C36.0197 6.24983 35.8297 6.44983 35.5797 6.44983Z" fill="#232323" style="fill:#232323;fill:color(display-p3 0.1373 0.1373 0.1373);fill-opacity:1;"/>
<path d="M32.5797 42.2698H8.07965C7.83965 42.2698 7.63965 42.0698 7.63965 41.8298V6.01984C7.63965 5.77984 7.83965 5.57983 8.07965 5.57983H15.3596C15.5996 5.57983 15.7997 5.77984 15.7997 6.01984C15.7997 6.25984 15.5996 6.45984 15.3596 6.45984H8.51965V41.3998H32.5797C32.8197 41.3998 33.0196 41.5998 33.0196 41.8398C33.0196 42.0798 32.8197 42.2798 32.5797 42.2798V42.2698Z" fill="#232323" style="fill:#232323;fill:color(display-p3 0.1373 0.1373 0.1373);fill-opacity:1;"/>
<path d="M34.3297 40.14H10.6397C10.3997 40.14 10.1997 39.94 10.1997 39.7V8.14996C10.1997 7.90996 10.3997 7.70996 10.6397 7.70996H35.5897C35.8297 7.70996 36.0297 7.90996 36.0297 8.14996C36.0297 8.38996 35.8397 8.58997 35.5897 8.58997H11.0797V39.27H34.3397C34.5797 39.27 34.7797 39.47 34.7797 39.71C34.7797 39.95 34.5797 40.15 34.3397 40.15L34.3297 40.14Z" fill="#232323" style="fill:#232323;fill:color(display-p3 0.1373 0.1373 0.1373);fill-opacity:1;"/>
<path d="M16.4499 16.0498C16.2999 16.0498 16.1699 15.9798 16.0899 15.8598L14.5399 13.5798C14.3999 13.3798 14.4499 13.1098 14.6499 12.9698C14.8499 12.8298 15.1199 12.8798 15.2599 13.0898L16.4499 14.8398L18.5599 11.7398C18.6999 11.5398 18.9699 11.4898 19.1699 11.6298C19.3699 11.7698 19.4199 12.0398 19.2899 12.2398L16.8099 15.8698C16.7299 15.9898 16.5899 16.0598 16.4499 16.0598V16.0498Z" fill="#232323" style="fill:#232323;fill:color(display-p3 0.1373 0.1373 0.1373);fill-opacity:1;"/>
<path d="M16.4499 17.7898C14.8899 17.7898 13.6299 16.5198 13.6299 14.9698C13.6299 14.7298 13.8299 14.5298 14.0699 14.5298C14.3099 14.5298 14.5099 14.7298 14.5099 14.9698C14.5099 16.0398 15.3799 16.9198 16.4599 16.9198C17.5399 16.9198 18.4099 16.0498 18.4099 14.9698C18.4099 14.4198 18.1899 13.9198 17.7899 13.5398C17.6099 13.3798 17.5999 13.0998 17.7699 12.9198C17.9399 12.7398 18.2099 12.7298 18.3899 12.8998C18.9599 13.4298 19.2899 14.1798 19.2899 14.9698C19.2899 16.5298 18.0199 17.7898 16.4699 17.7898H16.4499Z" fill="#232323" style="fill:#232323;fill:color(display-p3 0.1373 0.1373 0.1373);fill-opacity:1;"/>
<path d="M31.6201 15.7299H23.7901C23.5501 15.7299 23.3501 15.5299 23.3501 15.2899C23.3501 15.0499 23.5501 14.8499 23.7901 14.8499H31.6201C31.8601 14.8499 32.0601 15.0499 32.0601 15.2899C32.0601 15.5299 31.8601 15.7299 31.6201 15.7299Z" fill="#232323" style="fill:#232323;fill:color(display-p3 0.1373 0.1373 0.1373);fill-opacity:1;"/>
<path d="M16.4499 24.6201C16.2999 24.6201 16.1699 24.5501 16.0899 24.4301L14.5399 22.1501C14.3999 21.9501 14.4499 21.68 14.6499 21.54C14.8499 21.4 15.1199 21.46 15.2599 21.66L16.4499 23.41L18.5599 20.3101C18.6999 20.1101 18.9699 20.0601 19.1699 20.1901C19.3699 20.3301 19.4199 20.6 19.2899 20.8L16.8099 24.4301C16.7299 24.5501 16.5899 24.6201 16.4499 24.6201Z" fill="#232323" style="fill:#232323;fill:color(display-p3 0.1373 0.1373 0.1373);fill-opacity:1;"/>
<path d="M16.4499 26.3601C14.8899 26.3601 13.6299 25.0901 13.6299 23.5401C13.6299 23.3001 13.8299 23.1001 14.0699 23.1001C14.3099 23.1001 14.5099 23.3001 14.5099 23.5401C14.5099 24.6101 15.3799 25.4901 16.4599 25.4901C17.5399 25.4901 18.4099 24.6201 18.4099 23.5401C18.4099 22.9901 18.1899 22.4901 17.7899 22.1201C17.6099 21.9501 17.5999 21.6801 17.7699 21.5001C17.9399 21.3201 18.2099 21.3101 18.3899 21.4801C18.9599 22.0101 19.2899 22.7701 19.2899 23.5501C19.2899 25.1101 18.0199 26.3701 16.4699 26.3701L16.4499 26.3601Z" fill="#232323" style="fill:#232323;fill:color(display-p3 0.1373 0.1373 0.1373);fill-opacity:1;"/>
<path d="M31.6201 24.2999H23.7901C23.5501 24.2999 23.3501 24.0999 23.3501 23.8599C23.3501 23.6199 23.5501 23.4199 23.7901 23.4199H31.6201C31.8601 23.4199 32.0601 23.6199 32.0601 23.8599C32.0601 24.0999 31.8601 24.2999 31.6201 24.2999Z" fill="#232323" style="fill:#232323;fill:color(display-p3 0.1373 0.1373 0.1373);fill-opacity:1;"/>
<path d="M16.4499 33.1899C16.2999 33.1899 16.1699 33.1199 16.0899 32.9999L14.5399 30.7198C14.3999 30.5198 14.4499 30.2499 14.6499 30.1099C14.8499 29.9699 15.1199 30.0198 15.2599 30.2198L16.4499 31.9698L18.5599 28.8699C18.6999 28.6699 18.9699 28.6199 19.1699 28.7499C19.3699 28.8899 19.4199 29.1599 19.2899 29.3599L16.8099 32.9899C16.7299 33.1099 16.5899 33.1799 16.4499 33.1799V33.1899Z" fill="#232323" style="fill:#232323;fill:color(display-p3 0.1373 0.1373 0.1373);fill-opacity:1;"/>
<path d="M16.4499 34.93C14.8899 34.93 13.6299 33.6599 13.6299 32.1099C13.6299 31.8699 13.8299 31.6699 14.0699 31.6699C14.3099 31.6699 14.5099 31.8699 14.5099 32.1099C14.5099 33.1799 15.3799 34.06 16.4599 34.06C17.5399 34.06 18.4099 33.1899 18.4099 32.1099C18.4099 31.5599 18.1899 31.06 17.7899 30.69C17.6099 30.52 17.5999 30.25 17.7699 30.07C17.9399 29.89 18.2099 29.8799 18.3899 30.0499C18.9599 30.5799 19.2899 31.3299 19.2899 32.1099C19.2899 33.6699 18.0199 34.93 16.4699 34.93H16.4499Z" fill="#232323" style="fill:#232323;fill:color(display-p3 0.1373 0.1373 0.1373);fill-opacity:1;"/>
<path d="M31.6201 32.86H23.7901C23.5501 32.86 23.3501 32.66 23.3501 32.42C23.3501 32.18 23.5501 31.98 23.7901 31.98H31.6201C31.8601 31.98 32.0601 32.18 32.0601 32.42C32.0601 32.66 31.8601 32.86 31.6201 32.86Z" fill="#232323" style="fill:#232323;fill:color(display-p3 0.1373 0.1373 0.1373);fill-opacity:1;"/>
<path d="M30.3494 8.57996C30.1094 8.57996 29.9094 8.37995 29.9094 8.13995V5.80994C29.9094 5.29994 29.4894 4.88995 28.9894 4.88995H26.8394C26.5994 4.88995 26.3994 4.68995 26.3994 4.44995V2.32996C26.3994 2.19996 26.2894 2.08997 26.1594 2.08997H19.5494C19.4194 2.08997 19.3094 2.19996 19.3094 2.32996V4.44995C19.3094 4.68995 19.1094 4.88995 18.8694 4.88995H16.7194C16.2094 4.88995 15.7994 5.29994 15.7994 5.80994V8.13995C15.7994 8.37995 15.5994 8.57996 15.3594 8.57996C15.1194 8.57996 14.9194 8.37995 14.9194 8.13995V5.80994C14.9194 4.81994 15.7294 4.00995 16.7194 4.00995H18.4394V2.32996C18.4394 1.70996 18.9394 1.20996 19.5594 1.20996H26.1694C26.7894 1.20996 27.2894 1.70996 27.2894 2.32996V4.00995H29.0094C29.9994 4.00995 30.8094 4.81994 30.8094 5.80994V8.13995C30.8094 8.37995 30.6094 8.57996 30.3694 8.57996H30.3494Z" fill="#232323" style="fill:#232323;fill:color(display-p3 0.1373 0.1373 0.1373);fill-opacity:1;"/>
<path d="M24.0093 3.90997H21.6993C21.4593 3.90997 21.2593 3.70997 21.2593 3.46997C21.2593 3.22997 21.4593 3.03003 21.6993 3.03003H24.0093C24.2493 3.03003 24.4493 3.22997 24.4493 3.46997C24.4493 3.70997 24.2593 3.90997 24.0093 3.90997Z" fill="#232323" style="fill:#232323;fill:color(display-p3 0.1373 0.1373 0.1373);fill-opacity:1;"/>
<path d="M6.50004 23.85H2.67004C2.05004 23.85 1.54004 23.34 1.54004 22.72V20.62C1.54004 20 2.05004 19.49 2.67004 19.49H6.50004C6.74004 19.49 6.94004 19.69 6.94004 19.93C6.94004 20.17 6.74004 20.37 6.50004 20.37H2.67004C2.53004 20.37 2.41004 20.49 2.41004 20.63V22.73C2.41004 22.87 2.53004 22.99 2.67004 22.99H6.50004C6.74004 22.99 6.94004 23.19 6.94004 23.43C6.94004 23.67 6.74004 23.87 6.50004 23.87V23.85Z" fill="#232323" style="fill:#232323;fill:color(display-p3 0.1373 0.1373 0.1373);fill-opacity:1;"/>
<path d="M3.2398 37.9C2.9998 37.9 2.7998 37.7 2.7998 37.46V31.1099C2.7998 30.8699 2.9998 30.6699 3.2398 30.6699C3.4798 30.6699 3.6798 30.8699 3.6798 31.1099V37.46C3.6798 37.7 3.4798 37.9 3.2398 37.9Z" fill="white" style="fill:white;fill-opacity:1;"/>
<path d="M6.4998 42.27H2.4898C1.5598 42.27 0.799805 41.51 0.799805 40.58V28.11C0.799805 27.21 1.2498 26.39 2.0098 25.91L2.8098 25.4V23.41C2.8098 23.17 3.0098 22.97 3.2498 22.97C3.4898 22.97 3.6898 23.17 3.6898 23.41V25.53C3.6898 25.75 3.5798 25.96 3.3898 26.08L2.4798 26.66C1.9798 26.98 1.6798 27.52 1.6798 28.12V40.59C1.6798 41.04 2.0498 41.4 2.4898 41.4H6.4998C6.7398 41.4 6.9398 41.6 6.9398 41.84C6.9398 42.08 6.7398 42.28 6.4998 42.28V42.27Z" fill="#232323" style="fill:#232323;fill:color(display-p3 0.1373 0.1373 0.1373);fill-opacity:1;"/>
<path d="M6.4998 29.5699H1.2398C0.9998 29.5699 0.799805 29.3699 0.799805 29.1299C0.799805 28.8899 0.9998 28.6899 1.2398 28.6899H6.4998C6.7398 28.6899 6.9398 28.8899 6.9398 29.1299C6.9398 29.3699 6.7398 29.5699 6.4998 29.5699Z" fill="#232323" style="fill:#232323;fill:color(display-p3 0.1373 0.1373 0.1373);fill-opacity:1;"/>
<path d="M5.14996 26.14H3.14996C2.90996 26.14 2.70996 25.94 2.70996 25.7C2.70996 25.46 2.90996 25.26 3.14996 25.26H5.14996C5.38996 25.26 5.58996 25.46 5.58996 25.7C5.58996 25.94 5.38996 26.14 5.14996 26.14Z" fill="#232323" style="fill:#232323;fill:color(display-p3 0.1373 0.1373 0.1373);fill-opacity:1;"/>
<path d="M6.4998 39.5599H1.2398C0.9998 39.5599 0.799805 39.3599 0.799805 39.1199C0.799805 38.8799 0.9998 38.6799 1.2398 38.6799H6.4998C6.7398 38.6799 6.9398 38.8799 6.9398 39.1199C6.9398 39.3599 6.7398 39.5599 6.4998 39.5599Z" fill="#232323" style="fill:#232323;fill:color(display-p3 0.1373 0.1373 0.1373);fill-opacity:1;"/>
<path d="M39.23 36.2298H35.19C34.95 36.2298 34.75 36.0298 34.75 35.7898V14.9898C34.75 14.7498 34.95 14.5498 35.19 14.5498H39.23C39.47 14.5498 39.67 14.7498 39.67 14.9898V35.7898C39.67 36.0298 39.47 36.2298 39.23 36.2298ZM35.63 35.3498H38.79V15.4298H35.63V35.3498Z" fill="#232323" style="fill:#232323;fill:color(display-p3 0.1373 0.1373 0.1373);fill-opacity:1;"/>
<path d="M38.24 15.4299H36.19C35.95 15.4299 35.75 15.2299 35.75 14.9899V11.0799C35.75 10.8399 35.95 10.6399 36.19 10.6399H38.24C38.48 10.6399 38.68 10.8399 38.68 11.0799V14.9899C38.68 15.2299 38.48 15.4299 38.24 15.4299ZM36.63 14.5599H37.8V11.5299H36.63V14.5599Z" fill="#232323" style="fill:#232323;fill:color(display-p3 0.1373 0.1373 0.1373);fill-opacity:1;"/>
<path d="M37.21 11.52C36.97 11.52 36.77 11.32 36.77 11.08V0.889954C36.77 0.649954 36.97 0.449951 37.21 0.449951C37.45 0.449951 37.65 0.649954 37.65 0.889954V11.08C37.65 11.32 37.45 11.52 37.21 11.52Z" fill="#232323" style="fill:#232323;fill:color(display-p3 0.1373 0.1373 0.1373);fill-opacity:1;"/>
<path d="M40.9298 36.2299H33.4898C33.2498 36.2299 33.0498 36.0299 33.0498 35.7899C33.0498 35.5499 33.2498 35.3499 33.4898 35.3499H40.9298C41.1698 35.3499 41.3698 35.5499 41.3698 35.7899C41.3698 36.0299 41.1698 36.2299 40.9298 36.2299Z" fill="#232323" style="fill:#232323;fill:color(display-p3 0.1373 0.1373 0.1373);fill-opacity:1;"/>
<path d="M38.46 42.2699H35.96C35.72 42.2699 35.52 42.0699 35.52 41.8299V35.7899C35.52 35.5499 35.72 35.3499 35.96 35.3499H38.46C38.7 35.3499 38.9 35.5499 38.9 35.7899V41.8299C38.9 42.0699 38.7 42.2699 38.46 42.2699ZM36.4 41.3899H38.03V36.2198H36.4V41.3899Z" fill="#232323" style="fill:#232323;fill:color(display-p3 0.1373 0.1373 0.1373);fill-opacity:1;"/>
<path d="M39.99 42.2699H34.44C34.2 42.2699 34 42.0699 34 41.8299C34 41.5899 34.2 41.3899 34.44 41.3899H39.99C40.23 41.3899 40.43 41.5899 40.43 41.8299C40.43 42.0699 40.23 42.2699 39.99 42.2699Z" fill="#232323" style="fill:#232323;fill:color(display-p3 0.1373 0.1373 0.1373);fill-opacity:1;"/>
<path d="M36.4198 19.0599H35.1998C34.9598 19.0599 34.7598 18.8599 34.7598 18.6199C34.7598 18.3799 34.9598 18.1799 35.1998 18.1799H36.4198C36.6598 18.1799 36.8598 18.3799 36.8598 18.6199C36.8598 18.8599 36.6598 19.0599 36.4198 19.0599Z" fill="#232323" style="fill:#232323;fill:color(display-p3 0.1373 0.1373 0.1373);fill-opacity:1;"/>
<path d="M37.21 22.6901H35.19C34.95 22.6901 34.75 22.4901 34.75 22.2501C34.75 22.0101 34.95 21.8101 35.19 21.8101H37.21C37.45 21.8101 37.65 22.0101 37.65 22.2501C37.65 22.4901 37.45 22.6901 37.21 22.6901Z" fill="#232323" style="fill:#232323;fill:color(display-p3 0.1373 0.1373 0.1373);fill-opacity:1;"/>
<path d="M36.4198 26.3099H35.1998C34.9598 26.3099 34.7598 26.1099 34.7598 25.8699C34.7598 25.6299 34.9598 25.4299 35.1998 25.4299H36.4198C36.6598 25.4299 36.8598 25.6299 36.8598 25.8699C36.8598 26.1099 36.6598 26.3099 36.4198 26.3099Z" fill="#232323" style="fill:#232323;fill:color(display-p3 0.1373 0.1373 0.1373);fill-opacity:1;"/>
<path d="M37.21 29.9401H35.19C34.95 29.9401 34.75 29.7401 34.75 29.5001C34.75 29.2601 34.95 29.0601 35.19 29.0601H37.21C37.45 29.0601 37.65 29.2601 37.65 29.5001C37.65 29.7401 37.45 29.9401 37.21 29.9401Z" fill="#232323" style="fill:#232323;fill:color(display-p3 0.1373 0.1373 0.1373);fill-opacity:1;"/>
</svg>
