<svg width="40" height="48" viewBox="0 0 40 48" fill="none" xmlns="http://www.w3.org/2000/svg">
<path d="M12.5103 42.2299C5.43028 38.1699 1.03027 30.5899 1.03027 22.4299V4.60992L20.1803 0.449951L39.3303 4.60992V22.4299C39.3303 30.5899 34.9303 38.1799 27.8503 42.2299L20.1803 46.6299L12.5103 42.2299Z" fill="#DD4C3C" style="fill:#DD4C3C;fill:color(display-p3 0.8667 0.2980 0.2353);fill-opacity:1;"/>
<path d="M14.1203 39.44C8.04025 35.96 4.26025 29.44 4.26025 22.43V7.21002L20.1903 3.75L36.1203 7.21002V22.43C36.1203 29.44 32.3403 35.96 26.2603 39.44L20.1903 42.92L14.1203 39.44Z" fill="white" style="fill:white;fill-opacity:1;"/>
<path d="M32.8803 6.51001V16.92C32.8803 23.93 29.1003 30.45 23.0203 33.93C19.2603 36.09 14.6403 36.09 10.8803 33.93C8.83031 32.75 7.04031 31.23 5.57031 29.46C7.17031 33.61 10.1503 37.17 14.1203 39.44L20.1903 42.92L26.2603 39.44C32.3403 35.96 36.1203 29.44 36.1203 22.43V7.21002L32.8803 6.51001Z" fill="#EBEBEB" style="fill:#EBEBEB;fill:color(display-p3 0.9216 0.9216 0.9216);fill-opacity:1;"/>
<path d="M26.6673 14.0331L11.9595 28.741L14.8162 31.5977L29.524 16.8899L26.6673 14.0331Z" fill="#69B4FB" style="fill:#69B4FB;fill:color(display-p3 0.4118 0.7059 0.9843);fill-opacity:1;"/>
<path d="M28.074 15.4404L13.3662 30.1482L14.8228 31.6048L29.5307 16.897L28.074 15.4404Z" fill="#5799E3" style="fill:#5799E3;fill:color(display-p3 0.3412 0.6000 0.8902);fill-opacity:1;"/>
<path d="M9.92033 32.2298L11.3691 33.6802L14.1354 30.9168L12.6866 29.4665L9.92033 32.2298Z" fill="white" style="fill:white;fill-opacity:1;"/>
<path d="M27.1927 14.577L28.9604 16.3447L33.2314 12.0738L31.4636 10.3061L27.1927 14.577Z" fill="white" style="fill:white;fill-opacity:1;"/>
<path d="M32.3673 11.1944L28.0972 15.4661L28.9812 16.3498L33.2514 12.0781L32.3673 11.1944Z" fill="#EBEBEB" style="fill:#EBEBEB;fill:color(display-p3 0.9216 0.9216 0.9216);fill-opacity:1;"/>
<path d="M20.1901 47.0699C20.1101 47.0699 20.0401 47.0499 19.9701 47.0099L12.3001 42.6099C5.0801 38.4799 0.600098 30.7399 0.600098 22.4199V4.59991C0.600098 4.38991 0.740102 4.20991 0.940102 4.16991L20.0901 0.0199512C20.1501 0.00995117 20.2101 0.00995117 20.2801 0.0199512L39.4301 4.16991C39.6301 4.20991 39.7701 4.38991 39.7701 4.59991V22.4199C39.7701 30.7399 35.2901 38.4699 28.0701 42.6099L20.4001 47.0099C20.3301 47.0499 20.2601 47.0699 20.1801 47.0699H20.1901ZM1.4701 4.95995V22.4199C1.4701 30.4199 5.7801 37.87 12.7301 41.84L20.1901 46.1099L27.6501 41.84C34.6001 37.86 38.9101 30.4199 38.9101 22.4199V4.95995L20.2001 0.899956L1.4901 4.95995H1.4701Z" fill="#232323" style="fill:#232323;fill:color(display-p3 0.1373 0.1373 0.1373);fill-opacity:1;"/>
<path d="M20.1903 43.35C20.1103 43.35 20.0403 43.33 19.9703 43.29L13.9003 39.81C7.68031 36.25 3.82031 29.59 3.82031 22.42V7.2C3.82031 6.99 3.96031 6.82001 4.17031 6.77001L20.1003 3.30999C20.1603 3.29999 20.2203 3.29999 20.2903 3.30999L36.2203 6.77001C36.4203 6.81001 36.5703 6.99 36.5703 7.2V22.42C36.5703 29.58 32.7103 36.25 26.4903 39.81L20.4203 43.29C20.3503 43.33 20.2803 43.35 20.2003 43.35H20.1903ZM4.70031 7.55999V22.43C4.70031 29.28 8.39031 35.65 14.3403 39.06L20.1903 42.41L26.0403 39.06C31.9903 35.65 35.6803 29.28 35.6803 22.43V7.55999L20.1903 4.2L4.70031 7.55999Z" fill="#232323" style="fill:#232323;fill:color(display-p3 0.1373 0.1373 0.1373);fill-opacity:1;"/>
<path d="M6.3902 15.9099C6.1502 15.9099 5.9502 15.7099 5.9502 15.4699V8.92995C5.9502 8.71995 6.0902 8.53996 6.3002 8.49996L10.3402 7.61995C10.5802 7.56995 10.8102 7.71998 10.8602 7.95998C10.9102 8.19998 10.7602 8.42994 10.5202 8.47994L6.8202 9.27999V15.4699C6.8202 15.7099 6.6202 15.9099 6.3802 15.9099H6.3902Z" fill="#232323" style="fill:#232323;fill:color(display-p3 0.1373 0.1373 0.1373);fill-opacity:1;"/>
<path d="M22.9703 39.31C22.8203 39.31 22.6703 39.23 22.5903 39.09C22.4703 38.88 22.5403 38.61 22.7503 38.49L24.3603 37.57C24.5703 37.45 24.8403 37.52 24.9603 37.73C25.0803 37.94 25.0103 38.21 24.8003 38.33L23.1903 39.25C23.1203 39.29 23.0503 39.31 22.9703 39.31Z" fill="#232323" style="fill:#232323;fill:color(display-p3 0.1373 0.1373 0.1373);fill-opacity:1;"/>
<path d="M26.6202 37.12C26.4802 37.12 26.3502 37.06 26.2602 36.94C26.1202 36.74 26.1702 36.4701 26.3602 36.3301C28.5002 34.8101 30.2902 32.7701 31.5402 30.4501C31.6502 30.2401 31.9202 30.1501 32.1302 30.2701C32.3402 30.3801 32.4202 30.65 32.3102 30.86C31.0002 33.31 29.1202 35.45 26.8702 37.05C26.7902 37.11 26.7002 37.13 26.6202 37.13V37.12Z" fill="#232323" style="fill:#232323;fill:color(display-p3 0.1373 0.1373 0.1373);fill-opacity:1;"/>
<path d="M20.19 8.48981C19.95 8.48981 19.75 8.2898 19.75 8.0498V3.75983C19.75 3.51983 19.95 3.31982 20.19 3.31982C20.43 3.31982 20.63 3.51983 20.63 3.75983V8.0498C20.63 8.2898 20.43 8.48981 20.19 8.48981Z" fill="#232323" style="fill:#232323;fill:color(display-p3 0.1373 0.1373 0.1373);fill-opacity:1;"/>
<path d="M20.19 43.35C19.95 43.35 19.75 43.15 19.75 42.91V37.94C19.75 37.7 19.95 37.5 20.19 37.5C20.43 37.5 20.63 37.7 20.63 37.94V42.91C20.63 43.15 20.43 43.35 20.19 43.35Z" fill="#232323" style="fill:#232323;fill:color(display-p3 0.1373 0.1373 0.1373);fill-opacity:1;"/>
<path d="M14.82 32.04C14.71 32.04 14.6 32 14.51 31.91L11.65 29.05C11.57 28.97 11.52 28.8601 11.52 28.7401C11.52 28.6201 11.56 28.5101 11.65 28.4301L26.35 13.72C26.43 13.64 26.54 13.5901 26.66 13.5901C26.78 13.5901 26.89 13.64 26.97 13.72L29.83 16.5801C30 16.7501 30 17.0301 29.83 17.2001L15.13 31.9001C15.04 31.9901 14.93 32.0301 14.82 32.0301V32.04ZM12.58 28.7501L14.82 30.9901L28.91 16.91L26.67 14.67L12.58 28.7501Z" fill="#232323" style="fill:#232323;fill:color(display-p3 0.1373 0.1373 0.1373);fill-opacity:1;"/>
<path d="M11.35 34.1C11.24 34.1 11.13 34.06 11.04 33.97L9.58996 32.52C9.50996 32.44 9.45996 32.33 9.45996 32.21C9.45996 32.09 9.50996 31.98 9.58996 31.9L12.36 29.13C12.44 29.05 12.55 29 12.67 29C12.79 29 12.9 29.05 12.98 29.13L14.43 30.58C14.6 30.75 14.6 31.03 14.43 31.2L11.66 33.97C11.58 34.06 11.46 34.1 11.35 34.1ZM10.52 32.22L11.35 33.05L13.5 30.91L12.67 30.08L10.52 32.22Z" fill="#232323" style="fill:#232323;fill:color(display-p3 0.1373 0.1373 0.1373);fill-opacity:1;"/>
<path d="M3.41992 40.59C3.30992 40.59 3.19992 40.55 3.10992 40.46C2.93992 40.29 2.93992 40.01 3.10992 39.84L10.3199 32.6299C10.4899 32.4599 10.7699 32.4599 10.9399 32.6299C11.1099 32.7999 11.1099 33.0799 10.9399 33.2499L3.72992 40.46C3.63992 40.55 3.52992 40.59 3.41992 40.59Z" fill="#232323" style="fill:#232323;fill:color(display-p3 0.1373 0.1373 0.1373);fill-opacity:1;"/>
<path d="M30.7297 18.54C30.6197 18.54 30.4997 18.5 30.4197 18.41L25.1597 13.1501C24.9897 12.9801 24.9897 12.7001 25.1597 12.5301C25.3297 12.3601 25.6097 12.3601 25.7797 12.5301L31.0397 17.79C31.2097 17.96 31.2097 18.24 31.0397 18.41C30.9497 18.49 30.8397 18.54 30.7297 18.54Z" fill="#232323" style="fill:#232323;fill:color(display-p3 0.1373 0.1373 0.1373);fill-opacity:1;"/>
<path d="M28.98 16.7899C28.86 16.7899 28.75 16.7399 28.67 16.6599L26.9 14.8899C26.73 14.7199 26.73 14.4399 26.9 14.2699L31.17 9.99988C31.34 9.83988 31.63 9.83988 31.79 9.99988L33.56 11.7699C33.73 11.9399 33.73 12.2199 33.56 12.3899L29.29 16.6599C29.21 16.7399 29.1 16.7899 28.98 16.7899ZM27.83 14.5899L28.98 15.7399L32.63 12.0899L31.48 10.9399L27.83 14.5899Z" fill="#232323" style="fill:#232323;fill:color(display-p3 0.1373 0.1373 0.1373);fill-opacity:1;"/>
<path d="M34.3299 13.6C34.2199 13.6 34.1099 13.56 34.0199 13.47L30.0899 9.53998C29.9199 9.36998 29.9199 9.08998 30.0899 8.91998C30.2599 8.74998 30.5399 8.74998 30.7099 8.91998L34.6399 12.85C34.8099 13.02 34.8099 13.3 34.6399 13.47C34.5499 13.56 34.4399 13.6 34.3299 13.6Z" fill="#232323" style="fill:#232323;fill:color(display-p3 0.1373 0.1373 0.1373);fill-opacity:1;"/>
<path d="M17.3898 29.4799C17.2798 29.4799 17.1698 29.4399 17.0798 29.3499L16.2198 28.4799C16.0498 28.3099 16.0498 28.0299 16.2198 27.8599C16.3898 27.6899 16.6698 27.6899 16.8398 27.8599L17.7098 28.7299C17.8798 28.8999 17.8798 29.1799 17.7098 29.3499C17.6198 29.4299 17.5098 29.4799 17.3998 29.4799H17.3898Z" fill="#232323" style="fill:#232323;fill:color(display-p3 0.1373 0.1373 0.1373);fill-opacity:1;"/>
<path d="M19.95 26.91C19.84 26.91 19.72 26.8701 19.64 26.7801L18.21 25.35C18.04 25.18 18.04 24.9 18.21 24.73C18.38 24.56 18.66 24.56 18.83 24.73L20.26 26.16C20.43 26.33 20.43 26.6101 20.26 26.7801C20.18 26.8701 20.06 26.91 19.95 26.91Z" fill="#232323" style="fill:#232323;fill:color(display-p3 0.1373 0.1373 0.1373);fill-opacity:1;"/>
<path d="M22.5199 24.35C22.4099 24.35 22.2999 24.31 22.2099 24.22L21.3399 23.35C21.1699 23.18 21.1699 22.9 21.3399 22.73C21.5099 22.56 21.7899 22.56 21.9599 22.73L22.8299 23.6C22.9999 23.77 22.9999 24.05 22.8299 24.22C22.7399 24.31 22.6299 24.35 22.5199 24.35Z" fill="#232323" style="fill:#232323;fill:color(display-p3 0.1373 0.1373 0.1373);fill-opacity:1;"/>
<path d="M25.0799 21.78C24.9699 21.78 24.8599 21.74 24.7699 21.65L23.3399 20.2199C23.1699 20.0499 23.1699 19.7699 23.3399 19.5999C23.5099 19.4299 23.7899 19.4299 23.9599 19.5999L25.3899 21.03C25.5599 21.2 25.5599 21.48 25.3899 21.65C25.2999 21.74 25.1899 21.78 25.0799 21.78Z" fill="#232323" style="fill:#232323;fill:color(display-p3 0.1373 0.1373 0.1373);fill-opacity:1;"/>
</svg>
