<svg width="89" height="89" viewBox="0 0 89 89" fill="none" xmlns="http://www.w3.org/2000/svg">
<path d="M88.148 44.6782C88.148 20.6704 68.6858 1.20819 44.678 1.20819C20.6702 1.20819 1.208 20.6704 1.20801 44.6782C1.20801 68.686 20.6702 88.1482 44.678 88.1482C68.6858 88.1482 88.148 68.686 88.148 44.6782Z" fill="white" stroke="#D74E12" style="fill:white;fill-opacity:1;stroke:#D74E12;stroke:color(display-p3 0.8431 0.3059 0.0706);stroke-opacity:1;" stroke-miterlimit="10"/>
<path d="M52.5037 25.4805H37.5037H30.2236V61.2905H59.3536V25.4805H52.5037Z" fill="#ECB54E" style="fill:#ECB54E;fill:color(display-p3 0.9255 0.7098 0.3059);fill-opacity:1;"/>
<path d="M52.5037 25.4805H37.5037H30.2236V61.2905H59.3536V25.4805H52.5037Z" fill="#69B4FB" style="fill:#69B4FB;fill:color(display-p3 0.4118 0.7059 0.9843);fill-opacity:1;"/>
<path d="M57.7337 27.6106H32.7837V59.1606H57.7337V27.6106Z" fill="white" style="fill:white;fill-opacity:1;"/>
<path d="M54.5334 27.6106V34.2206C54.5334 46.2306 44.7934 55.9806 32.7734 55.9806V59.1706H57.7234V27.6206H54.5334V27.6106Z" fill="#EBEBEB" style="fill:#EBEBEB;fill:color(display-p3 0.9216 0.9216 0.9216);fill-opacity:1;"/>
<path d="M40.9736 34.4305C40.9736 35.7505 39.9036 36.8206 38.5936 36.8206C37.2836 36.8206 36.2036 35.7505 36.2036 34.4305C36.2036 33.1105 37.2736 32.0405 38.5936 32.0405C39.9136 32.0405 40.9736 33.1105 40.9736 34.4305Z" fill="white" style="fill:white;fill-opacity:1;"/>
<path d="M40.9736 43.0006C40.9736 44.3206 39.9036 45.3906 38.5936 45.3906C37.2836 45.3906 36.2036 44.3206 36.2036 43.0006C36.2036 41.6806 37.2736 40.6106 38.5936 40.6106C39.9136 40.6106 40.9736 41.6806 40.9736 43.0006Z" fill="white" style="fill:white;fill-opacity:1;"/>
<path d="M40.9736 51.5707C40.9736 52.8907 39.9036 53.9606 38.5936 53.9606C37.2836 53.9606 36.2036 52.8907 36.2036 51.5707C36.2036 50.2507 37.2736 49.1807 38.5936 49.1807C39.9136 49.1807 40.9736 50.2507 40.9736 51.5707Z" fill="white" style="fill:white;fill-opacity:1;"/>
<path d="M51.1339 23.9106H48.9839V21.7906C48.9839 21.4206 48.6839 21.1106 48.3039 21.1106H41.6939C41.3239 21.1106 41.0139 21.4106 41.0139 21.7906V23.9106H38.8639C38.1139 23.9106 37.5039 24.5206 37.5039 25.2706V27.6006H52.5039V25.2706C52.5039 24.5206 51.8939 23.9106 51.1439 23.9106H51.1339Z" fill="#DD4C3C" style="fill:#DD4C3C;fill:color(display-p3 0.8667 0.2980 0.2353);fill-opacity:1;"/>
<path d="M51.1335 23.9106H48.9835V21.7906C48.9835 21.4206 48.6835 21.1106 48.3035 21.1106H45.8135C46.1835 21.1106 46.4935 21.4106 46.4935 21.7906L46.4534 27.6106H52.5035V25.2806C52.5035 24.5306 51.8934 23.9206 51.1434 23.9206L51.1335 23.9106Z" fill="#D23E3F" style="fill:#D23E3F;fill:color(display-p3 0.8235 0.2431 0.2471);fill-opacity:1;"/>
<path d="M30.2238 39.3806V42.8706H24.8138C24.4338 42.8706 24.1138 42.5606 24.1138 42.1806V40.0806C24.1138 39.7006 24.4238 39.3806 24.8138 39.3806H30.2238Z" fill="#DD4C3C" style="fill:#DD4C3C;fill:color(display-p3 0.8667 0.2980 0.2353);fill-opacity:1;"/>
<path d="M30.2238 39.3806H28.5938V42.8706H30.2238V39.3806Z" fill="#D23E3F" style="fill:#D23E3F;fill:color(display-p3 0.8235 0.2431 0.2471);fill-opacity:1;"/>
<path d="M30.2238 42.8706V61.2906H24.6338C23.9438 61.2906 23.3838 60.7306 23.3838 60.0406V58.5806H28.6437V48.5906H23.3838V47.5706C23.3838 46.8306 23.7638 46.1406 24.3838 45.7406L25.2938 45.1606C25.3538 45.1206 25.3937 45.0506 25.3937 44.9806V42.8606H30.2238V42.8706Z" fill="white" style="fill:white;fill-opacity:1;"/>
<path d="M28.5938 48.5906H28.6437V58.5806H28.5938V61.2906H30.2238V42.8706H28.5938V48.5906Z" fill="#EBEBEB" style="fill:#EBEBEB;fill:color(display-p3 0.9216 0.9216 0.9216);fill-opacity:1;"/>
<path d="M30.2238 48.5906H23.3838V58.5806H30.2238V48.5906Z" fill="#DD4C3C" style="fill:#DD4C3C;fill:color(display-p3 0.8667 0.2980 0.2353);fill-opacity:1;"/>
<path d="M30.2238 48.5906H28.5938V58.5806H30.2238V48.5906Z" fill="#D23E3F" style="fill:#D23E3F;fill:color(display-p3 0.8235 0.2431 0.2471);fill-opacity:1;"/>
<path d="M61.374 34.4604H57.334V55.2605H61.374V34.4604Z" fill="#69B4FB" style="fill:#69B4FB;fill:color(display-p3 0.4118 0.7059 0.9843);fill-opacity:1;"/>
<path d="M61.374 34.4604H59.354V55.2605H61.374V34.4604Z" fill="#5799E3" style="fill:#5799E3;fill:color(display-p3 0.3412 0.6000 0.8902);fill-opacity:1;"/>
<path d="M60.384 30.5405H58.334V34.4506H60.384V30.5405Z" fill="white" style="fill:white;fill-opacity:1;"/>
<path d="M60.604 55.2505H58.104V61.2905H60.604V55.2505Z" fill="white" style="fill:white;fill-opacity:1;"/>
<path d="M60.604 55.2505H59.354V61.2905H60.604V55.2505Z" fill="#EBEBEB" style="fill:#EBEBEB;fill:color(display-p3 0.9216 0.9216 0.9216);fill-opacity:1;"/>
<path d="M57.7237 25.9205H52.4937C52.2537 25.9205 52.0537 25.7205 52.0537 25.4805C52.0537 25.2405 52.2537 25.0405 52.4937 25.0405H57.7237C57.9637 25.0405 58.1637 25.2405 58.1637 25.4805C58.1637 25.7205 57.9737 25.9205 57.7237 25.9205Z" fill="#232323" style="fill:#232323;fill:color(display-p3 0.1373 0.1373 0.1373);fill-opacity:1;"/>
<path d="M54.7237 61.7305H30.2237C29.9837 61.7305 29.7837 61.5305 29.7837 61.2905V25.4805C29.7837 25.2405 29.9837 25.0405 30.2237 25.0405H37.5037C37.7437 25.0405 37.9437 25.2405 37.9437 25.4805C37.9437 25.7205 37.7437 25.9205 37.5037 25.9205H30.6637V60.8605H54.7237C54.9637 60.8605 55.1637 61.0605 55.1637 61.3005C55.1637 61.5405 54.9637 61.7405 54.7237 61.7405V61.7305Z" fill="#232323" style="fill:#232323;fill:color(display-p3 0.1373 0.1373 0.1373);fill-opacity:1;"/>
<path d="M56.4738 59.6006H32.7838C32.5438 59.6006 32.3438 59.4006 32.3438 59.1606V27.6107C32.3438 27.3707 32.5438 27.1707 32.7838 27.1707H57.7338C57.9738 27.1707 58.1738 27.3707 58.1738 27.6107C58.1738 27.8507 57.9838 28.0507 57.7338 28.0507H33.2238V58.7307H56.4838C56.7238 58.7307 56.9238 58.9307 56.9238 59.1707C56.9238 59.4107 56.7238 59.6107 56.4838 59.6107L56.4738 59.6006Z" fill="#232323" style="fill:#232323;fill:color(display-p3 0.1373 0.1373 0.1373);fill-opacity:1;"/>
<path d="M38.5935 35.5108C38.4435 35.5108 38.3135 35.4408 38.2335 35.3208L36.6835 33.0407C36.5435 32.8407 36.5935 32.5707 36.7935 32.4307C36.9935 32.2907 37.2635 32.3407 37.4035 32.5507L38.5935 34.3007L40.7035 31.2008C40.8435 31.0008 41.1135 30.9507 41.3135 31.0907C41.5135 31.2307 41.5635 31.5008 41.4335 31.7008L38.9535 35.3308C38.8735 35.4508 38.7335 35.5208 38.5935 35.5208V35.5108Z" fill="#232323" style="fill:#232323;fill:color(display-p3 0.1373 0.1373 0.1373);fill-opacity:1;"/>
<path d="M38.5934 37.2608C37.0334 37.2608 35.7734 35.9908 35.7734 34.4408C35.7734 34.2008 35.9734 34.0008 36.2134 34.0008C36.4534 34.0008 36.6534 34.2008 36.6534 34.4408C36.6534 35.5108 37.5235 36.3908 38.6035 36.3908C39.6835 36.3908 40.5535 35.5208 40.5535 34.4408C40.5535 33.8908 40.3335 33.3908 39.9335 33.0108C39.7535 32.8508 39.7435 32.5708 39.9135 32.3908C40.0835 32.2108 40.3534 32.2007 40.5334 32.3707C41.1034 32.9007 41.4335 33.6508 41.4335 34.4408C41.4335 36.0008 40.1635 37.2608 38.6135 37.2608H38.5934Z" fill="#232323" style="fill:#232323;fill:color(display-p3 0.1373 0.1373 0.1373);fill-opacity:1;"/>
<path d="M53.7637 35.1908H45.9337C45.6937 35.1908 45.4937 34.9908 45.4937 34.7508C45.4937 34.5108 45.6937 34.3108 45.9337 34.3108H53.7637C54.0037 34.3108 54.2036 34.5108 54.2036 34.7508C54.2036 34.9908 54.0037 35.1908 53.7637 35.1908Z" fill="#232323" style="fill:#232323;fill:color(display-p3 0.1373 0.1373 0.1373);fill-opacity:1;"/>
<path d="M38.5935 44.0805C38.4435 44.0805 38.3135 44.0105 38.2335 43.8905L36.6835 41.6105C36.5435 41.4105 36.5935 41.1405 36.7935 41.0005C36.9935 40.8605 37.2635 40.9205 37.4035 41.1205L38.5935 42.8705L40.7035 39.7705C40.8435 39.5705 41.1135 39.5205 41.3135 39.6505C41.5135 39.7905 41.5635 40.0605 41.4335 40.2605L38.9535 43.8905C38.8735 44.0105 38.7335 44.0805 38.5935 44.0805Z" fill="#232323" style="fill:#232323;fill:color(display-p3 0.1373 0.1373 0.1373);fill-opacity:1;"/>
<path d="M38.5934 45.8206C37.0334 45.8206 35.7734 44.5506 35.7734 43.0006C35.7734 42.7606 35.9734 42.5606 36.2134 42.5606C36.4534 42.5606 36.6534 42.7606 36.6534 43.0006C36.6534 44.0706 37.5235 44.9506 38.6035 44.9506C39.6835 44.9506 40.5535 44.0806 40.5535 43.0006C40.5535 42.4506 40.3335 41.9506 39.9335 41.5806C39.7535 41.4106 39.7435 41.1406 39.9135 40.9606C40.0835 40.7806 40.3534 40.7706 40.5334 40.9406C41.1034 41.4706 41.4335 42.2306 41.4335 43.0106C41.4335 44.5706 40.1635 45.8306 38.6135 45.8306L38.5934 45.8206Z" fill="#232323" style="fill:#232323;fill:color(display-p3 0.1373 0.1373 0.1373);fill-opacity:1;"/>
<path d="M53.7637 43.7606H45.9337C45.6937 43.7606 45.4937 43.5606 45.4937 43.3206C45.4937 43.0806 45.6937 42.8806 45.9337 42.8806H53.7637C54.0037 42.8806 54.2036 43.0806 54.2036 43.3206C54.2036 43.5606 54.0037 43.7606 53.7637 43.7606Z" fill="#232323" style="fill:#232323;fill:color(display-p3 0.1373 0.1373 0.1373);fill-opacity:1;"/>
<path d="M38.5935 52.6506C38.4435 52.6506 38.3135 52.5806 38.2335 52.4606L36.6835 50.1806C36.5435 49.9806 36.5935 49.7106 36.7935 49.5706C36.9935 49.4306 37.2635 49.4806 37.4035 49.6806L38.5935 51.4306L40.7035 48.3306C40.8435 48.1306 41.1135 48.0806 41.3135 48.2106C41.5135 48.3506 41.5635 48.6206 41.4335 48.8206L38.9535 52.4506C38.8735 52.5706 38.7335 52.6406 38.5935 52.6406V52.6506Z" fill="#232323" style="fill:#232323;fill:color(display-p3 0.1373 0.1373 0.1373);fill-opacity:1;"/>
<path d="M38.5934 54.3907C37.0334 54.3907 35.7734 53.1207 35.7734 51.5707C35.7734 51.3307 35.9734 51.1307 36.2134 51.1307C36.4534 51.1307 36.6534 51.3307 36.6534 51.5707C36.6534 52.6407 37.5235 53.5207 38.6035 53.5207C39.6835 53.5207 40.5535 52.6507 40.5535 51.5707C40.5535 51.0207 40.3335 50.5206 39.9335 50.1506C39.7535 49.9806 39.7435 49.7106 39.9135 49.5306C40.0835 49.3506 40.3534 49.3407 40.5334 49.5107C41.1034 50.0407 41.4335 50.7907 41.4335 51.5707C41.4335 53.1307 40.1635 54.3907 38.6135 54.3907H38.5934Z" fill="#232323" style="fill:#232323;fill:color(display-p3 0.1373 0.1373 0.1373);fill-opacity:1;"/>
<path d="M53.7637 52.3307H45.9337C45.6937 52.3307 45.4937 52.1307 45.4937 51.8907C45.4937 51.6507 45.6937 51.4507 45.9337 51.4507H53.7637C54.0037 51.4507 54.2036 51.6507 54.2036 51.8907C54.2036 52.1307 54.0037 52.3307 53.7637 52.3307Z" fill="#232323" style="fill:#232323;fill:color(display-p3 0.1373 0.1373 0.1373);fill-opacity:1;"/>
<path d="M52.5037 28.0507C52.2637 28.0507 52.0637 27.8507 52.0637 27.6107V25.2806C52.0637 24.7706 51.6437 24.3607 51.1437 24.3607H48.9937C48.7537 24.3607 48.5537 24.1607 48.5537 23.9207V21.8007C48.5537 21.6707 48.4437 21.5607 48.3137 21.5607H41.7037C41.5737 21.5607 41.4637 21.6707 41.4637 21.8007V23.9207C41.4637 24.1607 41.2637 24.3607 41.0237 24.3607H38.8737C38.3637 24.3607 37.9537 24.7706 37.9537 25.2806V27.6107C37.9537 27.8507 37.7537 28.0507 37.5137 28.0507C37.2737 28.0507 37.0737 27.8507 37.0737 27.6107V25.2806C37.0737 24.2906 37.8837 23.4807 38.8737 23.4807H40.5937V21.8007C40.5937 21.1807 41.0937 20.6807 41.7137 20.6807H48.3237C48.9437 20.6807 49.4437 21.1807 49.4437 21.8007V23.4807H51.1637C52.1537 23.4807 52.9637 24.2906 52.9637 25.2806V27.6107C52.9637 27.8507 52.7637 28.0507 52.5237 28.0507H52.5037Z" fill="#232323" style="fill:#232323;fill:color(display-p3 0.1373 0.1373 0.1373);fill-opacity:1;"/>
<path d="M46.1538 23.3707H43.8438C43.6038 23.3707 43.4038 23.1707 43.4038 22.9307C43.4038 22.6907 43.6038 22.4907 43.8438 22.4907H46.1538C46.3938 22.4907 46.5938 22.6907 46.5938 22.9307C46.5938 23.1707 46.4038 23.3707 46.1538 23.3707Z" fill="#232323" style="fill:#232323;fill:color(display-p3 0.1373 0.1373 0.1373);fill-opacity:1;"/>
<path d="M28.6436 43.3107H24.8136C24.1936 43.3107 23.6836 42.8007 23.6836 42.1807V40.0807C23.6836 39.4607 24.1936 38.9507 24.8136 38.9507H28.6436C28.8836 38.9507 29.0836 39.1507 29.0836 39.3907C29.0836 39.6307 28.8836 39.8307 28.6436 39.8307H24.8136C24.6736 39.8307 24.5536 39.9506 24.5536 40.0906V42.1907C24.5536 42.3307 24.6736 42.4507 24.8136 42.4507H28.6436C28.8836 42.4507 29.0836 42.6507 29.0836 42.8907C29.0836 43.1307 28.8836 43.3307 28.6436 43.3307V43.3107Z" fill="#232323" style="fill:#232323;fill:color(display-p3 0.1373 0.1373 0.1373);fill-opacity:1;"/>
<path d="M25.3839 57.3606C25.1439 57.3606 24.9438 57.1606 24.9438 56.9206V50.5706C24.9438 50.3306 25.1439 50.1306 25.3839 50.1306C25.6239 50.1306 25.8239 50.3306 25.8239 50.5706V56.9206C25.8239 57.1606 25.6239 57.3606 25.3839 57.3606Z" fill="white" style="fill:white;fill-opacity:1;"/>
<path d="M28.6438 61.7307H24.6339C23.7039 61.7307 22.9438 60.9706 22.9438 60.0406V47.5707C22.9438 46.6707 23.3938 45.8507 24.1538 45.3707L24.9538 44.8607V42.8707C24.9538 42.6307 25.1538 42.4307 25.3938 42.4307C25.6338 42.4307 25.8338 42.6307 25.8338 42.8707V44.9907C25.8338 45.2107 25.7238 45.4206 25.5338 45.5406L24.6238 46.1207C24.1238 46.4407 23.8239 46.9807 23.8239 47.5807V60.0507C23.8239 60.5007 24.1939 60.8607 24.6339 60.8607H28.6438C28.8838 60.8607 29.0838 61.0607 29.0838 61.3007C29.0838 61.5407 28.8838 61.7407 28.6438 61.7407V61.7307Z" fill="#232323" style="fill:#232323;fill:color(display-p3 0.1373 0.1373 0.1373);fill-opacity:1;"/>
<path d="M28.6438 49.0306H23.3839C23.1439 49.0306 22.9438 48.8306 22.9438 48.5906C22.9438 48.3506 23.1439 48.1506 23.3839 48.1506H28.6438C28.8838 48.1506 29.0838 48.3506 29.0838 48.5906C29.0838 48.8306 28.8838 49.0306 28.6438 49.0306Z" fill="#232323" style="fill:#232323;fill:color(display-p3 0.1373 0.1373 0.1373);fill-opacity:1;"/>
<path d="M27.294 45.6107H25.294C25.054 45.6107 24.854 45.4107 24.854 45.1707C24.854 44.9307 25.054 44.7307 25.294 44.7307H27.294C27.534 44.7307 27.734 44.9307 27.734 45.1707C27.734 45.4107 27.534 45.6107 27.294 45.6107Z" fill="#232323" style="fill:#232323;fill:color(display-p3 0.1373 0.1373 0.1373);fill-opacity:1;"/>
<path d="M28.6438 59.0206H23.3839C23.1439 59.0206 22.9438 58.8206 22.9438 58.5806C22.9438 58.3406 23.1439 58.1406 23.3839 58.1406H28.6438C28.8838 58.1406 29.0838 58.3406 29.0838 58.5806C29.0838 58.8206 28.8838 59.0206 28.6438 59.0206Z" fill="#232323" style="fill:#232323;fill:color(display-p3 0.1373 0.1373 0.1373);fill-opacity:1;"/>
<path d="M61.3736 55.6907H57.3336C57.0936 55.6907 56.8936 55.4907 56.8936 55.2507V34.4507C56.8936 34.2107 57.0936 34.0107 57.3336 34.0107H61.3736C61.6136 34.0107 61.8136 34.2107 61.8136 34.4507V55.2507C61.8136 55.4907 61.6136 55.6907 61.3736 55.6907ZM57.7736 54.8107H60.9336V34.8907H57.7736V54.8107Z" fill="#232323" style="fill:#232323;fill:color(display-p3 0.1373 0.1373 0.1373);fill-opacity:1;"/>
<path d="M60.3836 34.8906H58.3336C58.0936 34.8906 57.8936 34.6906 57.8936 34.4506V30.5406C57.8936 30.3006 58.0936 30.1006 58.3336 30.1006H60.3836C60.6236 30.1006 60.8236 30.3006 60.8236 30.5406V34.4506C60.8236 34.6906 60.6236 34.8906 60.3836 34.8906ZM58.7736 34.0206H59.9436V30.9906H58.7736V34.0206Z" fill="#232323" style="fill:#232323;fill:color(display-p3 0.1373 0.1373 0.1373);fill-opacity:1;"/>
<path d="M59.3541 30.9807C59.1141 30.9807 58.9141 30.7806 58.9141 30.5406V20.3506C58.9141 20.1106 59.1141 19.9106 59.3541 19.9106C59.5941 19.9106 59.7941 20.1106 59.7941 20.3506V30.5406C59.7941 30.7806 59.5941 30.9807 59.3541 30.9807Z" fill="#232323" style="fill:#232323;fill:color(display-p3 0.1373 0.1373 0.1373);fill-opacity:1;"/>
<path d="M63.0739 55.6906H55.6339C55.3939 55.6906 55.1938 55.4905 55.1938 55.2505C55.1938 55.0105 55.3939 54.8105 55.6339 54.8105H63.0739C63.3139 54.8105 63.5139 55.0105 63.5139 55.2505C63.5139 55.4905 63.3139 55.6906 63.0739 55.6906Z" fill="#232323" style="fill:#232323;fill:color(display-p3 0.1373 0.1373 0.1373);fill-opacity:1;"/>
<path d="M60.6041 61.7305H58.1041C57.8641 61.7305 57.6641 61.5305 57.6641 61.2905V55.2505C57.6641 55.0105 57.8641 54.8105 58.1041 54.8105H60.6041C60.8441 54.8105 61.0441 55.0105 61.0441 55.2505V61.2905C61.0441 61.5305 60.8441 61.7305 60.6041 61.7305ZM58.5441 60.8505H60.1741V55.6805H58.5441V60.8505Z" fill="#232323" style="fill:#232323;fill:color(display-p3 0.1373 0.1373 0.1373);fill-opacity:1;"/>
<path d="M62.1336 61.7306H56.5836C56.3436 61.7306 56.1436 61.5306 56.1436 61.2906C56.1436 61.0506 56.3436 60.8506 56.5836 60.8506H62.1336C62.3736 60.8506 62.5736 61.0506 62.5736 61.2906C62.5736 61.5306 62.3736 61.7306 62.1336 61.7306Z" fill="#232323" style="fill:#232323;fill:color(display-p3 0.1373 0.1373 0.1373);fill-opacity:1;"/>
<path d="M58.5638 38.5206H57.3438C57.1038 38.5206 56.9038 38.3206 56.9038 38.0806C56.9038 37.8406 57.1038 37.6406 57.3438 37.6406H58.5638C58.8038 37.6406 59.0038 37.8406 59.0038 38.0806C59.0038 38.3206 58.8038 38.5206 58.5638 38.5206Z" fill="#232323" style="fill:#232323;fill:color(display-p3 0.1373 0.1373 0.1373);fill-opacity:1;"/>
<path d="M59.3536 42.1507H57.3336C57.0936 42.1507 56.8936 41.9507 56.8936 41.7107C56.8936 41.4707 57.0936 41.2708 57.3336 41.2708H59.3536C59.5936 41.2708 59.7936 41.4707 59.7936 41.7107C59.7936 41.9507 59.5936 42.1507 59.3536 42.1507Z" fill="#232323" style="fill:#232323;fill:color(display-p3 0.1373 0.1373 0.1373);fill-opacity:1;"/>
<path d="M58.5638 45.7806H57.3438C57.1038 45.7806 56.9038 45.5806 56.9038 45.3406C56.9038 45.1006 57.1038 44.9006 57.3438 44.9006H58.5638C58.8038 44.9006 59.0038 45.1006 59.0038 45.3406C59.0038 45.5806 58.8038 45.7806 58.5638 45.7806Z" fill="#232323" style="fill:#232323;fill:color(display-p3 0.1373 0.1373 0.1373);fill-opacity:1;"/>
<path d="M59.3536 49.4007H57.3336C57.0936 49.4007 56.8936 49.2007 56.8936 48.9607C56.8936 48.7207 57.0936 48.5208 57.3336 48.5208H59.3536C59.5936 48.5208 59.7936 48.7207 59.7936 48.9607C59.7936 49.2007 59.5936 49.4007 59.3536 49.4007Z" fill="#232323" style="fill:#232323;fill:color(display-p3 0.1373 0.1373 0.1373);fill-opacity:1;"/>
</svg>
