<svg width="16" height="16" viewBox="0 0 16 16" fill="none" xmlns="http://www.w3.org/2000/svg">
<path d="M12.789 9.90911C12.5918 10.1003 12.5011 10.3767 12.5461 10.6479L13.2231 14.395C13.2803 14.7126 13.1462 15.034 12.8804 15.2176C12.6199 15.408 12.2734 15.4308 11.9893 15.2785L8.61616 13.5192C8.49887 13.4567 8.36864 13.4232 8.23536 13.4194H8.02896C7.95737 13.4301 7.8873 13.4529 7.82333 13.488L4.4494 15.2557C4.2826 15.3394 4.09372 15.3691 3.90865 15.3394C3.45778 15.2541 3.15695 14.8246 3.23082 14.3714L3.90865 10.6243C3.95359 10.3509 3.86296 10.0729 3.6657 9.87865L0.915529 7.21299C0.685523 6.98983 0.605554 6.65472 0.710656 6.35236C0.812712 6.05076 1.07318 5.83065 1.38773 5.78115L5.17292 5.23202C5.46081 5.20232 5.71367 5.02715 5.84314 4.7682L7.51107 1.34854C7.55067 1.27238 7.6017 1.20231 7.66339 1.1429L7.73193 1.08959C7.76773 1.04998 7.80885 1.01723 7.85455 0.990577L7.93757 0.960113L8.06704 0.906799H8.38768C8.67404 0.936502 8.92614 1.10787 9.05789 1.36377L10.7479 4.7682C10.8698 5.01725 11.1066 5.19013 11.38 5.23202L15.1652 5.78115C15.4851 5.82685 15.7524 6.04771 15.8583 6.35236C15.9581 6.65777 15.872 6.99288 15.6374 7.21299L12.789 9.90911Z" fill="#F6B76F" style="fill:#F6B76F;fill:color(display-p3 0.9647 0.7176 0.4353);fill-opacity:1;"/>
</svg>
