<svg width="180" height="288" viewBox="0 0 180 288" fill="none" xmlns="http://www.w3.org/2000/svg">
<rect x="0.660034" y="0.564941" width="179.31" height="287" rx="32" fill="#316584" fill-opacity="0.6"/>
<g clip-path="url(#clip0_1_1650)">
<g clip-path="url(#clip1_1_1650)">
<g clip-path="url(#clip2_1_1650)">
<path d="M63.3151 71.7592H61.9651V73.1092H63.3151V71.7592ZM117.315 71.7592V73.1092H118.665V71.7592H117.315ZM64.6651 71.7592V68.0723H61.9651V71.7592H64.6651ZM74.7806 57.9568H105.849V55.2568H74.7806V57.9568ZM115.965 68.0723V71.7592H118.665V68.0723H115.965ZM117.315 70.4092H63.3151V73.1092H117.315V70.4092ZM105.849 57.9568C111.436 57.9568 115.965 62.4857 115.965 68.0723H118.665C118.665 60.9945 112.927 55.2568 105.849 55.2568V57.9568ZM64.6651 68.0723C64.6651 62.4857 69.194 57.9568 74.7806 57.9568V55.2568C67.7028 55.2568 61.9651 60.9945 61.9651 68.0723H64.6651Z" fill="white"/>
<path d="M84.402 48.7225H96.2273V46.0225H84.402V48.7225ZM100.61 53.1053V55.043H103.31V53.1053H100.61ZM80.0192 55.043V53.1053H77.3192V55.043H80.0192ZM96.2273 48.7225C98.6479 48.7225 100.61 50.6848 100.61 53.1053H103.31C103.31 49.1936 100.139 46.0225 96.2273 46.0225V48.7225ZM84.402 46.0225C80.4903 46.0225 77.3192 49.1936 77.3192 53.1053H80.0192C80.0192 50.6848 81.9815 48.7225 84.402 48.7225V46.0225Z" fill="white"/>
<path d="M70.1011 58.1819V43.4256H67.4011V58.1819H70.1011ZM74.4839 39.0428H106.146V36.3428H74.4839V39.0428ZM110.529 43.4256V57.5422H113.229V43.4256H110.529ZM106.146 39.0428C108.567 39.0428 110.529 41.0051 110.529 43.4256H113.229C113.229 39.5139 110.058 36.3428 106.146 36.3428V39.0428ZM70.1011 43.4256C70.1011 41.0051 72.0634 39.0428 74.4839 39.0428V36.3428C70.5722 36.3428 67.4011 39.5139 67.4011 43.4256H70.1011Z" fill="white"/>
<path d="M69.8442 73.1094V77.0851" stroke="white" stroke-width="2.7" stroke-linecap="round"/>
<path d="M110.845 73.1094V77.0851" stroke="white" stroke-width="2.7" stroke-linecap="round"/>
</g>
</g>
</g>
<path d="M59.7263 159.565V152.365C59.7263 150.861 59.9663 149.549 60.4463 148.429C60.9583 147.309 61.7583 146.317 62.8463 145.453C63.9343 144.557 65.3743 143.725 67.1663 142.957L72.8303 140.509C74.2703 139.901 75.3263 139.149 75.9983 138.253C76.7023 137.357 77.0543 136.221 77.0543 134.845C77.0543 133.437 76.6223 132.285 75.7583 131.389C74.8943 130.493 73.6303 130.045 71.9663 130.045C70.3023 130.045 69.0383 130.509 68.1743 131.437C67.3103 132.365 66.8783 133.613 66.8783 135.181H59.2463C59.2463 132.973 59.7263 130.989 60.6863 129.229C61.6463 127.437 63.0703 126.029 64.9583 125.005C66.8463 123.981 69.1823 123.469 71.9663 123.469C74.7503 123.469 77.0703 123.965 78.9263 124.957C80.8143 125.949 82.2383 127.277 83.1983 128.941C84.1903 130.605 84.6863 132.477 84.6863 134.557V135.133C84.6863 137.821 83.9503 140.045 82.4783 141.805C81.0063 143.533 78.7343 145.069 75.6623 146.413L70.0463 148.861C69.0863 149.277 68.3983 149.709 67.9823 150.157C67.5983 150.605 67.4063 151.213 67.4063 151.981V154.381L65.5343 152.797H84.7343V159.565H59.7263ZM105.51 160.477C102.726 160.477 100.342 160.029 98.3584 159.133C96.3744 158.205 94.7584 156.957 93.5104 155.389C92.2944 153.821 91.3824 152.013 90.7744 149.965C90.1984 147.885 89.9104 145.693 89.9104 143.389V140.653C89.9104 137.453 90.4704 134.557 91.5904 131.965C92.7104 129.373 94.4224 127.309 96.7264 125.773C99.0304 124.237 101.958 123.469 105.51 123.469C109.062 123.469 111.974 124.237 114.246 125.773C116.55 127.309 118.262 129.373 119.382 131.965C120.502 134.557 121.062 137.453 121.062 140.653V143.389C121.062 145.693 120.758 147.885 120.15 149.965C119.574 152.013 118.662 153.821 117.414 155.389C116.198 156.957 114.598 158.205 112.614 159.133C110.662 160.029 108.294 160.477 105.51 160.477ZM105.51 153.229C108.102 153.229 110.022 152.333 111.27 150.541C112.55 148.717 113.19 145.901 113.19 142.093C113.19 138.061 112.534 135.165 111.222 133.405C109.942 131.613 108.038 130.717 105.51 130.717C102.918 130.717 100.982 131.613 99.7024 133.405C98.4224 135.165 97.7824 138.029 97.7824 141.997C97.7824 145.837 98.4064 148.669 99.6544 150.493C100.934 152.317 102.886 153.229 105.51 153.229Z" fill="#FFB128"/>
<path d="M49.8003 192.413L46.1683 199.357V203.565H44.7123V199.357L41.0643 192.413H42.6803L45.4323 198.061L48.1843 192.413H49.8003ZM52.7921 193.597V197.325H56.8561V198.525H52.7921V202.365H57.3361V203.565H51.3361V192.397H57.3361V193.597H52.7921ZM66.1312 201.085H61.2672L60.3712 203.565H58.8352L62.8672 192.477H64.5472L68.5632 203.565H67.0272L66.1312 201.085ZM65.7152 199.901L63.6992 194.269L61.6832 199.901H65.7152ZM76.1925 203.565L73.5365 199.005H71.7765V203.565H70.3205V192.413H73.9205C74.7631 192.413 75.4725 192.557 76.0485 192.845C76.6351 193.133 77.0725 193.522 77.3605 194.013C77.6485 194.504 77.7925 195.064 77.7925 195.693C77.7925 196.461 77.5685 197.138 77.1205 197.725C76.6831 198.312 76.0218 198.701 75.1365 198.893L77.9365 203.565H76.1925ZM71.7765 197.837H73.9205C74.7098 197.837 75.3018 197.645 75.6965 197.261C76.0911 196.866 76.2885 196.344 76.2885 195.693C76.2885 195.032 76.0911 194.52 75.6965 194.157C75.3125 193.794 74.7205 193.613 73.9205 193.613H71.7765V197.837ZM83.5908 203.677C82.8548 203.677 82.1935 203.549 81.6068 203.293C81.0308 203.026 80.5775 202.664 80.2468 202.205C79.9162 201.736 79.7455 201.197 79.7348 200.589H81.2868C81.3402 201.112 81.5535 201.554 81.9268 201.917C82.3108 202.269 82.8655 202.445 83.5908 202.445C84.2842 202.445 84.8282 202.274 85.2228 201.933C85.6282 201.581 85.8308 201.133 85.8308 200.589C85.8308 200.162 85.7135 199.816 85.4788 199.549C85.2442 199.282 84.9508 199.08 84.5988 198.941C84.2468 198.802 83.7722 198.653 83.1748 198.493C82.4388 198.301 81.8468 198.109 81.3988 197.917C80.9615 197.725 80.5828 197.426 80.2628 197.021C79.9535 196.605 79.7988 196.05 79.7988 195.357C79.7988 194.749 79.9535 194.21 80.2628 193.741C80.5722 193.272 81.0042 192.909 81.5588 192.653C82.1242 192.397 82.7695 192.269 83.4948 192.269C84.5402 192.269 85.3935 192.53 86.0548 193.053C86.7268 193.576 87.1055 194.269 87.1908 195.133H85.5908C85.5375 194.706 85.3135 194.333 84.9188 194.013C84.5242 193.682 84.0015 193.517 83.3508 193.517C82.7428 193.517 82.2468 193.677 81.8628 193.997C81.4788 194.306 81.2868 194.744 81.2868 195.309C81.2868 195.714 81.3988 196.045 81.6228 196.301C81.8575 196.557 82.1402 196.754 82.4708 196.893C82.8122 197.021 83.2868 197.17 83.8948 197.341C84.6308 197.544 85.2228 197.746 85.6708 197.949C86.1188 198.141 86.5028 198.445 86.8228 198.861C87.1428 199.266 87.3028 199.821 87.3028 200.525C87.3028 201.069 87.1588 201.581 86.8708 202.061C86.5828 202.541 86.1562 202.93 85.5908 203.229C85.0255 203.528 84.3588 203.677 83.5908 203.677ZM95.1671 192.413V203.565H93.7111V192.413H95.1671ZM106.417 203.565H104.961L99.1046 194.685V203.565H97.6486V192.397H99.1046L104.961 201.261V192.397H106.417V203.565ZM120.028 192.413V193.597H116.988V203.565H115.532V193.597H112.476V192.413H120.028ZM130.412 192.413V203.565H128.956V198.509H123.276V203.565H121.82V192.413H123.276V197.309H128.956V192.413H130.412ZM134.355 193.597V197.325H138.419V198.525H134.355V202.365H138.899V203.565H132.899V192.397H138.899V193.597H134.355ZM57.2651 216.413V217.597H52.4171V221.357H56.3531V222.541H52.4171V227.565H50.9611V216.413H57.2651ZM60.4476 216.413V223.469C60.4476 224.461 60.6876 225.197 61.1676 225.677C61.6583 226.157 62.3356 226.397 63.1996 226.397C64.0529 226.397 64.7196 226.157 65.1996 225.677C65.6903 225.197 65.9356 224.461 65.9356 223.469V216.413H67.3916V223.453C67.3916 224.381 67.2049 225.165 66.8316 225.805C66.4583 226.434 65.9516 226.904 65.3116 227.213C64.6823 227.522 63.9729 227.677 63.1836 227.677C62.3943 227.677 61.6796 227.522 61.0396 227.213C60.4103 226.904 59.9089 226.434 59.5356 225.805C59.1729 225.165 58.9916 224.381 58.9916 223.453V216.413H60.4476ZM75.6925 227.565L73.0365 223.005H71.2765V227.565H69.8205V216.413H73.4205C74.2631 216.413 74.9725 216.557 75.5485 216.845C76.1351 217.133 76.5725 217.522 76.8605 218.013C77.1485 218.504 77.2925 219.064 77.2925 219.693C77.2925 220.461 77.0685 221.138 76.6205 221.725C76.1831 222.312 75.5218 222.701 74.6365 222.893L77.4365 227.565H75.6925ZM71.2765 221.837H73.4205C74.2098 221.837 74.8018 221.645 75.1965 221.261C75.5911 220.866 75.7885 220.344 75.7885 219.693C75.7885 219.032 75.5911 218.52 75.1965 218.157C74.8125 217.794 74.2205 217.613 73.4205 217.613H71.2765V221.837ZM88.3228 227.565H86.8668L81.0108 218.685V227.565H79.5548V216.397H81.0108L86.8668 225.261V216.397H88.3228V227.565ZM92.2608 216.413V227.565H90.8048V216.413H92.2608ZM101.606 216.413V217.597H98.5663V227.565H97.1103V217.597H94.0543V216.413H101.606ZM104.823 216.413V223.469C104.823 224.461 105.063 225.197 105.543 225.677C106.033 226.157 106.711 226.397 107.575 226.397C108.428 226.397 109.095 226.157 109.575 225.677C110.065 225.197 110.311 224.461 110.311 223.469V216.413H111.767V223.453C111.767 224.381 111.58 225.165 111.207 225.805C110.833 226.434 110.327 226.904 109.687 227.213C109.057 227.522 108.348 227.677 107.559 227.677C106.769 227.677 106.055 227.522 105.415 227.213C104.785 226.904 104.284 226.434 103.911 225.805C103.548 225.165 103.367 224.381 103.367 223.453V216.413H104.823ZM120.067 227.565L117.411 223.005H115.651V227.565H114.195V216.413H117.795C118.638 216.413 119.347 216.557 119.923 216.845C120.51 217.133 120.947 217.522 121.235 218.013C121.523 218.504 121.667 219.064 121.667 219.693C121.667 220.461 121.443 221.138 120.995 221.725C120.558 222.312 119.897 222.701 119.011 222.893L121.811 227.565H120.067ZM115.651 221.837H117.795C118.585 221.837 119.177 221.645 119.571 221.261C119.966 220.866 120.163 220.344 120.163 219.693C120.163 219.032 119.966 218.52 119.571 218.157C119.187 217.794 118.595 217.613 117.795 217.613H115.651V221.837ZM125.386 217.597V221.325H129.45V222.525H125.386V226.365H129.93V227.565H123.93V216.397H129.93V217.597H125.386ZM61.0451 245.821C61.4504 245.885 61.8184 246.05 62.1491 246.317C62.4904 246.584 62.7571 246.914 62.9491 247.309C63.1518 247.704 63.2531 248.125 63.2531 248.573C63.2531 249.138 63.1091 249.65 62.8211 250.109C62.5331 250.557 62.1118 250.914 61.5571 251.181C61.0131 251.437 60.3678 251.565 59.6211 251.565H55.4611V240.413H59.4611C60.2184 240.413 60.8638 240.541 61.3971 240.797C61.9304 241.042 62.3304 241.378 62.5971 241.805C62.8638 242.232 62.9971 242.712 62.9971 243.245C62.9971 243.906 62.8158 244.456 62.4531 244.893C62.1011 245.32 61.6318 245.629 61.0451 245.821ZM56.9171 245.229H59.3651C60.0478 245.229 60.5758 245.069 60.9491 244.749C61.3224 244.429 61.5091 243.986 61.5091 243.421C61.5091 242.856 61.3224 242.413 60.9491 242.093C60.5758 241.773 60.0371 241.613 59.3331 241.613H56.9171V245.229ZM59.4931 250.365C60.2184 250.365 60.7838 250.194 61.1891 249.853C61.5944 249.512 61.7971 249.037 61.7971 248.429C61.7971 247.81 61.5838 247.325 61.1571 246.973C60.7304 246.61 60.1598 246.429 59.4451 246.429H56.9171V250.365H59.4931ZM66.6976 240.413V247.469C66.6976 248.461 66.9376 249.197 67.4176 249.677C67.9083 250.157 68.5856 250.397 69.4496 250.397C70.3029 250.397 70.9696 250.157 71.4496 249.677C71.9403 249.197 72.1856 248.461 72.1856 247.469V240.413H73.6416V247.453C73.6416 248.381 73.4549 249.165 73.0816 249.805C72.7083 250.434 72.2016 250.904 71.5616 251.213C70.9323 251.522 70.2229 251.677 69.4336 251.677C68.6443 251.677 67.9296 251.522 67.2896 251.213C66.6603 250.904 66.1589 250.434 65.7856 249.805C65.4229 249.165 65.2416 248.381 65.2416 247.453V240.413H66.6976ZM79.6065 251.677C78.8705 251.677 78.2091 251.549 77.6225 251.293C77.0465 251.026 76.5931 250.664 76.2625 250.205C75.9318 249.736 75.7611 249.197 75.7505 248.589H77.3025C77.3558 249.112 77.5691 249.554 77.9425 249.917C78.3265 250.269 78.8811 250.445 79.6065 250.445C80.2998 250.445 80.8438 250.274 81.2385 249.933C81.6438 249.581 81.8465 249.133 81.8465 248.589C81.8465 248.162 81.7291 247.816 81.4945 247.549C81.2598 247.282 80.9665 247.08 80.6145 246.941C80.2625 246.802 79.7878 246.653 79.1905 246.493C78.4545 246.301 77.8625 246.109 77.4145 245.917C76.9771 245.725 76.5985 245.426 76.2785 245.021C75.9691 244.605 75.8145 244.05 75.8145 243.357C75.8145 242.749 75.9691 242.21 76.2785 241.741C76.5878 241.272 77.0198 240.909 77.5745 240.653C78.1398 240.397 78.7851 240.269 79.5105 240.269C80.5558 240.269 81.4091 240.53 82.0705 241.053C82.7425 241.576 83.1211 242.269 83.2065 243.133H81.6065C81.5531 242.706 81.3291 242.333 80.9345 242.013C80.5398 241.682 80.0171 241.517 79.3665 241.517C78.7585 241.517 78.2625 241.677 77.8785 241.997C77.4945 242.306 77.3025 242.744 77.3025 243.309C77.3025 243.714 77.4145 244.045 77.6385 244.301C77.8731 244.557 78.1558 244.754 78.4865 244.893C78.8278 245.021 79.3025 245.17 79.9105 245.341C80.6465 245.544 81.2385 245.746 81.6865 245.949C82.1345 246.141 82.5185 246.445 82.8385 246.861C83.1585 247.266 83.3185 247.821 83.3185 248.525C83.3185 249.069 83.1745 249.581 82.8865 250.061C82.5985 250.541 82.1718 250.93 81.6065 251.229C81.0411 251.528 80.3745 251.677 79.6065 251.677ZM86.9171 240.413V251.565H85.4611V240.413H86.9171ZM98.1666 251.565H96.7106L90.8546 242.685V251.565H89.3986V240.397H90.8546L96.7106 249.261V240.397H98.1666V251.565ZM102.105 241.597V245.325H106.169V246.525H102.105V250.365H106.649V251.565H100.649V240.397H106.649V241.597H102.105ZM112.388 251.677C111.652 251.677 110.99 251.549 110.404 251.293C109.828 251.026 109.374 250.664 109.044 250.205C108.713 249.736 108.542 249.197 108.532 248.589H110.084C110.137 249.112 110.35 249.554 110.724 249.917C111.108 250.269 111.662 250.445 112.388 250.445C113.081 250.445 113.625 250.274 114.02 249.933C114.425 249.581 114.628 249.133 114.628 248.589C114.628 248.162 114.51 247.816 114.276 247.549C114.041 247.282 113.748 247.08 113.396 246.941C113.044 246.802 112.569 246.653 111.972 246.493C111.236 246.301 110.644 246.109 110.196 245.917C109.758 245.725 109.38 245.426 109.06 245.021C108.75 244.605 108.596 244.05 108.596 243.357C108.596 242.749 108.75 242.21 109.06 241.741C109.369 241.272 109.801 240.909 110.356 240.653C110.921 240.397 111.566 240.269 112.292 240.269C113.337 240.269 114.19 240.53 114.852 241.053C115.524 241.576 115.902 242.269 115.988 243.133H114.388C114.334 242.706 114.11 242.333 113.716 242.013C113.321 241.682 112.798 241.517 112.148 241.517C111.54 241.517 111.044 241.677 110.66 241.997C110.276 242.306 110.084 242.744 110.084 243.309C110.084 243.714 110.196 244.045 110.42 244.301C110.654 244.557 110.937 244.754 111.268 244.893C111.609 245.021 112.084 245.17 112.692 245.341C113.428 245.544 114.02 245.746 114.468 245.949C114.916 246.141 115.3 246.445 115.62 246.861C115.94 247.266 116.1 247.821 116.1 248.525C116.1 249.069 115.956 249.581 115.668 250.061C115.38 250.541 114.953 250.93 114.388 251.229C113.822 251.528 113.156 251.677 112.388 251.677ZM121.778 251.677C121.042 251.677 120.381 251.549 119.794 251.293C119.218 251.026 118.765 250.664 118.434 250.205C118.104 249.736 117.933 249.197 117.922 248.589H119.474C119.528 249.112 119.741 249.554 120.114 249.917C120.498 250.269 121.053 250.445 121.778 250.445C122.472 250.445 123.016 250.274 123.41 249.933C123.816 249.581 124.018 249.133 124.018 248.589C124.018 248.162 123.901 247.816 123.666 247.549C123.432 247.282 123.138 247.08 122.786 246.941C122.434 246.802 121.96 246.653 121.362 246.493C120.626 246.301 120.034 246.109 119.586 245.917C119.149 245.725 118.77 245.426 118.45 245.021C118.141 244.605 117.986 244.05 117.986 243.357C117.986 242.749 118.141 242.21 118.45 241.741C118.76 241.272 119.192 240.909 119.746 240.653C120.312 240.397 120.957 240.269 121.682 240.269C122.728 240.269 123.581 240.53 124.242 241.053C124.914 241.576 125.293 242.269 125.378 243.133H123.778C123.725 242.706 123.501 242.333 123.106 242.013C122.712 241.682 122.189 241.517 121.538 241.517C120.93 241.517 120.434 241.677 120.05 241.997C119.666 242.306 119.474 242.744 119.474 243.309C119.474 243.714 119.586 244.045 119.81 244.301C120.045 244.557 120.328 244.754 120.658 244.893C121 245.021 121.474 245.17 122.082 245.341C122.818 245.544 123.41 245.746 123.858 245.949C124.306 246.141 124.69 246.445 125.01 246.861C125.33 247.266 125.49 247.821 125.49 248.525C125.49 249.069 125.346 249.581 125.058 250.061C124.77 250.541 124.344 250.93 123.778 251.229C123.213 251.528 122.546 251.677 121.778 251.677Z" fill="white"/>
<defs>
<clipPath id="clip0_1_1650">
<rect width="47.72" height="55" fill="white" transform="translate(66.4551 30.5649)"/>
</clipPath>
<clipPath id="clip1_1_1650">
<rect width="55" height="55" fill="white" transform="translate(62.8151 30.5649)"/>
</clipPath>
<clipPath id="clip2_1_1650">
<rect width="55" height="55" fill="white" transform="translate(62.8151 30.5649)"/>
</clipPath>
</defs>
</svg>
