<svg width="300" height="100" viewBox="0 0 300 100" fill="none" xmlns="http://www.w3.org/2000/svg">
<path d="M4.2483 53.2949V13.2043C4.2483 6.79107 4.66354 3.94777 0 3.94777V3H30.4408V3.94777C25.8731 3.94777 26.0647 5.62216 26.0647 13.2043V54.0215C26.0647 66.4372 32.6767 71.7131 42.7704 71.7131C54.1418 71.7131 59.8914 63.9099 59.8914 54.0215V26.6626C59.8914 18.0379 57.1124 3.94777 47.0187 3.94777V3H74.9042L75 3.94777C63.0856 3.94777 60.8497 18.0379 60.8497 26.6626V54.0215C60.8497 67.9221 51.4906 78 32.7726 78C18.3028 78 4.2483 70.4179 4.2483 53.2633V53.2949Z" fill="#0B3954"/>
<path d="M120.623 42.7858C117.038 46.7629 110.917 47.1606 106.667 43.7954C104.669 41.9598 103.273 39.8184 103.273 37.4627C103.273 36.1472 99.8795 36.8509 95.5659 43.1836V63.4665C95.5659 69.065 96.1051 73.1338 99.9112 74.174V75H73.4907V74.174C77.5188 73.0421 77.614 68.6673 77.614 63.4665V38.6252C77.614 35.0459 76.3453 33.6386 72 32.109V31.283L95.5659 27V41.2562C103.051 30.3652 106.223 29.1415 109.395 27.7036C112.344 26.3881 116.785 27 119.544 29.325C123.667 32.782 124.207 38.9006 120.591 42.7858H120.623Z" fill="#0B3954"/>
<path d="M186 52.3825C186 72.8207 172.202 78 158.843 78C150.596 78 145.672 76.0461 142.85 73.441C139.495 75.6119 128.331 78.1861 128.331 76.5424V11.7853C128.331 8.28072 127.296 6.73002 123 5.17932V4.34195L145.986 0V36.2553C149.028 31.0759 154.233 28.4087 163.955 28.4087C178.38 28.4087 186 39.5738 186 52.3825V52.3825ZM165.021 53.8402C165.021 41.7447 162.105 31.5412 154.578 31.5412C147.585 31.5412 146.017 40.008 146.017 47.9785V58.9264C146.017 70.7117 148.432 77.1006 154.672 77.1006C160.537 77.1006 165.021 70.4016 165.021 53.8712V53.8402Z" fill="#0B3954"/>
<path d="M243 70.2466C241.504 74.9369 235.995 78 229.309 78C229.309 78 217.528 78 216.573 68.4279C215.204 73.9478 209.791 78 202.245 78C198.202 78 189 76.1813 189 67.1517C189 56.5267 197.597 54.5165 216.478 50.0495V43.2534C216.478 32.2136 210.237 26.247 202.914 30.0758C202.914 30.0758 200.59 31.4478 204.187 32.7241C206.002 33.3622 207.149 34.8619 208.008 36.7763C209.6 40.7008 207.785 44.9444 203.869 46.6674C200.048 48.167 195.718 46.3483 194.126 42.5195C193.075 39.7436 193.585 36.5529 195.4 34.6704C196.673 33.2984 198.584 31.384 202.5 29.2462C207.276 26.6937 212.466 27.0128 212.466 27.0128C226.348 27.0128 234.085 35.7233 234.085 48.2628V64.0886C234.085 64.0886 234.085 71.7462 239.179 71.5229C239.179 71.5229 241.822 71.5229 242.363 69.7042L243 70.2466V70.2466ZM216.478 51.1025C207.785 53.0169 207.881 59.494 207.881 64.5034C207.881 64.5034 207.785 71.5229 212.02 71.5229C213.835 71.5229 215.3 70.0233 216.478 67.4707V51.1025Z" fill="#0B3954"/>
<path d="M300 74.1439V74.9694H273.201V74.1439C277.287 73.0127 277.48 68.549 277.48 63.3516V42.8981C277.48 37.0892 275.228 34.3376 270.08 34.3376C267.732 34.3376 265.255 36.172 263.775 38.3121V63.4739C263.775 69.0688 264.322 73.135 268.182 74.1745V75H241.383V74.1745C245.469 73.0433 245.566 68.7631 245.566 63.4739V38.6178C245.566 35.0408 244.375 33.6344 240 32.1057V31.2803L263.775 27V36.8752C266.574 31.4943 272.236 27 278.027 27C286.584 27 295.593 30.2713 295.593 42.4701V63.3516C295.593 68.9465 296.236 73.2267 300 74.1439V74.1439Z" fill="#0B3954"/>
<path d="M249.849 99C249.597 99 249.314 99.0314 249 99.0629C249.283 99.0943 249.566 99.1257 249.849 99Z" fill="#0B3954"/>
</svg>
