<svg width="300" height="108" viewBox="0 0 300 108" fill="none" xmlns="http://www.w3.org/2000/svg">
<path d="M30.6251 56.6903C30.6251 56.6903 27.3268 62.018 16.7602 62.8233C4.91102 63.7216 0.330133 60.9029 0.330133 60.9029V49.0086H0.879839C1.85709 53.0972 7.17092 62.9782 16.7602 62.2348C23.2956 61.7392 25.128 53.376 17.7986 48.4201L8.39249 43.1234C-0.250112 38.2913 -2.38786 30.9193 2.77327 23.8881C2.77327 23.8881 6.13259 18.9321 16.1495 18.1578C26.5939 17.3524 30.6251 19.8924 30.6251 19.8924V30.2999H30.0753C28.8538 25.9634 25.922 17.9719 16.1495 18.7153C9.55298 19.2109 7.65955 26.7997 15.5998 31.4459L25.0058 37.0523C33.0682 41.8224 35.2059 49.5971 30.6251 56.6903V56.6903Z" fill="#0B3954"/>
<path d="M75.4008 20.77V51.3153C75.4008 52.267 75.2236 56.4904 78 56.2822V56.8176L62.7595 57.9775V57.4422C64.2954 57.3232 64.1772 53.0998 64.1772 52.148V38.1097L49.8819 39.2102V53.2485C49.8819 54.2003 49.7046 58.4237 51.2996 58.3047V58.84L36 60V59.4646C38.8945 59.2564 38.6582 55.033 38.6582 54.0813V23.5658C38.6582 22.9709 38.8354 18.4501 36 18.6583V18.1824L51.2996 17.0225V17.4983C49.5274 17.6471 49.8819 22.1381 49.8819 22.733V38.7343L64.1772 37.6636V21.6325C64.1772 21.0377 64.4135 16.5169 62.7595 16.6358V16.1599L78 15V15.4759C75.3418 15.6841 75.4008 20.2049 75.4008 20.7997V20.77Z" fill="#0B3954"/>
<path d="M83.383 43.8694V20.8593C83.383 17.1705 83.6213 15.5377 81 15.7191V15.1748L98.0383 13.8747V14.4189C95.4766 14.6306 95.5957 15.5679 95.5957 19.922V43.3856C95.5957 50.5215 99.2894 53.273 104.949 52.8195C111.323 52.3357 114.54 47.6188 114.54 41.9343V26.2112C114.54 21.2524 112.991 13.2699 107.332 13.7235V13.1792L122.94 12L123 12.5443C116.328 13.0583 115.077 21.2524 115.077 26.2112V41.9343C115.077 49.9168 109.834 56.1153 99.3489 56.9317C91.2468 57.5666 83.383 53.8173 83.383 43.9601V43.8694Z" fill="#0B3954"/>
<path d="M168 9V22.6456H167.53C167.236 15.7318 158.543 10.2736 153.667 10.6678L153.021 10.7284V45.9946C153.021 50.1186 153.315 52.2716 155.664 52.0896V52.6354L138.336 54V53.4542C140.685 53.2722 140.979 51.0586 140.979 46.9346V11.6381L140.333 11.6988C135.399 12.093 126.764 18.8854 126.47 25.8598H126V12.2749L167.971 9H168Z" fill="#0B3954"/>
<path d="M213 6V19.6456H212.53C212.236 12.7318 203.543 7.27359 198.667 7.66779L198.021 7.72844V42.9946C198.021 47.1186 198.315 49.2716 200.664 49.0896V49.6354L183.336 51V50.4542C185.685 50.2722 185.979 48.0586 185.979 43.9346V8.63814L185.333 8.69879C180.399 9.09299 171.764 15.8854 171.47 22.8598H171V9.27493L212.971 6H213Z" fill="#0B3954"/>
<path d="M252 33.5325V45.3476L216 48V47.4575C218.591 47.2766 219.578 43.5693 219.578 39.4702V13.6397C219.578 9.90221 218.715 5.86336 216 6.07435V5.5921L251.198 3V15.3275H250.643C250.643 3.63295 233.799 4.80844 233.799 4.80844L231.578 4.95914V25.1534L236.576 24.7917C236.576 24.7917 243.177 24.4903 243.856 17.136H244.411V31.8446H243.856C243.177 24.7013 236.638 25.3041 236.576 25.3041L231.578 25.6658V46.282L233.799 46.1313C233.799 46.1313 251.445 45.4983 251.445 33.5626H252V33.5325Z" fill="#0B3954"/>
<path d="M300 40.9617V41.5166L288.044 42.4414C283.778 42.7805 282.457 40.0986 281.015 28.7545C280.234 22.6509 273.024 23.5757 273.024 23.5757L270.2 23.7915V36.8618C270.2 42.9038 270.441 43.2429 272.964 43.0579V43.6128L255 45V44.4451C257.583 44.2293 258.124 44.0752 258.124 37.7866V7.36102C258.124 3.53855 257.644 1.90475 255 2.12053V1.62731L272.063 0.301779C284.019 -0.623012 294.743 0.0243418 294.743 10.3203C294.743 19.5683 286.452 22.1268 280.684 22.5584C287.593 22.0344 291.078 23.2982 294.022 34.1491C295.224 38.7422 298.408 40.9617 299.97 40.9617H300ZM280.684 11.3993C280.684 -0.3764 279.122 0.301779 272.093 0.856653L270.23 1.01079V23.2366L272.093 23.0825C279.903 22.4659 280.684 22.5276 280.684 11.3993V11.3993Z" fill="#0B3954"/>
<path d="M78.6266 101.695C78.6266 101.695 75.3304 107.019 64.7706 107.823C52.929 108.721 48.351 105.904 48.351 105.904V94.0182H48.9004C49.877 98.104 55.1875 107.978 64.7706 107.235C71.3018 106.74 73.133 98.3826 65.8083 93.4301L56.4082 88.1371C47.7406 83.2774 45.6043 75.9105 50.7926 68.884C50.7926 68.884 54.1498 63.9315 64.1602 63.1577C74.598 62.3529 78.6266 64.891 78.6266 64.891V75.2914H78.0772C76.8564 70.9579 73.9265 62.9719 64.1602 63.7148C57.568 64.2101 55.6758 71.7937 63.6109 76.4367L73.0109 82.0392C81.0681 86.8061 83.2045 94.5754 78.6266 101.664V101.695Z" fill="#0B3954"/>
<path d="M99.2151 98.3588C99.2151 106.331 100.719 106.146 104.147 105.899V106.455L84.3608 108V107.444C86.8867 107.258 87.1272 106.115 87.1272 101.912V70.1149C87.1272 66.2832 86.6461 64.8308 84 65.0471V64.5527L99.2151 63.3784C111.183 62.4514 123 62.3278 123 74.0085C123 85.6892 111.153 87.2343 99.2151 88.1304V98.3897V98.3588ZM99.2151 87.5433C108.056 86.8635 109.078 86.9562 109.078 75.0283C109.078 63.1003 107.394 63.2239 99.2151 63.8729V87.5433Z" fill="#0B3954"/>
<path d="M162 87.5422V99.3494L126 102V101.458C128.591 101.277 129.578 97.5723 129.578 93.4759V67.6325C129.578 63.8976 128.715 59.8614 126 60.0723V59.5904L161.198 57V69.3494H160.643C160.643 57.6627 143.799 58.8374 143.799 58.8374L141.578 58.988V79.1687L146.576 78.8072C146.576 78.8072 153.177 78.506 153.856 71.1566H154.411V85.8554H153.856C153.177 78.7169 146.638 79.3193 146.576 79.3193L141.578 79.6807V100.283L143.799 100.133C143.799 100.133 161.445 99.5 161.445 87.5723H162V87.5422Z" fill="#0B3954"/>
<path d="M201 84.5422V96.3494L165 99V98.4578C167.591 98.2771 168.578 94.5723 168.578 90.4759V64.6325C168.578 60.8976 167.715 56.8614 165 57.0723V56.5904L200.198 54V66.3494H199.643C199.643 54.6627 182.799 55.8374 182.799 55.8374L180.578 55.988V76.1687L185.576 75.8072C185.576 75.8072 192.177 75.506 192.856 68.1566H193.411V82.8554H192.856C192.177 75.7169 185.638 76.3193 185.576 76.3193L180.578 76.6807V97.2831L182.799 97.1325C182.799 97.1325 200.445 96.5 200.445 84.5723H201V84.5422Z" fill="#0B3954"/>
<path d="M252 74.0631C252 92.0868 237.504 96.6853 225.259 97.6112L207 99V98.4445C209.653 98.2284 210.639 94.4632 210.639 90.2659V63.7859C210.639 59.959 209.714 55.8234 207 56.0394V55.5456L225.259 54.1568C237.535 53.2309 252 55.9777 252 74.0323V74.0631ZM236.517 75.2359C236.517 55.4839 232.816 54.1568 225.228 54.7432L222.514 54.9592V97.2717L225.228 97.0557C232.507 96.5001 236.517 95.3274 236.517 75.2359Z" fill="#0B3954"/>
</svg>
