<svg width="300" height="75" viewBox="0 0 300 75" fill="none" xmlns="http://www.w3.org/2000/svg">
<path d="M30.6248 39.8984C30.6248 39.8984 27.319 45 16.7818 45C4.93597 45 0.356066 41.8335 0.356066 41.8335V29.871H0.907032C1.87122 34.093 7.17428 44.4722 16.7818 44.4722C23.3245 44.4722 25.1496 36.1689 17.8148 30.645L8.41395 24.5934C-0.263771 18.9992 -2.39877 11.3995 2.80098 4.7498C2.80098 4.7498 6.14122 0 16.1619 0C26.1826 0 30.6248 2.84988 30.6248 2.84988V13.3346H30.0738C28.8686 8.8663 25.9416 0.56294 16.1619 0.56294C9.58476 0.56294 7.69081 8.05708 15.611 13.3346L25.0118 19.7029C33.0697 25.1212 35.2047 33.1079 30.6248 39.8984Z" fill="#0B3954"/>
<path d="M38.558 30.1543V6.12342C38.558 2.27848 38.8102 0.56962 36 0.56962V0H54.2666V0.56962C51.5284 0.56962 51.6365 1.56646 51.6365 6.12342V30.5815C51.6365 38.0222 55.5997 41.1907 61.6525 41.1907C68.498 41.1907 71.9207 36.5269 71.9207 30.5815V14.2049C71.9207 9.04272 70.2634 0.56962 64.2106 0.56962V0H80.9279L81 0.56962C73.8663 0.56962 72.4972 9.00712 72.4972 14.2049V30.6171C72.4972 38.9478 66.8767 45 55.6357 45C46.9528 45 38.522 40.443 38.522 30.1899L38.558 30.1543Z" fill="#0B3954"/>
<path d="M131.082 0H146.363V0.570071C143.286 0.570071 143.427 1.38955 143.427 5.23753V38.5511C143.427 42.8266 143.923 43.8599 147 43.8599V44.4299H127.898V43.8599C130.834 43.8599 131.082 42.8622 131.082 38.5511V1.71021L114.846 45H114.28L93.9753 7.019V27.7197C93.9753 35.8789 96.2746 43.8955 103.561 43.8955V44.4656H84V43.8955C90.7209 43.8955 93.4093 36.0214 93.4093 27.7197V6.05701C90.9686 1.71021 88.9523 0.67696 87.219 0.570071V0H105.083L120.258 29.038L131.082 0Z" fill="#0B3954"/>
<path d="M194.082 0H209.363V0.570071C206.286 0.570071 206.427 1.38955 206.427 5.23753V38.5511C206.427 42.8266 206.923 43.8599 210 43.8599V44.4299H190.898V43.8599C193.834 43.8599 194.082 42.8622 194.082 38.5511V1.71021L177.846 45H177.28L156.975 6.98337V27.7197C156.975 35.8789 159.275 43.8955 166.561 43.8955V44.4656H147V43.8955C153.721 43.8955 156.409 36.0214 156.409 27.7197V6.05701C153.969 1.71021 151.952 0.67696 150.219 0.570071V0H168.083L183.258 29.038L194.082 0Z" fill="#0B3954"/>
<path d="M249 32.4779V45H213V44.4226C215.574 44.4226 216.583 40.5974 216.583 36.231V8.80513C216.583 4.8356 215.713 0.505213 213 0.505213V0H248.2V13.0994H247.643C247.643 0.649558 230.809 0.577386 230.809 0.577386H228.583V21.9767H233.591C233.591 21.9767 240.2 22.1572 240.861 14.4346H241.417V30.0962H240.861C240.165 22.4098 233.661 22.5541 233.591 22.5541H228.583V44.4226H230.809C230.809 44.4226 248.443 45.1083 248.443 32.4779H249V32.4779Z" fill="#0B3954"/>
<path d="M300 44.4226V45H288.029C283.757 45 282.434 42.1131 281.01 30.2406C280.23 23.8532 273.007 24.2141 273.007 24.2141H270.192V37.7827C270.192 44.0617 270.43 44.4226 272.973 44.4226V45H255V44.4226C257.577 44.4226 258.12 44.2783 258.12 37.7827V6.2069C258.12 2.23737 257.645 0.505213 255 0.505213V0H272.057C284.028 0 294.778 1.55172 294.778 12.1973C294.778 21.7963 286.503 23.7811 280.705 23.7811C287.622 23.7811 291.115 25.3689 294.032 36.8805C295.219 41.7522 298.406 44.3144 299.966 44.4226H300ZM280.637 12.1973C280.637 -8.60372e-07 279.077 0.577386 272.057 0.577386H270.192V23.6728H272.057C279.857 23.6728 280.637 23.8172 280.637 12.2334V12.1973Z" fill="#0B3954"/>
<path d="M69.49 66H72V75H69.49V71.2812H65.51V75H63V66H65.51V69.5937H69.49V66Z" fill="#0B3954"/>
<path d="M87.6316 75L87.1263 73.5052H83.8737L83.3684 75H81L84.1579 66H86.8421L90 75H87.6316ZM84.4105 71.8235H86.5579L85.4842 68.6159L84.4105 71.8235Z" fill="#0B3954"/>
<path d="M99 75V66H102V75H99Z" fill="#0B3954"/>
<path d="M113.788 71.5V75H111V66H115.54C116.854 66 117.889 66.2813 118.646 66.8125C119.403 67.3438 119.761 68 119.761 68.75C119.761 69.2812 119.562 69.7812 119.164 70.2812C118.765 70.7812 118.088 71.125 117.173 71.3437L120 75H116.735L114.146 71.5H113.827H113.788ZM113.788 67.6562V69.8125H115.54C115.978 69.8125 116.296 69.7187 116.535 69.5C116.774 69.3125 116.894 69.0625 116.894 68.7187C116.894 68.375 116.774 68.125 116.535 67.9375C116.296 67.7187 115.938 67.625 115.54 67.625H113.788V67.6562Z" fill="#0B3954"/>
<path d="M141.523 66C143.128 66 144.453 66.4062 145.465 67.25C146.512 68.0937 147 69.1562 147 70.5C147 71.8437 146.477 72.9063 145.465 73.75C144.419 74.5938 143.128 75 141.523 75H138V66H141.523V66ZM140.442 73.3438H141.523C142.465 73.3438 143.198 73.0938 143.721 72.5625C144.244 72.0625 144.523 71.3437 144.523 70.5C144.523 69.6562 144.244 68.9375 143.721 68.4375C143.198 67.9375 142.465 67.6562 141.523 67.6562H140.442V73.3125V73.3438Z" fill="#0B3954"/>
<path d="M162 66.0311V67.6817H158.434V69.6125H161.589V71.263H158.434V73.3495H162V75H156V66H162V66.0311Z" fill="#0B3954"/>
<path d="M175.292 67.628C174.917 67.628 174.625 67.6894 174.375 67.843C174.125 67.9966 174.042 68.1809 174.042 68.4573C174.042 68.7338 174.167 68.9488 174.375 69.1024C174.583 69.256 174.875 69.3788 175.208 69.471C175.542 69.5631 175.958 69.6553 176.375 69.7167C176.792 69.8089 177.208 69.901 177.667 70.0239C178.083 70.1468 178.458 70.2696 178.833 70.4539C179.167 70.6075 179.458 70.8532 179.667 71.1604C179.875 71.4676 180 71.8362 180 72.2662C180 73.0034 179.583 73.6485 178.75 74.2014C177.917 74.7235 176.833 75 175.5 75C174.167 75 173.042 74.7543 172.25 74.2935C171.417 73.802 171 73.1263 171 72.2355H174.125C174.208 72.942 174.708 73.3106 175.583 73.3106C176 73.3106 176.333 73.2184 176.583 73.0648C176.833 72.9113 176.958 72.6962 176.958 72.4505C176.958 72.2048 176.833 71.9898 176.625 71.8362C176.417 71.6826 176.125 71.5597 175.792 71.4676C175.458 71.3754 175.042 71.2833 174.625 71.2218C174.208 71.1297 173.792 71.0375 173.333 70.9147C172.917 70.7918 172.542 70.6689 172.167 70.4846C171.833 70.3311 171.542 70.0853 171.333 69.7782C171.125 69.471 171 69.1024 171 68.7031C171 67.8737 171.417 67.2287 172.25 66.7372C173.083 66.2457 174.125 66 175.458 66C176.792 66 177.792 66.215 178.583 66.645C179.375 67.0751 179.792 67.7509 179.833 68.7031H176.667C176.625 68.3959 176.5 68.1502 176.25 67.9659C176 67.7816 175.708 67.7201 175.333 67.7201L175.292 67.628Z" fill="#0B3954"/>
<path d="M189 75V66H192V75H189Z" fill="#0B3954"/>
<path d="M202.358 73.697C201.442 72.8485 201 71.7879 201 70.4849C201 69.1818 201.442 68.1212 202.358 67.2727C203.274 66.4242 204.379 66 205.674 66C206.684 66 207.6 66.2727 208.358 66.7879C209.147 67.303 209.684 68.0303 210 68.9394H207.347C207 68.303 206.463 67.9697 205.674 67.9697C204.884 67.9697 204.316 68.1818 203.874 68.6667C203.432 69.1212 203.211 69.7273 203.211 70.4849C203.211 71.2424 203.432 71.8485 203.874 72.303C204.316 72.7576 204.884 73 205.642 73C206.179 73 206.589 72.8788 206.937 72.6364C207.284 72.3939 207.505 72.0303 207.6 71.6364H205.042V70.0303H210V71.6364C209.842 72.4242 209.368 73.1818 208.642 73.8788C208.295 74.2121 207.853 74.4848 207.316 74.697C206.779 74.9091 206.242 75 205.642 75C204.347 75 203.242 74.5758 202.326 73.7273L202.358 73.697Z" fill="#0B3954"/>
<path d="M225.549 66H228V75H225.549L221.451 69.3322V75H219V66H221.451L225.549 71.6678V66Z" fill="#0B3954"/>
</svg>
