<svg width="300" height="81" viewBox="0 0 300 81" fill="none" xmlns="http://www.w3.org/2000/svg">
<path d="M13.8484 15.4817V22.0277C16.6987 17.352 21.2764 15 27.5528 15C32.7351 15 36.9386 16.7002 40.1631 20.1008C43.3877 23.5013 45 28.1203 45 33.9861V60H31.2092V35.8281C31.2092 32.966 30.4319 30.7273 28.9059 29.1688C27.38 27.6102 25.2495 26.8168 22.5432 26.8168C19.8369 26.8168 17.7063 27.6102 16.1804 29.1688C14.6545 30.7273 13.8772 32.966 13.8772 35.8281V60H0V15.4817H13.8484Z" fill="#0B3954"/>
<path d="M57.0253 53.7274C52.9988 49.5271 51 44.1226 51 37.57C51 31.0174 52.9988 25.6129 57.0253 21.3566C61.0519 17.1282 65.9475 15 71.7411 15C77.5347 15 81.9668 17.0722 85.0664 21.2166V15.448H99V59.4399H85.0664V53.0554C81.7061 57.6758 77.1871 60 71.5383 60C65.8896 60 61.0519 57.8998 57.0253 53.6994V53.7274ZM82.0537 45.5227C84.0525 43.6185 85.0664 40.9583 85.0664 37.486C85.0664 34.0137 84.0525 31.3535 82.0537 29.4773C80.0549 27.6011 77.7375 26.677 75.1304 26.677C72.5232 26.677 70.2058 27.6291 68.207 29.5053C66.2082 31.4095 65.1943 34.0697 65.1943 37.542C65.1943 41.0143 66.2082 43.6745 68.207 45.5507C70.2058 47.4269 72.5232 48.351 75.1304 48.351C77.7375 48.351 80.0549 47.3989 82.0537 45.5227V45.5227Z" fill="#0B3954"/>
<path d="M130.091 48.0983H135V60H128.007C122.956 60 119.074 58.8623 116.305 56.587C113.537 54.3117 112.167 50.4028 112.167 44.8895V25.8408H108V14.1725H112.167V3H125.895V14.1725H134.886V25.8408H125.895V44.8895C125.895 47.0189 127.294 48.0983 130.062 48.0983H130.091Z" fill="#0B3954"/>
<path d="M172.152 15H186V59.5183H172.152V52.9723C169.273 57.648 164.724 60 158.447 60C153.265 60 149.061 58.2997 145.837 54.8992C142.612 51.4987 141 46.8797 141 41.0139V15H154.791V39.1719C154.791 42.034 155.568 44.2727 157.094 45.8312C158.62 47.3898 160.75 48.1832 163.457 48.1832C166.163 48.1832 168.294 47.3898 169.82 45.8312C171.374 44.2727 172.123 42.034 172.123 39.1719V15H172.152Z" fill="#0B3954"/>
<path d="M211.921 15.4817V23.7846C215.198 17.9471 219.548 15 225 15V28.8854H221.578C218.359 28.8854 215.952 29.6222 214.357 31.1241C212.762 32.6259 211.95 35.233 211.95 38.9452V60H198V15.4817H211.95H211.921Z" fill="#0B3954"/>
<path d="M234.025 53.7274C229.999 49.5271 228 44.1226 228 37.57C228 31.0174 229.999 25.6129 234.025 21.3566C238.052 17.1282 242.948 15 248.741 15C254.535 15 258.967 17.0722 262.066 21.2166V15.448H276V59.4399H262.066V53.0554C258.706 57.6758 254.187 60 248.538 60C242.89 60 238.052 57.8998 234.025 53.6994V53.7274ZM259.054 45.5227C261.053 43.6185 262.066 40.9583 262.066 37.486C262.066 34.0137 261.053 31.3535 259.054 29.4773C257.055 27.6011 254.737 26.677 252.13 26.677C249.523 26.677 247.206 27.6291 245.207 29.5053C243.208 31.4095 242.194 34.0697 242.194 37.542C242.194 41.0143 243.208 43.6745 245.207 45.5507C247.206 47.4269 249.523 48.351 252.13 48.351C254.737 48.351 257.055 47.3989 259.054 45.5227V45.5227Z" fill="#0B3954"/>
<path d="M285 60V0H300V60H285Z" fill="#0B3954"/>
<path d="M15 66V81H12.6506V70.7034L8.31325 81H6.68675L2.31928 70.7034V81H0V66H2.53012L7.53012 77.7902L12.5 66H15V66Z" fill="#0B3954"/>
<path d="M30 81V66H33V81H30Z" fill="#0B3954"/>
<path d="M57.6186 66H60V81H57.6186L50.4124 69.8055V81H48V66H50.4124L57.6186 77.1628V66V66Z" fill="#0B3954"/>
<path d="M78 66V67.9304H73.7701V72.4557H77.5172V74.3544H73.7701V79.0696H78V81H72V66.0317H78V66Z" fill="#0B3954"/>
<path d="M98.0503 74.8795V80.9683H96V66H100.34C101.751 66 102.87 66.4123 103.642 67.2685C104.414 68.1247 104.814 69.1712 104.814 70.4715C104.814 71.4863 104.547 72.3742 104.041 73.1987C103.536 73.9915 102.737 74.5306 101.672 74.7843L105 81H102.497L99.355 74.9112H98.0769L98.0503 74.8795ZM98.0503 67.9027V72.9767H100.34C101.112 72.9767 101.698 72.7548 102.098 72.3108C102.47 71.8668 102.683 71.2326 102.683 70.4397C102.683 69.6469 102.497 69.0127 102.098 68.5687C101.698 68.1247 101.112 67.9027 100.34 67.9027H98.0503V67.9027Z" fill="#0B3954"/>
<path d="M129.729 81L128.776 77.9239H123.224L122.271 81H120L124.738 66H127.262L132 81H129.701H129.729ZM123.813 76.0211H128.187L126 68.981L123.813 76.0211Z" fill="#0B3954"/>
<path d="M147 66H148.949V79.125H153V81H147V66V66Z" fill="#0B3954"/>
<path d="M198.712 66H201L197.141 81H194.715L191.986 69.6229L189.092 81H186.694L183 66H185.26L187.962 78.2352L190.884 66H193.282L196.011 78.1716L198.74 66H198.712Z" fill="#0B3954"/>
<path d="M225.729 81L224.776 77.9239H219.224L218.271 81H216L220.738 66H223.262L228 81H225.701H225.729ZM219.813 76.0211H224.187L222 68.981L219.813 76.0211Z" fill="#0B3954"/>
<path d="M240 67.9068V66H249V67.9068H245.564V81H243.436V67.9068H240V67.9068Z" fill="#0B3954"/>
<path d="M270 66V67.9304H265.77V72.4557H269.517V74.3544H265.77V79.0696H270V81H264V66.0317H270V66Z" fill="#0B3954"/>
<path d="M290.05 74.8795V80.9683H288V66H292.34C293.751 66 294.87 66.4123 295.642 67.2685C296.414 68.1247 296.814 69.1712 296.814 70.4715C296.814 71.4863 296.547 72.3742 296.041 73.1987C295.536 74.0232 294.737 74.5306 293.672 74.7843L297 81H294.497L291.355 74.9112H290.077L290.05 74.8795ZM290.05 67.9027V72.9767H292.34C293.112 72.9767 293.698 72.7548 294.098 72.3108C294.47 71.8668 294.683 71.2326 294.683 70.4397C294.683 69.6469 294.497 69.0127 294.098 68.5687C293.698 68.1247 293.112 67.9027 292.34 67.9027H290.05V67.9027Z" fill="#0B3954"/>
</svg>
