<svg width="249" height="117" viewBox="0 0 249 117" fill="none" xmlns="http://www.w3.org/2000/svg">
<path d="M40.4035 6H40.9438C69.1143 70.276 71.0052 73.928 71.0052 73.928C75.0186 82.8083 78.8004 82.9236 81 83.1158V84H42.0629V83.1158C50.9771 83.1158 44.3011 70.1607 44.3011 70.1607L40.7508 62.5106H18.9476C16.7094 67.6235 18.7161 83.1158 32.0681 83.1158V84H0V83.1158C3.35731 82.8852 9.33873 82.001 17.9057 62.5106L40.3649 6H40.4035ZM29.1739 36.6003L19.2563 61.5495H40.2878L29.1739 36.6003Z" fill="#0B3954"/>
<path d="M111 83.1018V84H82.6142V83.1018C86.9449 81.8522 87.0236 77.1269 87.0236 71.2692V12.848C87.0236 8.90376 85.6457 7.3417 81 5.62343V4.72524L106.315 0V71.2692C106.315 77.4784 106.866 81.9693 110.961 83.1018H111Z" fill="#0B3954"/>
<path d="M141 80.1292V81H112.502V80.1292C116.85 78.9177 116.929 74.2231 116.929 68.6577V42.0045C116.929 38.1807 115.664 36.6663 111 35.0005V34.1297L136.296 29.5487V68.6199C136.296 74.6396 136.85 78.9934 140.96 80.0914L141 80.1292ZM114.557 16.3736C114.557 10.581 119.34 6 125.387 6C131.435 6 136.336 10.581 136.336 16.3736C136.336 22.1661 131.435 26.7471 125.387 26.7471C119.34 26.7471 114.557 22.1661 114.557 16.3736V16.3736Z" fill="#0B3954"/>
<path d="M185.592 77.9089C185.592 77.9089 181.198 84 167.854 84C154.51 84 147.359 80.1735 147.359 80.1735V65.4143H148.398C150.715 75.8785 160.263 82.9848 167.854 82.9848C176.044 82.9848 177.882 73.6529 169.132 68.0304L157.507 61.1583C146.68 54.1692 143.804 43.0412 150.835 35.3883C150.835 35.3883 155.11 30 168.214 30C181.318 30 186.991 33.1627 186.991 33.1627V44.6421H185.952C183.874 34.5293 174.885 31.0152 168.214 31.0152C160.743 31.0152 157.147 38.3167 167.175 44.5249L178.801 51.6312C189.268 57.8395 191.944 70.5293 185.592 77.987V77.9089Z" fill="#0B3954"/>
<path d="M248.961 75.808C247.408 80.7622 241.584 84 234.517 84C234.517 84 222.092 84 221.082 73.8966C219.607 79.748 213.899 84 205.978 84C201.707 84 192 82.0885 192 72.5313C192 61.2966 201.086 59.1511 221.005 54.4309V47.2142C221.005 35.5114 214.404 29.2309 206.677 33.2488C206.677 33.2488 204.231 34.6922 208.036 36.0575C209.939 36.7207 211.181 38.3201 212.074 40.3485C213.744 44.5225 211.841 49.0086 207.725 50.803C203.687 52.3634 199.106 50.452 197.436 46.434C196.31 43.5083 196.892 40.1535 198.795 38.125C200.154 36.6427 202.134 34.6532 206.289 32.3906C211.337 29.699 216.811 30.0111 216.811 30.0111C231.488 30.0111 239.642 39.2173 239.642 52.5195V69.2935C239.642 69.2935 239.642 77.4074 245.001 77.1734C245.001 77.1734 247.796 77.1734 248.34 75.2619L249 75.808H248.961ZM220.966 55.5622C211.802 57.5907 211.88 64.4563 211.88 69.7226C211.88 69.7226 211.764 77.1344 216.229 77.1344C218.131 77.1344 219.685 75.574 220.927 72.8433V55.5232L220.966 55.5622Z" fill="#0B3954"/>
<path d="M39 99H45.5645C47.1115 99 48.324 99.3739 49.2439 100.122C50.1638 100.87 50.6237 101.784 50.6237 102.947C50.6237 104.651 49.6202 105.773 47.655 106.396C48.6585 106.521 49.4948 106.936 50.0801 107.643C50.6655 108.349 51 109.139 51 110.094C51 111.299 50.5401 112.255 49.662 112.961C48.784 113.668 47.5714 114 45.9826 114H39.0836V99H39ZM42.6794 101.784V105.025H45.1045C45.6481 105.025 46.0662 104.9 46.4007 104.609C46.7352 104.319 46.9024 103.945 46.9024 103.404C46.9024 102.864 46.7352 102.449 46.4007 102.199C46.0662 101.909 45.6481 101.784 45.1045 101.784H42.6794ZM42.6794 111.216H45.439C45.9408 111.216 46.3589 111.05 46.6934 110.759C47.0279 110.468 47.1951 110.053 47.1951 109.512C47.1951 108.972 47.0279 108.557 46.7352 108.266C46.4007 107.934 46.0244 107.809 45.5226 107.809H42.7213V111.216H42.6794Z" fill="#0B3954"/>
<path d="M62.1951 111.886C60.7317 110.463 60 108.675 60 106.48C60 104.285 60.7317 102.537 62.1951 101.114C63.6585 99.6911 65.4472 99 67.5203 99C69.5935 99 71.4228 99.6911 72.8455 101.114C74.2683 102.537 75 104.325 75 106.48C75 108.634 74.2683 110.463 72.8455 111.886C71.3821 113.309 69.6341 114 67.5203 114C65.4065 114 63.6585 113.309 62.1951 111.886ZM70.3252 109.569C71.0163 108.797 71.3821 107.78 71.3821 106.48C71.3821 105.179 71.0163 104.163 70.3252 103.431C69.6341 102.659 68.6992 102.293 67.5203 102.293C66.3415 102.293 65.4065 102.659 64.7154 103.431C64.0244 104.203 63.6585 105.22 63.6585 106.48C63.6585 107.74 64.0244 108.797 64.7154 109.569C65.4065 110.341 66.3415 110.707 67.5203 110.707C68.6992 110.707 69.6341 110.341 70.3252 109.569Z" fill="#0B3954"/>
<path d="M87 107.86V99H90.4967V107.86C90.4967 108.766 90.6954 109.426 91.1325 109.92C91.5695 110.415 92.1656 110.621 93 110.621C93.8344 110.621 94.4305 110.374 94.8675 109.92C95.3046 109.426 95.5033 108.766 95.5033 107.86V99H99V107.86C99 109.179 98.7218 110.291 98.1258 111.239C97.5298 112.187 96.7748 112.887 95.8609 113.341C94.947 113.794 93.9934 114 92.9205 114C91.2516 114 89.8609 113.464 88.7086 112.393C87.5563 111.321 87 109.797 87 107.86V107.86Z" fill="#0B3954"/>
<path d="M108 101.784V99H120V101.784H115.832V114H112.126V101.784H108Z" fill="#0B3954"/>
<path d="M132 114V99H135V114H132Z" fill="#0B3954"/>
<path d="M154.42 114.628C152.334 114.628 150.61 113.908 149.166 112.426C147.722 110.944 147 109.08 147 106.793C147 104.506 147.722 102.685 149.166 101.202C150.61 99.72 152.374 99 154.42 99C156.465 99 158.27 99.72 159.674 101.202C161.078 102.685 161.799 104.548 161.799 106.793C161.799 108.064 161.559 109.249 161.078 110.308C160.596 111.367 159.914 112.256 159.072 112.976L162 117H157.749L155.984 114.459C155.422 114.586 154.901 114.628 154.38 114.628H154.42ZM151.612 103.616C150.93 104.421 150.57 105.48 150.57 106.793C150.57 108.106 150.93 109.207 151.612 110.012C152.294 110.816 153.217 111.198 154.38 111.198C155.543 111.198 156.465 110.816 157.147 110.012C157.829 109.207 158.19 108.148 158.19 106.793C158.19 105.438 157.829 104.379 157.147 103.616C156.465 102.812 155.543 102.431 154.38 102.431C153.217 102.431 152.294 102.812 151.612 103.616Z" fill="#0B3954"/>
<path d="M171 107.86V99H174.497V107.86C174.497 108.766 174.695 109.426 175.132 109.92C175.57 110.415 176.166 110.621 177 110.621C177.834 110.621 178.43 110.374 178.868 109.92C179.305 109.426 179.503 108.766 179.503 107.86V99H183V107.86C183 109.179 182.722 110.291 182.126 111.239C181.53 112.187 180.775 112.887 179.861 113.341C178.947 113.794 177.993 114 176.921 114C175.252 114 173.861 113.464 172.709 112.393C171.556 111.321 171 109.797 171 107.86V107.86Z" fill="#0B3954"/>
<path d="M204 99V101.769H198.633V104.992H203.381V107.76H198.633V111.231H204V114H195V99.0413H204V99Z" fill="#0B3954"/>
</svg>
