<svg width="300" height="117" viewBox="0 0 300 117" fill="none" xmlns="http://www.w3.org/2000/svg">
<path d="M0 78V9H18V78H0Z" fill="#0B3954"/>
<path d="M34.6605 70.269C29.543 65.0728 27 58.134 27 49.4842C27 40.8343 29.543 33.8955 34.6605 28.731C39.7779 23.5664 46.4023 21 54.5337 21C61.2523 21 66.9663 22.6793 71.6756 26.0378C76.3535 29.3963 79.4616 34.2123 81 40.4858H62.6651C61.0953 37.159 58.4895 35.4797 54.8791 35.4797C51.2686 35.4797 48.6 36.7788 46.8419 39.3135C45.0837 41.8799 44.2047 45.2702 44.2047 49.4525C44.2047 53.6348 45.0837 57.025 46.8419 59.5914C48.6 62.1579 51.143 63.4252 54.5023 63.4252C56.6058 63.4252 58.2698 63.045 59.4628 62.3163C60.6558 61.5875 61.6919 60.2885 62.6337 58.4191H80.9686C79.4616 64.4074 76.3221 69.1918 71.55 72.7087C66.8093 76.2574 61.1267 78 54.5023 78C46.3709 78 39.7465 75.4019 34.6291 70.2057L34.6605 70.269Z" fill="#0B3954"/>
<path d="M92.2757 70.115C86.7586 64.8583 84 57.9233 84 49.3417C84 40.76 86.7276 33.8883 92.2137 28.7267C97.6998 23.565 104.457 21 112.546 21C120.636 21 127.393 23.5967 132.848 28.7267C138.303 33.8883 141 40.76 141 49.3417C141 57.9233 138.303 64.8583 132.879 70.115C127.455 75.3717 120.729 78 112.639 78C104.55 78 97.7618 75.3717 92.2447 70.115H92.2757ZM120.667 59.8233C122.868 57.4167 123.984 53.965 123.984 49.4367C123.984 44.9083 122.837 41.4567 120.574 39.1133C118.281 36.7383 115.584 35.5667 112.454 35.5667C109.323 35.5667 106.626 36.7383 104.395 39.1133C102.132 41.4883 101.016 44.94 101.016 49.4367C101.016 53.9333 102.163 57.4167 104.488 59.8233C106.812 62.23 109.509 63.4333 112.639 63.4333C115.77 63.4333 118.436 62.23 120.667 59.8233Z" fill="#0B3954"/>
<path d="M169.622 21.5767V29.4384C173.046 23.8229 178.535 21 186.06 21C192.29 21 197.316 23.0337 201.202 27.1315C205.057 31.2293 207 36.7841 207 43.796V75H190.47V45.9815C190.47 42.5211 189.545 39.8803 187.694 37.9983C185.844 36.1164 183.284 35.1754 180.046 35.1754C176.808 35.1754 174.248 36.1164 172.398 37.9983C170.548 39.8803 169.622 42.5514 169.622 45.9815V75H153V21.5767H169.622V21.5767Z" fill="#0B3954"/>
<path d="M236.967 16.9281C234.933 18.8297 232.433 19.765 229.5 19.765C226.567 19.765 224.067 18.8297 222.033 16.9281C220 15.0264 219 12.6883 219 9.8825C219 7.07674 220 4.7386 222.033 2.83692C224.067 0.935245 226.567 0 229.5 0C232.433 0 234.933 0.935245 236.967 2.83692C239 4.7386 240 7.07674 240 9.8825C240 12.6883 238.967 15.0264 236.967 16.9281ZM220.567 78V23.1319H238.533V78H220.567Z" fill="#0B3954"/>
<path d="M253.66 70.269C248.543 65.0728 246 58.134 246 49.4842C246 40.8343 248.543 33.8955 253.66 28.731C258.778 23.5664 265.402 21 273.534 21C280.252 21 285.966 22.6793 290.676 26.0378C295.354 29.3963 298.462 34.2123 300 40.4858H281.665C280.095 37.159 277.49 35.4797 273.879 35.4797C270.269 35.4797 267.6 36.7788 265.842 39.3135C264.084 41.8799 263.205 45.2702 263.205 49.4525C263.205 53.6348 264.084 57.025 265.842 59.5914C267.6 62.1579 270.143 63.4252 273.502 63.4252C275.606 63.4252 277.27 63.045 278.463 62.3163C279.656 61.5875 280.692 60.2885 281.634 58.4191H299.969C298.462 64.4074 295.322 69.1918 290.55 72.7087C285.809 76.2574 280.127 78 273.502 78C265.371 78 258.747 75.4019 253.629 70.2057L253.66 70.269Z" fill="#0B3954"/>
<path d="M69 102V117H65.7751V108.529L62.6982 117H60.3018L57.2249 108.529V117H54V102H57.6982L61.5148 112.346L65.3018 102H69V102Z" fill="#0B3954"/>
<path d="M90 102.033V104.8H84.6199V108H89.369V110.767H84.6199V114.233H90V117H81V102H90V102.033Z" fill="#0B3954"/>
<path d="M110.738 102H114V117H110.738L105.262 107.567V117H102V102H105.262L110.738 111.433V102Z" fill="#0B3954"/>
<path d="M131.769 104.757C131.27 104.757 130.878 104.888 130.558 105.118C130.237 105.348 130.095 105.709 130.095 106.136C130.095 106.562 130.237 106.956 130.522 107.219C130.807 107.481 131.199 107.711 131.662 107.842C132.125 108.007 132.623 108.138 133.193 108.269C133.763 108.4 134.332 108.565 134.902 108.761C135.472 108.958 135.97 109.188 136.433 109.451C136.896 109.746 137.288 110.14 137.573 110.632C137.858 111.158 138 111.748 138 112.47C138 113.718 137.466 114.768 136.362 115.654C135.258 116.54 133.798 117 132.018 117C130.237 117 128.777 116.606 127.674 115.818C126.57 115.031 126.036 113.882 126.036 112.438H130.166C130.273 113.619 130.914 114.21 132.125 114.21C132.694 114.21 133.122 114.079 133.442 113.816C133.763 113.554 133.905 113.193 133.905 112.766C133.905 112.339 133.763 112.011 133.478 111.748C133.193 111.486 132.801 111.289 132.338 111.125C131.875 110.961 131.377 110.829 130.807 110.698C130.237 110.567 129.668 110.403 129.098 110.206C128.528 110.009 128.03 109.779 127.567 109.516C127.104 109.254 126.712 108.86 126.427 108.335C126.142 107.81 126 107.219 126 106.53C126 105.151 126.57 104.068 127.674 103.247C128.777 102.427 130.202 102 131.911 102C133.62 102 135.009 102.361 136.077 103.083C137.145 103.805 137.68 104.954 137.751 106.497H133.513C133.442 105.972 133.264 105.545 132.944 105.282C132.623 104.987 132.231 104.856 131.733 104.856L131.769 104.757Z" fill="#0B3954"/>
<path d="M164.24 102H168L164.017 117H160.033L157.516 107.491L155.03 117H151.047L147 102H150.728L153.214 112.781L155.763 102H159.715L162.168 112.614L164.272 102H164.24Z" fill="#0B3954"/>
<path d="M189 102.033V104.8H183.62V108H188.369V110.767H183.62V114.233H189V117H180V102H189V102.033Z" fill="#0B3954"/>
<path d="M209.047 117L208.203 114.5H202.763L201.919 117H198L203.27 102H207.764L213 117H209.047ZM203.709 111.733H207.291L205.5 106.4L203.709 111.733Z" fill="#0B3954"/>
<path d="M225.737 111.174V117H222V102H228.069C229.851 102 231.223 102.435 232.217 103.339C233.211 104.243 233.691 105.315 233.691 106.587C233.691 107.458 233.417 108.295 232.869 109.132C232.32 109.969 231.429 110.538 230.229 110.873L234 117H229.611L226.149 111.174H225.703H225.737ZM225.737 104.779V108.395H228.069C228.651 108.395 229.097 108.228 229.406 107.893C229.749 107.558 229.886 107.123 229.886 106.587C229.886 106.051 229.714 105.616 229.371 105.281C229.029 104.946 228.583 104.779 228.034 104.779H225.703H225.737Z" fill="#0B3954"/>
</svg>
