<svg width="44" height="32" viewBox="0 0 44 32" fill="none" xmlns="http://www.w3.org/2000/svg">
<mask id="path-1-inside-1_1_1861" fill="white">
<path d="M0 4.00489C0 1.79575 1.79086 0.00488281 4 0.00488281H40C42.2091 0.00488281 44 1.79574 44 4.00488V27.4249C44 29.634 42.2091 31.4249 40 31.4249H4C1.79086 31.4249 0 29.634 0 27.4249V4.00489Z"/>
</mask>
<path d="M4 0.00488281V2.00488H40V0.00488281V-1.99512H4V0.00488281ZM44 4.00488H42V27.4249H44H46V4.00488H44ZM40 31.4249V29.4249H4V31.4249V33.4249H40V31.4249ZM0 27.4249H2V4.00489H0H-2V27.4249H0ZM4 31.4249V29.4249C2.89543 29.4249 2 28.5295 2 27.4249H0H-2C-2 30.7386 0.68629 33.4249 4 33.4249V31.4249ZM44 27.4249H42C42 28.5295 41.1046 29.4249 40 29.4249V31.4249V33.4249C43.3137 33.4249 46 30.7386 46 27.4249H44ZM40 0.00488281V2.00488C41.1046 2.00488 42 2.90031 42 4.00488H44H46C46 0.691175 43.3137 -1.99512 40 -1.99512V0.00488281ZM4 0.00488281V-1.99512C0.68629 -1.99512 -2 0.691179 -2 4.00489H0H2C2 2.90031 2.89543 2.00488 4 2.00488V0.00488281Z" fill="#D9D9D9" mask="url(#path-1-inside-1_1_1861)"/>
<g clip-path="url(#clip0_1_1861)">
<g clip-path="url(#clip1_1_1861)">
<path fill-rule="evenodd" clip-rule="evenodd" d="M14.1432 20.5814H11.7199L9.90277 13.649C9.81653 13.3301 9.63339 13.0482 9.36401 12.9153C8.69175 12.5814 7.95096 12.3156 7.14282 12.1816V11.9147H11.0464C11.5852 11.9147 11.9893 12.3156 12.0566 12.7813L12.9994 17.7818L15.4215 11.9147H17.7773L14.1432 20.5814ZM19.1243 20.5814H16.8357L18.7202 11.9147H21.0088L19.1243 20.5814ZM23.9696 14.3156C24.0369 13.8489 24.441 13.5819 24.9123 13.5819C25.6531 13.515 26.4601 13.649 27.1336 13.9817L27.5376 12.1158C26.8642 11.8489 26.1234 11.7148 25.4512 11.7148C23.2299 11.7148 21.6137 12.9153 21.6137 14.5814C21.6137 15.8489 22.7585 16.5144 23.5666 16.9153C24.441 17.3151 24.7777 17.582 24.7104 17.9817C24.7104 18.5814 24.0369 18.8483 23.3647 18.8483C22.5564 18.8483 21.7483 18.6484 21.0088 18.3145L20.6047 20.1817C21.4128 20.5144 22.2871 20.6484 23.0953 20.6484C25.5858 20.7143 27.1336 19.515 27.1336 17.7148C27.1336 15.448 23.9696 15.3151 23.9696 14.3156ZM35.1428 20.5814L33.3257 11.9147H31.3739C30.9698 11.9147 30.5658 12.1816 30.4311 12.5814L27.0661 20.5814H29.422L29.8923 19.3151H32.7869L33.0563 20.5814H35.1428ZM31.7106 14.2487L32.3828 17.515H30.4984L31.7106 14.2487Z" fill="#172B85"/>
</g>
</g>
<defs>
<clipPath id="clip0_1_1861">
<rect width="40" height="27.42" fill="white" transform="translate(2 2.00488)"/>
</clipPath>
<clipPath id="clip1_1_1861">
<rect width="40" height="27.42" fill="white" transform="translate(2 2.00488)"/>
</clipPath>
</defs>
</svg>
