<svg width="44" height="32" viewBox="0 0 44 32" fill="none" xmlns="http://www.w3.org/2000/svg">
<mask id="path-1-inside-1_1_1877" fill="white">
<path d="M0 4.00489C0 1.79575 1.79086 0.00488281 4 0.00488281H40C42.2091 0.00488281 44 1.79574 44 4.00488V27.4249C44 29.634 42.2091 31.4249 40 31.4249H4C1.79086 31.4249 0 29.634 0 27.4249V4.00489Z"/>
</mask>
<path d="M4 0.00488281V2.00488H40V0.00488281V-1.99512H4V0.00488281ZM44 4.00488H42V27.4249H44H46V4.00488H44ZM40 31.4249V29.4249H4V31.4249V33.4249H40V31.4249ZM0 27.4249H2V4.00489H0H-2V27.4249H0ZM4 31.4249V29.4249C2.89543 29.4249 2 28.5295 2 27.4249H0H-2C-2 30.7386 0.68629 33.4249 4 33.4249V31.4249ZM44 27.4249H42C42 28.5295 41.1046 29.4249 40 29.4249V31.4249V33.4249C43.3137 33.4249 46 30.7386 46 27.4249H44ZM40 0.00488281V2.00488C41.1046 2.00488 42 2.90031 42 4.00488H44H46C46 0.691175 43.3137 -1.99512 40 -1.99512V0.00488281ZM4 0.00488281V-1.99512C0.68629 -1.99512 -2 0.691179 -2 4.00489H0H2C2 2.90031 2.89543 2.00488 4 2.00488V0.00488281Z" fill="#D9D9D9" mask="url(#path-1-inside-1_1_1877)"/>
<g clip-path="url(#clip0_1_1877)">
<g clip-path="url(#clip1_1_1877)">
<path fill-rule="evenodd" clip-rule="evenodd" d="M13.3143 19.4185H11.5364C11.4148 19.4185 11.3113 19.5069 11.2923 19.627L10.5733 24.1859C10.559 24.2759 10.6287 24.357 10.7199 24.357H11.5687C11.6903 24.357 11.7938 24.2685 11.8128 24.1483L12.0067 22.9187C12.0254 22.7982 12.1291 22.7099 12.2505 22.7099H12.8133C13.9844 22.7099 14.6603 22.1433 14.8369 21.0202C14.9164 20.5289 14.8403 20.1428 14.6102 19.8724C14.3576 19.5756 13.9092 19.4185 13.3143 19.4185ZM13.5194 21.0836C13.4222 21.7215 12.9347 21.7215 12.4634 21.7215H12.1952L12.3834 20.5301C12.3946 20.4581 12.4569 20.4051 12.5297 20.4051H12.6527C12.9737 20.4051 13.2766 20.4051 13.4331 20.5881C13.5264 20.6973 13.555 20.8595 13.5194 21.0836ZM18.6287 21.0631H17.7774C17.7048 21.0631 17.6422 21.1162 17.631 21.1883L17.5932 21.4263L17.5337 21.3401C17.3495 21.0725 16.9385 20.9831 16.5282 20.9831C15.5874 20.9831 14.7839 21.6957 14.6274 22.6953C14.546 23.1938 14.6617 23.6706 14.9444 24.003C15.204 24.3087 15.5752 24.4362 16.0168 24.4362C16.7748 24.4362 17.1953 23.9486 17.1953 23.9486L17.1572 24.1853C17.143 24.2758 17.2127 24.3569 17.3033 24.3569H18.0703C18.1922 24.3569 18.2951 24.2684 18.3144 24.1482L18.7745 21.2342C18.789 21.1446 18.7196 21.0631 18.6287 21.0631ZM17.4419 22.7202C17.3598 23.2066 16.9737 23.5331 16.4815 23.5331C16.2343 23.5331 16.0366 23.4538 15.9098 23.3035C15.784 23.1543 15.7361 22.9419 15.7761 22.7053C15.8529 22.223 16.2454 21.886 16.7303 21.886C16.9719 21.886 17.1684 21.9662 17.2979 22.1178C17.4276 22.2709 17.4791 22.4846 17.4419 22.7202ZM22.3074 21.063H23.163C23.2827 21.063 23.3527 21.1974 23.2846 21.2957L20.4391 25.403C20.393 25.4695 20.3171 25.5091 20.236 25.5091H19.3816C19.2612 25.5091 19.191 25.3737 19.2607 25.2751L20.1466 24.0245L19.2043 21.259C19.1718 21.1629 19.2427 21.063 19.345 21.063H20.1856C20.2948 21.063 20.3912 21.1347 20.4227 21.2393L20.9228 22.9095L22.1028 21.1714C22.149 21.1036 22.2258 21.063 22.3074 21.063Z" fill="#253B80"/>
<path fill-rule="evenodd" clip-rule="evenodd" d="M31.5835 24.1861L32.3131 19.5438C32.3243 19.4717 32.3867 19.4187 32.4592 19.4185H33.2806C33.3713 19.4185 33.4409 19.4998 33.4267 19.5898L32.7071 24.1485C32.6884 24.2687 32.5849 24.3572 32.463 24.3572H31.7294C31.6388 24.3572 31.5691 24.2761 31.5835 24.1861ZM25.9956 19.4187H24.2174C24.096 19.4187 23.9925 19.5071 23.9735 19.6271L23.2544 24.1861C23.2401 24.2761 23.3099 24.3572 23.4006 24.3572H24.3131C24.3979 24.3572 24.4703 24.2954 24.4836 24.2111L24.6876 22.9189C24.7064 22.7985 24.8101 22.7101 24.9315 22.7101H25.494C26.6654 22.7101 27.3411 22.1434 27.5179 21.0204C27.5976 20.5291 27.5209 20.143 27.2909 19.8726C27.0384 19.5758 26.5905 19.4187 25.9956 19.4187ZM26.2006 21.0838C26.1037 21.7218 25.6163 21.7218 25.1446 21.7218H24.8766L25.0652 20.5303C25.0764 20.4583 25.1382 20.4053 25.2112 20.4053H25.3341C25.655 20.4053 25.9581 20.4053 26.1145 20.5883C26.2079 20.6975 26.2363 20.8597 26.2006 21.0838ZM31.3095 21.0634H30.4587C30.3855 21.0634 30.3235 21.1164 30.3125 21.1885L30.2749 21.4266L30.2151 21.3403C30.0308 21.0727 29.6201 20.9834 29.2099 20.9834C28.2689 20.9834 27.4657 21.6959 27.3092 22.6955C27.2281 23.194 27.3432 23.6708 27.6261 24.0033C27.8861 24.309 28.2568 24.4364 28.6984 24.4364C29.4565 24.4364 29.8768 23.9489 29.8768 23.9489L29.8389 24.1855C29.8246 24.2759 29.8943 24.3571 29.9855 24.3571H30.7521C30.8735 24.3571 30.9769 24.2686 30.996 24.1484L31.4564 21.2345C31.4704 21.1447 31.4008 21.0634 31.3095 21.0634ZM30.1229 22.7204C30.0412 23.2068 29.6547 23.5332 29.1622 23.5332C28.9155 23.5332 28.7175 23.454 28.5905 23.3037C28.4647 23.1546 28.4174 22.9421 28.4571 22.7055C28.5341 22.2233 28.9262 21.8862 29.411 21.8862C29.6528 21.8862 29.8493 21.9665 29.9789 22.118C30.1089 22.2711 30.1605 22.4849 30.1229 22.7204Z" fill="#179BD7"/>
<path d="M19.8937 17.7877L20.1123 16.3994L19.6255 16.3881H17.3007L18.9162 6.14374C18.9212 6.1128 18.9376 6.08397 18.9613 6.0635C18.9852 6.04302 19.0157 6.03174 19.0475 6.03174H22.9675C24.2689 6.03174 25.1669 6.30254 25.6359 6.83705C25.8557 7.08781 25.9957 7.34984 26.0635 7.6382C26.1345 7.94078 26.1357 8.30228 26.0664 8.74318L26.0613 8.77535V9.05785L26.2812 9.1824C26.4664 9.28061 26.6133 9.39303 26.7261 9.52175C26.9144 9.73614 27.036 10.0086 27.0874 10.3317C27.1404 10.6639 27.1228 11.0593 27.036 11.5068C26.9356 12.0217 26.7735 12.4701 26.5545 12.8371C26.353 13.1752 26.0964 13.4555 25.7919 13.6729C25.5009 13.8794 25.1553 14.0361 24.7645 14.1364C24.3859 14.2349 23.9543 14.2848 23.4808 14.2848H23.1756C22.9576 14.2848 22.7456 14.3633 22.5793 14.5042C22.4125 14.648 22.3021 14.8443 22.2683 15.0592L22.2453 15.1842L21.8592 17.6309L21.8416 17.7208C21.837 17.7493 21.8291 17.7635 21.8175 17.7731C21.8069 17.7818 21.792 17.7877 21.7772 17.7877H19.8937Z" fill="#253B80"/>
<path d="M26.4894 8.80811C26.4778 8.88291 26.4644 8.95939 26.4493 9.03795C25.9323 11.6921 24.1637 12.6091 21.9048 12.6091H20.7548C20.4786 12.6091 20.2458 12.8096 20.2027 13.0821L19.6139 16.8167L19.4471 17.8752C19.419 18.054 19.5571 18.2154 19.7375 18.2154H21.7774C22.019 18.2154 22.2242 18.0399 22.2621 17.8017L22.2822 17.698L22.6663 15.2607L22.691 15.1271C22.7285 14.888 22.9341 14.7124 23.1757 14.7124H23.4808C25.4571 14.7124 27.0043 13.91 27.4565 11.5881C27.6454 10.6181 27.5476 9.80817 27.0477 9.23855C26.8965 9.06678 26.7088 8.92428 26.4894 8.80811Z" fill="#179BD7"/>
<path d="M25.9483 8.59277C25.8695 8.56979 25.7879 8.54888 25.7042 8.53008C25.6203 8.51171 25.5342 8.4954 25.4456 8.48119C25.1355 8.43104 24.7958 8.40723 24.4318 8.40723H21.3592C21.2835 8.40723 21.2118 8.42436 21.1474 8.45528C21.0057 8.5234 20.9004 8.65756 20.8748 8.82179L20.2211 12.9617L20.2024 13.0824C20.2455 12.81 20.4783 12.6094 20.7545 12.6094H21.9046C24.1634 12.6094 25.9321 11.692 26.449 9.03828C26.4645 8.95971 26.4775 8.88323 26.4891 8.80843C26.3584 8.73904 26.2167 8.67971 26.0641 8.62912C26.0265 8.6166 25.9876 8.60448 25.9483 8.59277Z" fill="#222D65"/>
<path d="M20.875 8.82155C20.9005 8.6573 21.0058 8.52315 21.1474 8.45544C21.2122 8.42452 21.2838 8.40739 21.3593 8.40739H24.4319C24.7959 8.40739 25.1357 8.4312 25.4456 8.48135C25.5343 8.49556 25.6205 8.51187 25.7045 8.53024C25.788 8.54907 25.8695 8.56996 25.9485 8.59294C25.9878 8.60464 26.0266 8.61676 26.0646 8.62888C26.2171 8.67944 26.3589 8.73922 26.4896 8.80816C26.6435 7.82732 26.4885 7.15949 25.9582 6.55476C25.3735 5.88902 24.3182 5.604 22.9679 5.604H19.0478C18.772 5.604 18.5368 5.8046 18.494 6.0775L16.8614 16.4272C16.8291 16.632 16.9871 16.8168 17.1935 16.8168H19.6137L20.2214 12.9614L20.875 8.82155Z" fill="#253B80"/>
</g>
</g>
<defs>
<clipPath id="clip0_1_1877">
<rect width="40" height="27.42" fill="white" transform="translate(2 2.00488)"/>
</clipPath>
<clipPath id="clip1_1_1877">
<rect width="40" height="27.42" fill="white" transform="translate(2 2.00488)"/>
</clipPath>
</defs>
</svg>
