<svg width="44" height="32" viewBox="0 0 44 32" fill="none" xmlns="http://www.w3.org/2000/svg">
<mask id="path-1-inside-1_1_1888" fill="white">
<path d="M0 4.00489C0 1.79575 1.79086 0.00488281 4 0.00488281H40C42.2091 0.00488281 44 1.79574 44 4.00488V27.4249C44 29.634 42.2091 31.4249 40 31.4249H4C1.79086 31.4249 0 29.634 0 27.4249V4.00489Z"/>
</mask>
<path d="M4 0.00488281V2.00488H40V0.00488281V-1.99512H4V0.00488281ZM44 4.00488H42V27.4249H44H46V4.00488H44ZM40 31.4249V29.4249H4V31.4249V33.4249H40V31.4249ZM0 27.4249H2V4.00489H0H-2V27.4249H0ZM4 31.4249V29.4249C2.89543 29.4249 2 28.5295 2 27.4249H0H-2C-2 30.7386 0.68629 33.4249 4 33.4249V31.4249ZM44 27.4249H42C42 28.5295 41.1046 29.4249 40 29.4249V31.4249V33.4249C43.3137 33.4249 46 30.7386 46 27.4249H44ZM40 0.00488281V2.00488C41.1046 2.00488 42 2.90031 42 4.00488H44H46C46 0.691175 43.3137 -1.99512 40 -1.99512V0.00488281ZM4 0.00488281V-1.99512C0.68629 -1.99512 -2 0.691179 -2 4.00489H0H2C2 2.90031 2.89543 2.00488 4 2.00488V0.00488281Z" fill="#D9D9D9" mask="url(#path-1-inside-1_1_1888)"/>
<g clip-path="url(#clip0_1_1888)">
<g clip-path="url(#clip1_1_1888)">
<path fill-rule="evenodd" clip-rule="evenodd" d="M20.8915 20.0099V16.5573H22.6734C23.4036 16.5573 24.02 16.3127 24.5224 15.8301L24.6429 15.7078C25.5606 14.7087 25.5004 13.1524 24.5224 12.2281C24.0333 11.7388 23.3635 11.4737 22.6734 11.4873H19.813V20.0099H20.8915ZM20.8917 15.5107V12.534H22.7006C23.0892 12.534 23.4578 12.6835 23.7324 12.9553C24.3154 13.5262 24.3288 14.4777 23.766 15.069C23.4913 15.3612 23.1027 15.5243 22.7006 15.5107H20.8917ZM29.6739 14.634C29.2116 14.2059 28.5819 13.9884 27.7848 13.9884C26.7598 13.9884 25.9894 14.369 25.4803 15.1234L26.4316 15.7282C26.78 15.2117 27.2556 14.9534 27.8585 14.9534C28.2403 14.9534 28.6088 15.0962 28.8968 15.3545C29.1781 15.5991 29.3389 15.9525 29.3389 16.3263V16.5778C28.9236 16.3467 28.4011 16.2244 27.758 16.2244C27.0077 16.2244 26.4048 16.4011 25.956 16.7612C25.5072 17.1214 25.2794 17.5972 25.2794 18.2021C25.266 18.7526 25.5004 19.2759 25.9157 19.6293C26.3378 20.0099 26.8737 20.2002 27.5034 20.2002C28.247 20.2002 28.8365 19.8671 29.2853 19.2011H29.3322V20.0099H30.3638V16.4147C30.3638 15.6603 30.1361 15.0622 29.6739 14.634ZM26.7466 18.9361C26.5256 18.773 26.3915 18.5078 26.3915 18.2225C26.3915 17.903 26.5389 17.638 26.827 17.4273C27.1218 17.2166 27.4904 17.1078 27.9258 17.1078C28.5289 17.1011 28.9978 17.237 29.3329 17.5089C29.3329 17.9709 29.152 18.3719 28.7969 18.7117C28.4753 19.038 28.0397 19.2214 27.5842 19.2214C27.2826 19.2283 26.9878 19.1263 26.7466 18.9361ZM32.6817 22.5721L36.2857 14.1787H35.1134L33.4453 18.3652H33.4253L31.7171 14.1787H30.5448L32.9094 19.6361L31.5697 22.5721H32.6817Z" fill="#3C4043"/>
<path d="M17.1681 15.8097C17.1681 15.4767 17.1414 15.1437 17.0878 14.8174H12.5392V16.7H15.145C15.0379 17.3049 14.6896 17.8486 14.1804 18.1884V19.4117H15.7346C16.6456 18.5622 17.1681 17.3049 17.1681 15.8097Z" fill="#4285F4"/>
<path d="M12.5395 20.5941C13.839 20.5941 14.9377 20.1591 15.7348 19.4115L14.1807 18.1882C13.7453 18.4872 13.1893 18.6571 12.5395 18.6571C11.2801 18.6571 10.2149 17.794 9.83311 16.6387H8.23206V17.9028C9.04932 19.5542 10.7174 20.5941 12.5395 20.5941Z" fill="#34A853"/>
<path d="M9.8331 16.639C9.63211 16.0341 9.63211 15.3749 9.8331 14.7632V13.5059H8.23181C7.54171 14.8855 7.54171 16.5166 8.23181 17.8963L9.8331 16.639Z" fill="#FBBC04"/>
<path d="M12.5395 12.7444C13.2295 12.7308 13.8926 12.9958 14.3884 13.4783L15.7684 12.0783C14.8908 11.2492 13.7386 10.7938 12.5395 10.8074C10.7174 10.8074 9.04932 11.8541 8.23206 13.5055L9.83311 14.7696C10.2149 13.6075 11.2801 12.7444 12.5395 12.7444Z" fill="#EA4335"/>
</g>
</g>
<defs>
<clipPath id="clip0_1_1888">
<rect width="40" height="27.42" fill="white" transform="translate(2 2.00488)"/>
</clipPath>
<clipPath id="clip1_1_1888">
<rect width="40" height="27.42" fill="white" transform="translate(2 2.00488)"/>
</clipPath>
</defs>
</svg>
