<svg width="44" height="32" viewBox="0 0 44 32" fill="none" xmlns="http://www.w3.org/2000/svg">
<mask id="path-1-inside-1_1_1898" fill="white">
<path d="M0 4.00489C0 1.79575 1.79086 0.00488281 4 0.00488281H40C42.2091 0.00488281 44 1.79574 44 4.00488V27.4249C44 29.634 42.2091 31.4249 40 31.4249H4C1.79086 31.4249 0 29.634 0 27.4249V4.00489Z"/>
</mask>
<path d="M4 0.00488281V2.00488H40V0.00488281V-1.99512H4V0.00488281ZM44 4.00488H42V27.4249H44H46V4.00488H44ZM40 31.4249V29.4249H4V31.4249V33.4249H40V31.4249ZM0 27.4249H2V4.00489H0H-2V27.4249H0ZM4 31.4249V29.4249C2.89543 29.4249 2 28.5295 2 27.4249H0H-2C-2 30.7386 0.68629 33.4249 4 33.4249V31.4249ZM44 27.4249H42C42 28.5295 41.1046 29.4249 40 29.4249V31.4249V33.4249C43.3137 33.4249 46 30.7386 46 27.4249H44ZM40 0.00488281V2.00488C41.1046 2.00488 42 2.90031 42 4.00488H44H46C46 0.691175 43.3137 -1.99512 40 -1.99512V0.00488281ZM4 0.00488281V-1.99512C0.68629 -1.99512 -2 0.691179 -2 4.00489H0H2C2 2.90031 2.89543 2.00488 4 2.00488V0.00488281Z" fill="#D9D9D9" mask="url(#path-1-inside-1_1_1898)"/>
<g clip-path="url(#clip0_1_1898)">
<g clip-path="url(#clip1_1_1898)">
<path fill-rule="evenodd" clip-rule="evenodd" d="M11.5385 12.2096C12.0757 12.2549 12.6128 11.9377 12.9486 11.5355C13.2787 11.122 13.497 10.5669 13.441 10.0005C12.9654 10.0232 12.3778 10.3177 12.0421 10.7312C11.7343 11.088 11.4713 11.6658 11.5385 12.2096ZM17.9287 19.5053V10.6746H21.2023C22.8922 10.6746 24.0729 11.8527 24.0729 13.5747C24.0729 15.2967 22.8698 16.4862 21.1575 16.4862H19.2829V19.5053H17.9287ZM13.4354 12.3172C12.9621 12.2896 12.5303 12.4613 12.1815 12.5999C11.957 12.6891 11.767 12.7647 11.6224 12.7647C11.4601 12.7647 11.2622 12.6851 11.0399 12.5957C10.7488 12.4786 10.4159 12.3448 10.0667 12.3512C9.26657 12.3625 8.52234 12.8213 8.11385 13.552C7.27449 15.0134 7.89561 17.1772 8.70699 18.3668C9.10429 18.9558 9.57993 19.6015 10.2066 19.5789C10.4824 19.5684 10.6807 19.4832 10.886 19.395C11.1223 19.2935 11.3678 19.188 11.7511 19.188C12.1211 19.188 12.3558 19.2908 12.5812 19.3893C12.7954 19.4831 13.0012 19.5731 13.3067 19.5676C13.9558 19.5563 14.3643 18.9784 14.7615 18.3894C15.1903 17.7572 15.3787 17.14 15.4073 17.0464L15.4107 17.0356C15.41 17.0349 15.4046 17.0325 15.3954 17.0281C15.2521 16.9617 14.1565 16.4541 14.146 15.0927C14.1355 13.9501 15.0149 13.3712 15.1534 13.2801C15.1618 13.2745 15.1675 13.2708 15.17 13.2688C14.6105 12.4305 13.7375 12.3399 13.4354 12.3172ZM26.5462 19.5732C27.3969 19.5732 28.1858 19.1371 28.5439 18.446H28.5719V19.5052H29.8253V15.1097C29.8253 13.8352 28.8181 13.0139 27.2681 13.0139C25.83 13.0139 24.7668 13.8465 24.7276 14.9908H25.9475C26.0483 14.447 26.5462 14.0901 27.229 14.0901C28.0571 14.0901 28.5215 14.4809 28.5215 15.2004V15.6875L26.8316 15.7894C25.2593 15.8857 24.4087 16.5371 24.4087 17.67C24.4087 18.8142 25.2873 19.5732 26.5462 19.5732ZM26.9099 18.5253C26.1881 18.5253 25.7292 18.1741 25.7292 17.636C25.7292 17.0809 26.1713 16.7581 27.0163 16.7071L28.5214 16.6108V17.1093C28.5214 17.9363 27.8276 18.5253 26.9099 18.5253ZM33.9829 19.8508C33.4402 21.3972 32.819 21.9069 31.4985 21.9069C31.3978 21.9069 31.062 21.8956 30.9836 21.8729V20.8137C31.0676 20.8251 31.2746 20.8364 31.381 20.8364C31.9797 20.8364 32.3154 20.5815 32.5225 19.9188L32.6455 19.5279L30.3514 13.0989H31.767L33.3618 18.3157H33.3898L34.9846 13.0989H36.3611L33.9829 19.8508ZM19.2828 11.8301H20.8441C22.0191 11.8301 22.6907 12.4645 22.6907 13.5804C22.6907 14.6963 22.0191 15.3363 20.8385 15.3363H19.2828V11.8301Z" fill="black"/>
</g>
</g>
<defs>
<clipPath id="clip0_1_1898">
<rect width="40" height="27.42" fill="white" transform="translate(2 2.00488)"/>
</clipPath>
<clipPath id="clip1_1_1898">
<rect width="40" height="27.42" fill="white" transform="translate(2 2.00488)"/>
</clipPath>
</defs>
</svg>
