<svg width="44" height="32" viewBox="0 0 44 32" fill="none" xmlns="http://www.w3.org/2000/svg">
<mask id="path-1-inside-1_1_1868" fill="white">
<path d="M0 4.00489C0 1.79575 1.79086 0.00488281 4 0.00488281H40C42.2091 0.00488281 44 1.79574 44 4.00488V27.4249C44 29.634 42.2091 31.4249 40 31.4249H4C1.79086 31.4249 0 29.634 0 27.4249V4.00489Z"/>
</mask>
<path d="M4 0.00488281V2.00488H40V0.00488281V-1.99512H4V0.00488281ZM44 4.00488H42V27.4249H44H46V4.00488H44ZM40 31.4249V29.4249H4V31.4249V33.4249H40V31.4249ZM0 27.4249H2V4.00489H0H-2V27.4249H0ZM4 31.4249V29.4249C2.89543 29.4249 2 28.5295 2 27.4249H0H-2C-2 30.7386 0.68629 33.4249 4 33.4249V31.4249ZM44 27.4249H42C42 28.5295 41.1046 29.4249 40 29.4249V31.4249V33.4249C43.3137 33.4249 46 30.7386 46 27.4249H44ZM40 0.00488281V2.00488C41.1046 2.00488 42 2.90031 42 4.00488H44H46C46 0.691175 43.3137 -1.99512 40 -1.99512V0.00488281ZM4 0.00488281V-1.99512C0.68629 -1.99512 -2 0.691179 -2 4.00489H0H2C2 2.90031 2.89543 2.00488 4 2.00488V0.00488281Z" fill="#D9D9D9" mask="url(#path-1-inside-1_1_1868)"/>
<g clip-path="url(#clip0_1_1868)">
<g clip-path="url(#clip1_1_1868)">
<path fill-rule="evenodd" clip-rule="evenodd" d="M22.2856 21.6084C20.9238 22.7836 19.1574 23.4931 17.2271 23.4931C12.92 23.4931 9.42847 19.961 9.42847 15.604C9.42847 11.2469 12.92 7.71484 17.2271 7.71484C19.1574 7.71484 20.9238 8.42427 22.2856 9.59945C23.6474 8.42427 25.4138 7.71484 27.3441 7.71484C31.6512 7.71484 35.1428 11.2469 35.1428 15.604C35.1428 19.961 31.6512 23.4931 27.3441 23.4931C25.4138 23.4931 23.6474 22.7836 22.2856 21.6084Z" fill="#ED0006"/>
<path fill-rule="evenodd" clip-rule="evenodd" d="M22.2856 21.6084C23.9624 20.1615 25.0256 18.0083 25.0256 15.604C25.0256 13.1996 23.9624 11.0465 22.2856 9.59945C23.6475 8.42427 25.4139 7.71484 27.3442 7.71484C31.6512 7.71484 35.1428 11.2469 35.1428 15.604C35.1428 19.961 31.6512 23.4931 27.3442 23.4931C25.4139 23.4931 23.6475 22.7836 22.2856 21.6084Z" fill="#F9A000"/>
<path fill-rule="evenodd" clip-rule="evenodd" d="M22.2857 9.59961C23.9625 11.0466 25.0258 13.1998 25.0258 15.6041C25.0258 18.0085 23.9625 20.1616 22.2857 21.6086C20.609 20.1616 19.5457 18.0085 19.5457 15.6041C19.5457 13.1998 20.609 11.0466 22.2857 9.59961Z" fill="#FBBC04"/>
</g>
</g>
<defs>
<clipPath id="clip0_1_1868">
<rect width="40" height="27.42" fill="white" transform="translate(2 2.00488)"/>
</clipPath>
<clipPath id="clip1_1_1868">
<rect width="40" height="27.42" fill="white" transform="translate(2 2.00488)"/>
</clipPath>
</defs>
</svg>
