<svg width="210" height="210" viewBox="0 0 210 210" fill="none" xmlns="http://www.w3.org/2000/svg">
<path d="M124.625 32.7401C124.625 34.5634 125.349 36.3121 126.639 37.6014C127.928 38.8907 129.677 39.6151 131.5 39.6151C133.323 39.6151 135.072 38.8907 136.361 37.6014C137.651 36.3121 138.375 34.5634 138.375 32.7401V7.59131C138.375 5.76795 137.651 4.01926 136.361 2.72995C135.072 1.44064 133.323 0.716309 131.5 0.716309C129.677 0.716309 127.928 1.44064 126.639 2.72995C125.349 4.01926 124.625 5.76795 124.625 7.59131V32.7401ZM186.5 33.2213C187.752 31.9247 188.445 30.188 188.43 28.3854C188.414 26.5828 187.691 24.8585 186.416 23.5838C185.142 22.3091 183.417 21.5861 181.615 21.5704C179.812 21.5548 178.075 22.2477 176.779 23.5001L159 41.2788C158.343 41.913 157.82 42.6716 157.459 43.5104C157.099 44.3492 156.909 45.2513 156.901 46.1642C156.894 47.077 157.067 47.9823 157.413 48.8272C157.759 49.6722 158.269 50.4398 158.915 51.0853C159.56 51.7308 160.328 52.2413 161.173 52.587C162.018 52.9326 162.923 53.1066 163.836 53.0987C164.749 53.0907 165.651 52.9011 166.49 52.5408C167.328 52.1804 168.087 51.6567 168.721 51.0001L186.5 33.2213ZM94.2788 51.0001C94.913 51.6567 95.6716 52.1804 96.5104 52.5408C97.3492 52.9011 98.2513 53.0907 99.1642 53.0987C100.077 53.1066 100.982 52.9326 101.827 52.587C102.672 52.2413 103.44 51.7308 104.085 51.0853C104.731 50.4398 105.241 49.6722 105.587 48.8272C105.933 47.9823 106.107 47.077 106.099 46.1642C106.091 45.2513 105.901 44.3492 105.541 43.5104C105.18 42.6716 104.657 41.913 104 41.2788L86.2213 23.5001C84.9246 22.2477 83.188 21.5548 81.3854 21.5704C79.5828 21.5861 77.8585 22.3091 76.5838 23.5838C75.3091 24.8585 74.5861 26.5828 74.5704 28.3854C74.5547 30.188 75.2477 31.9247 76.5 33.2213L94.2788 51.0001ZM85.74 85.3751C87.5634 85.3751 89.3121 84.6507 90.6014 83.3614C91.8907 82.0721 92.615 80.3234 92.615 78.5001C92.615 76.6767 91.8907 74.928 90.6014 73.6387C89.3121 72.3494 87.5634 71.6251 85.74 71.6251H60.5913C58.7679 71.6251 57.0192 72.3494 55.7299 73.6387C54.4406 74.928 53.7163 76.6767 53.7163 78.5001C53.7163 80.3234 54.4406 82.0721 55.7299 83.3614C57.0192 84.6507 58.7679 85.3751 60.5913 85.3751H85.74ZM202.409 85.3751C204.232 85.3751 205.981 84.6507 207.27 83.3614C208.559 82.0721 209.284 80.3234 209.284 78.5001C209.284 76.6767 208.559 74.928 207.27 73.6387C205.981 72.3494 204.232 71.6251 202.409 71.6251H177.26C175.437 71.6251 173.688 72.3494 172.399 73.6387C171.109 74.928 170.385 76.6767 170.385 78.5001C170.385 80.3234 171.109 82.0721 172.399 83.3614C173.688 84.6507 175.437 85.3751 177.26 85.3751H202.409ZM176.779 133.5C177.413 134.157 178.172 134.68 179.01 135.041C179.849 135.401 180.751 135.591 181.664 135.599C182.577 135.607 183.482 135.433 184.327 135.087C185.172 134.741 185.94 134.231 186.585 133.585C187.231 132.94 187.741 132.172 188.087 131.327C188.433 130.482 188.607 129.577 188.599 128.664C188.591 127.751 188.401 126.849 188.041 126.01C187.68 125.172 187.157 124.413 186.5 123.779L168.721 106C168.087 105.343 167.328 104.82 166.49 104.459C165.651 104.099 164.749 103.909 163.836 103.901C162.923 103.894 162.018 104.067 161.173 104.413C160.328 104.759 159.56 105.269 158.915 105.915C158.269 106.56 157.759 107.328 157.413 108.173C157.067 109.018 156.894 109.923 156.901 110.836C156.909 111.749 157.099 112.651 157.459 113.49C157.82 114.328 158.343 115.087 159 115.721L176.779 133.5ZM124.625 149.409C124.625 151.232 125.349 152.981 126.639 154.27C127.928 155.559 129.677 156.284 131.5 156.284C133.323 156.284 135.072 155.559 136.361 154.27C137.651 152.981 138.375 151.232 138.375 149.409V124.26C138.375 122.437 137.651 120.688 136.361 119.399C135.072 118.109 133.323 117.385 131.5 117.385C129.677 117.385 127.928 118.109 126.639 119.399C125.349 120.688 124.625 122.437 124.625 124.26V149.409ZM150.118 79.3251C151.402 78.0364 152.124 76.2909 152.124 74.4713C152.124 72.6517 151.402 70.9062 150.118 69.6176L140.383 59.8826C139.093 58.5937 137.345 57.8697 135.522 57.8697C133.699 57.8697 131.951 58.5937 130.661 59.8826L112.883 77.6751C111.594 78.9643 110.87 80.7127 110.87 82.5357C110.87 84.3587 111.594 86.1071 112.883 87.3963L122.618 97.1313C123.907 98.4202 125.655 99.1442 127.478 99.1442C129.301 99.1442 131.05 98.4202 132.339 97.1313L150.118 79.3526V79.3251ZM108.868 120.575C110.152 119.286 110.874 117.541 110.874 115.721C110.874 113.902 110.152 112.156 108.868 110.868L99.1325 101.133C97.8433 99.8437 96.0949 99.1197 94.2719 99.1197C92.4489 99.1197 90.7005 99.8437 89.4113 101.133L2.88254 187.675C1.59367 188.964 0.869629 190.713 0.869629 192.536C0.869629 194.359 1.59367 196.107 2.88254 197.396L12.6175 207.131C13.9068 208.42 15.6552 209.144 17.4782 209.144C19.3012 209.144 21.0495 208.42 22.3388 207.131L108.868 120.575Z" fill="#FCEAD1"/>
</svg>
