<svg width="39" height="31" viewBox="0 0 39 31" fill="none" xmlns="http://www.w3.org/2000/svg">
<path d="M34.1206 8.53514C33.5219 8.53413 32.9295 8.65749 32.3795 8.89761C31.8296 9.13774 31.3338 9.48956 30.9227 9.93147V5.26707C30.9207 3.87119 30.374 2.53304 29.402 1.54601C28.4301 0.558963 27.1123 0.00357147 25.7377 0.00158691H12.7793C11.4046 0.00307629 10.0866 0.55831 9.11455 1.54546C8.14247 2.53262 7.59572 3.87103 7.59426 5.26707V9.93428C6.98975 9.2843 6.20704 8.83355 5.34745 8.64038C4.48784 8.44722 3.59094 8.52051 2.77284 8.85082C1.95472 9.1811 1.25307 9.75317 0.758714 10.493C0.264352 11.2328 4.43791e-05 12.1062 0 13.0003C0 18.8612 3.55842 23.8941 8.59662 25.9881L9.11559 30.5485H10.3553L11.1642 26.7651C12.0354 26.9377 12.9209 27.0243 13.8084 27.0238H24.7091C25.5965 27.0243 26.4817 26.9377 27.3527 26.7651L28.1618 30.5485H29.4014L29.9189 25.9868C34.9571 23.8941 38.5156 18.8598 38.5156 12.9989C38.5139 11.8156 38.0503 10.6813 37.2265 9.84463C36.4026 9.00791 35.2858 8.537 34.1206 8.53514ZM24.7091 25.8321H13.8084C6.84119 25.8321 1.17229 20.0752 1.17229 13.0003C1.173 12.1649 1.48819 11.3615 2.05329 10.7544C2.6184 10.1474 3.39066 9.78279 4.21191 9.73519C5.03315 9.6876 5.84123 9.96069 6.47065 10.4985C7.10009 11.0363 7.50322 11.7981 7.5975 12.628C7.61241 12.7515 7.62012 12.8758 7.62056 13.0003C7.62056 16.4648 10.3964 19.2832 13.8075 19.2832H19.2557C19.3341 19.2855 19.4121 19.2717 19.4851 19.2428C19.5582 19.2139 19.6248 19.1704 19.681 19.1149C19.7372 19.0594 19.7818 18.993 19.8123 18.9197C19.8429 18.8464 19.8586 18.7676 19.8586 18.688C19.8586 18.6084 19.8429 18.5296 19.8123 18.4562C19.7818 18.3829 19.7372 18.3165 19.681 18.261C19.6248 18.2056 19.5582 18.1621 19.4851 18.1332C19.4121 18.1043 19.3341 18.0905 19.2557 18.0928H13.8075C12.4783 18.0905 11.2041 17.5532 10.2642 16.5987C9.32432 15.6441 8.7954 14.3501 8.79332 13.0003C8.79363 12.842 8.78484 12.6839 8.767 12.5267V5.26707C8.7681 4.18673 9.19116 3.15097 9.94336 2.38701C10.6956 1.62305 11.7155 1.19331 12.7793 1.19207H25.7377C26.8016 1.19318 27.8216 1.62287 28.5739 2.38683C29.3263 3.15081 29.7493 4.18666 29.7504 5.26707V12.5206C29.7327 12.6797 29.7237 12.8397 29.7237 12.9998C29.7221 14.1193 29.358 15.2072 28.6875 16.0959C28.017 16.9845 27.0774 17.6246 26.0133 17.9174C26.0031 17.9201 25.9932 17.924 25.9839 17.9291C25.9757 17.9298 25.9677 17.9319 25.9602 17.9352C23.9319 18.7032 20.9133 15.8722 17.0792 12.2829C16.4051 11.6457 15.9042 11.0802 15.5052 10.5058C15.1331 9.96711 14.8926 9.48792 14.7577 9.00262C14.5966 8.43388 14.6026 7.93125 14.7753 7.46096C14.9867 6.8861 15.3002 6.47631 15.7398 6.21936C16.2615 5.91318 16.8156 5.86256 17.4426 6.07074C17.8189 6.19791 18.1584 6.4178 18.4307 6.71074C18.523 6.80453 18.6153 6.90441 18.7077 6.99959L19.2266 7.54113L19.7221 7.07695C19.7955 7.00849 19.8657 6.94567 19.9331 6.87439C20.2101 6.57384 20.4373 6.38347 20.6746 6.25219C21.29 5.91599 21.8792 5.85926 22.4752 6.07355C22.8654 6.2142 23.1849 6.47538 23.4514 6.8772C23.7708 7.35966 23.9089 7.86185 23.8668 8.41043C23.8405 8.80006 23.7261 9.19626 23.5238 9.62952C23.2778 10.1532 22.9407 10.6564 22.4619 11.2162C22.0507 11.6956 21.608 12.1462 21.1368 12.5647C21.03 12.6718 20.9677 12.8164 20.9628 12.9688C20.9578 13.1211 21.0105 13.2696 21.11 13.3837C21.2095 13.4978 21.3483 13.5688 21.4978 13.5822C21.6473 13.5955 21.7962 13.5502 21.9138 13.4555C22.4212 13.0011 22.8993 12.5138 23.3451 11.9969C23.8872 11.3629 24.2921 10.7557 24.5794 10.1397C24.8457 9.57418 24.9949 9.03826 25.0336 8.49858C25.0949 7.68855 24.88 6.88176 24.4247 6.21374C24.0169 5.60045 23.4923 5.1747 22.8654 4.94777C21.9508 4.61957 21.0273 4.70678 20.1187 5.20379C19.8019 5.38091 19.5125 5.60446 19.2599 5.86723C18.8562 5.44329 18.3575 5.12478 17.8064 4.93887C16.8594 4.62331 15.9656 4.70959 15.1507 5.18878C14.4765 5.58779 13.9811 6.21281 13.6764 7.04601C13.4183 7.75166 13.4035 8.51967 13.6302 9.32896C13.8061 9.94506 14.0966 10.5377 14.5476 11.1895C14.9987 11.8412 15.5445 12.4554 16.2948 13.1658C19.9885 16.6247 22.7957 19.256 25.2344 19.256C25.6038 19.2581 25.9704 19.1937 26.3177 19.0661C26.3239 19.0656 26.3299 19.0637 26.3352 19.0605C26.3467 19.0572 26.3586 19.0516 26.3704 19.0483C27.6715 18.6804 28.8183 17.8899 29.6353 16.7977C30.4526 15.7054 30.8948 14.3715 30.8951 12.9998C30.8999 12.1327 31.2413 11.3026 31.8453 10.6897C32.4492 10.0768 33.2669 9.73052 34.1206 9.7261C34.9755 9.72661 35.7954 10.0717 36.3999 10.6856C37.0044 11.2995 37.3442 12.1321 37.3447 13.0003C37.3447 20.0752 31.6758 25.8321 24.7091 25.8321Z" fill="#FFB128"/>
</svg>
